/* XPM */
static char *result[] = {
/* columns rows colors chars-per-pixel */
"50 50 129 2 ",
"   c black",
".  c #107848",
"X  c #585858",
"o  c gray40",
"O  c #E83800",
"+  c #B85800",
"@  c #588028",
"#  c #23C600",
"$  c #2BC601",
"%  c #24CB00",
"&  c #2BCD00",
"*  c #28C70D",
"=  c #2BC90A",
"-  c #32C601",
";  c #3AC700",
":  c #33CD01",
">  c #3BCD00",
",  c #33C70C",
"<  c #34CC0B",
"1  c #3ACF0C",
"2  c #26D200",
"3  c #2CD300",
"4  c #2FD30C",
"5  c #34D401",
"6  c #3BD400",
"7  c #34DA00",
"8  c #3CDB00",
"9  c #33D60A",
"0  c #3CD30A",
"q  c #2ECB16",
"w  c #34C716",
"e  c #35CB15",
"r  c #3ACC14",
"t  c #35C91C",
"y  c #3BCC1B",
"u  c #35D316",
"i  c #3BD415",
"p  c #3DDA15",
"a  c #34D418",
"s  c #3BD41C",
"d  c #3CCD22",
"f  c #3DCE2A",
"g  c #3DD322",
"h  c #3ED22A",
"j  c #43CC00",
"k  c #4CCE00",
"l  c #43D500",
"z  c #4BD501",
"x  c #43DC00",
"c  c #4BDC00",
"v  c #43D60A",
"b  c #4AD608",
"n  c #41DB0E",
"m  c #4BD90F",
"M  c #54D400",
"N  c #5BD600",
"B  c #54DC00",
"V  c #5ADD01",
"C  c #54DD0B",
"Z  c #41CF1C",
"A  c #42D316",
"S  c #49D516",
"D  c #44DD16",
"F  c #4DDD16",
"G  c #44D419",
"H  c #4AD41F",
"J  c #52D616",
"K  c #52DB15",
"L  c #61D600",
"P  c #63DB00",
"I  c #6CDC00",
"U  c #44E300",
"Y  c #4AE500",
"T  c #53E201",
"R  c #5DE100",
"E  c #49E116",
"W  c #66E100",
"Q  c #6AE200",
"!  c #73E100",
"~  c #41CD23",
"^  c #42CE2A",
"/  c #4ACD2C",
"(  c #43D523",
")  c #4BD523",
"_  c #44DA25",
"`  c #4BDB22",
"'  c #44D32B",
"]  c #4BD52B",
"[  c #44D82A",
"{  c #4BDA2B",
"}  c #52D623",
"|  c #53DD22",
" . c #59DD22",
".. c #52D52D",
"X. c #58D72B",
"o. c #55DC2B",
"O. c #5ADC2C",
"+. c #4CCD33",
"@. c #50CE35",
"#. c #52CE39",
"$. c #46D035",
"%. c #4CD235",
"&. c #4ED935",
"*. c #53D434",
"=. c #59D731",
"-. c #54DB35",
";. c #58DC35",
":. c #54D33C",
">. c #5AD43E",
",. c #54D83B",
"<. c #5AD938",
"1. c #61DD37",
"2. c #60D83B",
"3. c #38A070",
"4. c #78A048",
"5. c #5BD442",
"6. c #5EDA44",
"7. c #64D64C",
"8. c #64D94A",
"9. c #68D84C",
"0. c #F09810",
"q. c #E08040",
"w. c #F09850",
"e. c #98C068",
"r. c #F8D048",
"t. c #60C898",
"y. c #808080",
"u. c #C8C8C8",
"i. c #F8F8F8",
/* pixels */
"X.J F K K K F E F F F G A i r u r e e e w w w e e i i D F E F D p p p a q q q q q u u i s a a i A ..",
" .M M B B c c c c Y l l 6 : : & : : < - $ $ $ $ & & 5 8 8 U x x U 8 7 3 3 3 3 & 3 3 5 8 6 6 5 5 8 { ",
" .V V V V Y Y c c x x 8 6 : : & < , , - $ = # = & & 5 6 8 U U 8 8 8 8 6 5 3 3 3 3 7 8 8 n 8 8 5 5 { ",
" .V V T B c c c U l x l > > : < y / / e $ = = # $ % 3 5 8 8 U 8 U 8 7 7 5 7 7 7 7 8 U n U 8 6 5 5 { ",
" .V R T B c x U x x l 0 0 A s r +.7.>.Z , $ % % = e a 9 8 8 7 8 8 7 5 5 3 7 7 7 U U U c n U 8 5 5 { ",
"| T T Y Y Y U x x 8 l l v *.>.%.] >.@.Z 1 < = % d ,.,._ p 8 7 7 7 7 5 7 7 7 7 7 7 U c Y c x l 8 6 ] ",
"{ Y Y Y Y U U U x x x l v <.9.=.H ..) Z r < 3 = h 6.8.{ i 9 7 5 5 3 5 5 8 x 7 7 8 U x x c x l 6 6 [ ",
"` x Y Y Y U U U x x x x b } X.} } 2.=.S v   & 3 a   [ s 9 5 5 3 : 3 5 8 V T x 8 8 x U x U x l x 6 [ ",
"` x U U U U U U U U x c c c c b  .1.O.m   r.  3   i.  3 3 3 5 : 6 z l l M B z M V c x 8 x x x x 8 ] ",
"` 8 x U U U U U U x Y c c B V B C K K   r.0.O   i.i.  3 &   : 0 l B M j j j z P Q N l 6 6 6 x x x ..",
"` x U x U U U U U c c V B V V T T     r.0.    i.i.u.  &   r.  6 l z z j M M k N P M 6 6 6 8 x x x o.",
"` x U x 8 x 8 8 x c c B V R R R   r.r.    i.i.i.u.      r.r.  l z z > l N N M k z > : : 5 6 x x Y o.",
"| Y x x 8 8 8 6 6 l c V V R           @   i.i.u.u.  O 0.r.  6 z M z z ; j M N M j : : : 5 6 l c c o.",
"| c x 8 8 7 5 5 6 6 l V Q   0.O O O   @ i.  u.u.  O r.0.  : >   N P M ; - j M k ; - : : 5 8 x c c o.",
"| Y l 6 7 5 5 5 : > 6 B   0.O       @ 4.4.i.    O O 0.r.r.    r.  I L ; $ - j ; - : 0 0 0 8 l x l o.",
"| x x 6 5 3 & & & 5 :   0.O   i.u.  @ 4.e.4.u.u.  O O 0.0.r.0.r.  N k - # # $ - $ : A ) G 6 6 l l o.",
"` x 6 5 & 3 % $ $     o     i.i.u.  @ @ 4.e.4.@   O O O O 0.0.  6 j : $ # # # # # : A ~ A 5 5 6 6 ..",
") 6 6 : & & $ $   q.q.    0.i.u.        @ 4.4.4.@   O r.r.r.    > : : $ # # # # # & < 1 < 3 : : > ^ ",
"( : 5 & & $ $   q.  w.q.  O u.  w.w.q.+   @ 4.4.@   O 0.0.r.  r.  : & $ # # # # # $ $ & $ $ $ : : ^ ",
"g : : & $ $ $   q.w.w.+ q.w.  w.q.q.q.q.+   @ @ @   r.O 0.r.r.0.  5 $ $ # # # # % # $ $ $ # $ & $ ^ ",
"d : : & $ % = t   q.w.w.w.q.q.+ + + q.q.+   @ @   y.  r.O O 0.  : 3 $ % # # % % % # % # # # # $ $ f ",
"g 3 : & $ $ y >.  + q.q.q.q.+       + q.+   @   y.i.X   O 0.  & & & % % % # # % % % % % % % & $ $ f ",
"g 5 5 : & < ' 7.9.  + + + +   i.O u.  + +     y.y.X         i.  $ & : 5 2 % % % % % % % $ & % % $ f ",
"_ 9 6 6 5 9 s :.=.G   i.u.  u.O i.  q.+ +   y.i.X     . . i.i.          6 3 2 2 2 2 2 2 3 & 3 & 3 f ",
"_ 0 v v v v 0 6 0 6 > : i.        q.+ +   y.y.X   . . . . . . . . i.i.u.  5 6 6 2 2 3 3 3 & & 3 & h ",
") v l b z b z l l 0 0   q.q.q.+ + + +   y.i.X   . . i.. 3.3.3.3.. i.i.u.  x T x 7 2 2 7 3 3 2 % & ' ",
") v b b b l z R V l >   + + +         y.y.X   . . i.i.3.3.t.t.3.3.. u.u.  T T x 7 2 3 2 2 2 2 3 & ' ",
"` b b b z z R Q P z z k       #   X y.i.X     . . . . 3.t.i.i.u.3.3.. .   R U 8 7 7 7 3 2 2 3 2 3 [ ",
") b l j l N Q W M z N P k $ # # $   X X   i.  . . . . 3.t.i.i.u.3.3.. .   U U c Y l 8 3 2 2 3 3 : ' ",
") > > ; > M W V z z N P j $ # # 3         u.i.    . . 3.3.3.u.u.3.3.3.. i.  7 c B l 5 5 3 3 2 & & ' ",
"~ ; ; $ : 6 z V M 6 > j ; $ $ & 5   i.y.  u.u.i.i.  . . 3.3.3.3.3.3.3.. i.i.  l z l 5 3 % % % % & ' ",
"~ : ; : : 6 6 l z 6 z         5 6   X X y.  u.u.i.    . . 3.3.3.3.3.3.. .   6 j l 6 : = # # # % % f ",
"d - : : > l 6 8 6 6   i.i.+ +     +   X i.y.  u.i.i.  . i.i.3.3.3.3.. . .   l j 6 > y d t # # % 2 h ",
"d : : > 6 x x 8 8 7 6     + q.+ + + q.  X y.  u.u.i.  . . i.. 3.i.i.u.. .   l 6 6 9 ] 5.+.* # % & ' ",
") : > 6 x x U x 8 9     + q.w.q.q.q.q.  X X y.  u.i.    . . . . i.i.u.. . i.  6 6 5 ' :.' * % % 3 [ ",
") 6 6 6 x x x x n   i.i.+ q.w.w.w.q.q.q.  i.y.  u.i.i.  . . . . . u.u.. .   8 8 6 6 0 u 4 % % 2 5 { ",
"( 5 8 x x x x x ` X.      + q.q.q.q.q.+   X y.  u.u.i.    . . . . . . . .   c x 8 x x 5 3 2 % 3 3 [ ",
"( 6 8 x x x 8 0 H =.  i.i.+ q.q.q.+ +         +   u.i.i.    . . . . . .       c x c l 8 5 3 % 3 3 h ",
"g 6 8 x x 6 6 6 0 A 1       + + +     q.q.w.q.+   u.u.i.i.i.    . . .       i.  c z l 6 5 3 2 % 2 h ",
"g 5 8 6 6 6 : : ; : : :   i.i.    & &     q.w.+ +   u.u.i.i.i.i.      i.  i.i.  c z z 6 : & % 3 & f ",
"g : 5 6 > : ; - $ - ; : ;     - &     q.q.w.+ + + +   u.u.u.u.i.i.i.i.u.      q.  c l z : : & & & h ",
"d : : > : - $ $ $ - ; j j j ; ;   i.i.q.w.q.q.q.q.+ +     u.u.u.u.u.u.  + + + q.q.  z l 6 : 5 : & f ",
"d : : - - - - $ - - > k L N j   i.i.i.q.+ + + + + + + + +             + + + +     c z x 6 > > 5 : ^ ",
"s < r w , w Z w : : j N ! ! N                             4 % & & > c         W c z x l l j l 6 6 ^ ",
"d e / +.~ @.5./ e : 6 M P P N z l 6 : & & & 3 3 3 9 g [ s % & & 3 : l c z c R T x 8 6 6 l l l 6 6 / ",
"d e @.#.^ #.7.@., : : l M c z z l 6 5 5 3 3 3 3 7 5 4 9 3 & % 3 & & & : 5 l c c 6 6 6 6 6 l l l l ] ",
"~ , y d e ~ / Z 1 > 6 6 l l l l 6 8 6 5 5 5 3 5 5 5 7 3 3 & 3 % % & & & 6 c W P z l 6 6 6 6 l l 8 ] ",
"~ : & $ : < > 1 6 6 6 6 x 6 l x 6 6 8 8 5 5 5 5 5 5 7 8 5 5 & & & $ & : 5 z P M z 6 6 : 6 6 6 l l ] ",
"( : & & : : 6 l l l x l 6 6 8 5 6 6 8 8 6 6 : > > 5 8 x 8 6 5 & 3 & & 5 : > 6 > : : : : 5 > 6 l l ) ",
">.+.+.$.%.*.*.-.;.;.-.-.&.&.&.&.&.&.&.&.&.%.%.%.%.&.-.-.-.&.&.&.$.$.$.%.$.$.$.$.$.$.$.$.%.%.&.&.=.6."
};
