/* XPM */
static char *result[] = {
/* columns rows colors chars-per-pixel */
"50 50 127 2 ",
"   c black",
".  c #107848",
"X  c #585858",
"o  c gray40",
"O  c #E83800",
"+  c #B85800",
"@  c #588028",
"#  c #24C601",
"$  c #2AC601",
"%  c #24CB00",
"&  c #2BCD00",
"*  c #28C70D",
"=  c #2BC90A",
"-  c #31C702",
";  c #33CD01",
":  c #3BCE00",
">  c #33C70C",
",  c #34CC0B",
"<  c #38CE09",
"1  c #26D200",
"2  c #2CD300",
"3  c #2FD30C",
"4  c #34D400",
"5  c #3BD401",
"6  c #34DA00",
"7  c #3CDB00",
"8  c #33D70A",
"9  c #3CD30A",
"0  c #2ECB16",
"q  c #34C716",
"w  c #35CB15",
"e  c #3ACC14",
"r  c #3BCC1B",
"t  c #35D215",
"y  c #3BD415",
"u  c #3DDA15",
"i  c #3BD41C",
"p  c #3FE500",
"a  c #3CCD22",
"s  c #3DCE2A",
"d  c #3DD322",
"f  c #3ED22A",
"g  c #43CD00",
"h  c #4CCE00",
"j  c #43D501",
"k  c #4BD501",
"l  c #43DC00",
"z  c #4BDC00",
"x  c #43D60A",
"c  c #4AD608",
"v  c #41DB0E",
"b  c #54D400",
"n  c #5BD600",
"m  c #54DD00",
"M  c #5ADD01",
"N  c #54DD0B",
"B  c #41CF1C",
"V  c #42D316",
"C  c #49D516",
"Z  c #44DD16",
"A  c #4DDD16",
"S  c #43D41A",
"D  c #4AD41F",
"F  c #4ADA1E",
"G  c #52D616",
"H  c #52DB16",
"J  c #63DC00",
"K  c #44E300",
"L  c #4BE400",
"P  c #54E301",
"I  c #5CE301",
"U  c #56E800",
"Y  c #5AE803",
"T  c #49E116",
"R  c #64E200",
"E  c #6BE400",
"W  c #6CE903",
"Q  c #73E100",
"!  c #41CD23",
"~  c #42CE2A",
"^  c #4ACD2C",
"/  c #43D523",
"(  c #4BD523",
")  c #44DA25",
"_  c #4BDB22",
"`  c #44D32B",
"'  c #4BD52A",
"]  c #44D82A",
"[  c #4CD92A",
"{  c #52D623",
"}  c #53DD22",
"|  c #59DD22",
" . c #51D52C",
".. c #58D72B",
"X. c #55DC2B",
"o. c #5ADC2C",
"O. c #4CCD33",
"+. c #50CE35",
"@. c #52CE39",
"#. c #46D035",
"$. c #4CD235",
"%. c #4ED935",
"&. c #53D434",
"*. c #59D731",
"=. c #54DB35",
"-. c #58DC35",
";. c #55D33C",
":. c #5AD43E",
">. c #54D83B",
",. c #5AD938",
"<. c #61DD37",
"1. c #60D83B",
"2. c #38A070",
"3. c #78A048",
"4. c #5BD442",
"5. c #5EDA44",
"6. c #64D64C",
"7. c #68D84C",
"8. c #F09810",
"9. c #E08040",
"0. c #F09850",
"q. c #98C068",
"w. c #F8D048",
"e. c #60C898",
"r. c #808080",
"t. c #C8C8C8",
"y. c #F8F8F8",
/* pixels */
"..G G H H H A A A A A C y y e e t w w r q q q w e y y Z T T Z Z Z u t t 0 0 0 0 0 t t t u y t y y  .",
"| b m z m z L z z K l 5 : : ; ; & ; ; - $ $ $ $ & & 4 5 7 K l z p 7 6 6 2 & 2 % 2 4 4 7 9 4 4 4 7  .",
"| M M P m m z z z l l j : ; ; & - > > - $ $ = = & & 4 5 7 K K 7 7 7 7 4 4 2 2 2 2 6 7 7 v 7 7 4 4 [ ",
"| M M M P z K z z l j 9 5 ; ; , ! O.^ q = $ # # $ & 2 4 7 7 K 7 p 7 7 6 4 6 6 6 6 7 K v K 7 5 4 6 [ ",
"X.M P U m z K l l l j x 9 y B e ^ 7.:.B , = % # * w t 8 7 7 6 p 7 6 4 4 6 2 2 p p K K z K v 5 4 4 [ ",
"} L P U L L K l l l 7 j x &.:.$.' :.+.B , , % = d 4.>.) u 7 4 6 6 4 6 4 6 6 6 6 7 K K z z z l 7 4 [ ",
"_ z L L L K K p l l 7 k x ,.7.*.D  .^ V y < &   f 5.5.  u 8 4 2 2 4 4 4 7 7 7 6 7 K z z K z l 5 5 ] ",
"_ K L L L K K K K l l l c { *.{ { 1...C x <   y.  #.  w.  4 4 4 4 2 4 7 m M l 7 7 7 7 K l l j 5 5 [ ",
"_ l K L K L p K K l K z z z z c | <.o.  x 9   y.y.  O 8.w.  4 ; 5 j j j b m k b M k l l l l l l 5 [ ",
"_ 7 l K K K p K K z z z m z m m N H   w.  5   t.y.y.    8.w.    k m b g g h h J E M j 5 5 5 l 7 j [ ",
"_ l l K K l K l l z z L m M M M M m   w.w.      t.y.y.y.    w.w.  k k h b b h n J b 5 4 5 7 7 z z X.",
"_ K l l p l 7 7 l z z M M I M I P P L   w.8.O   t.t.y.y.  @           g b J h h h : ; ; 4 5 l z z X.",
"} K z 7 7 7 5 7 7 l z m M I I I I   L z   8.w.O   t.t.  y.@   O O O 8.  g b n b g - : ; 4 5 l z K X.",
"} L l l 6 6 4 4 : 5 l M E E Y Y   w.    w.w.8.O O     y.3.3.@       O 8.  g b h : - ; ; 4 7 l k z X.",
"} z l 5 4 4 4 4 ; 5 5 b E W I P   w.8.w.8.8.O O   t.t.3.q.3.@   t.y.  O 8.  g : - : < 9 9 7 l j z X.",
"} z 7 5 4 2 2 & & ; ; k P E W Y K   8.8.O O O O   @ 3.q.3.@ @   t.y.y.    o     $ ; y ( S 5 5 j j  .",
"( l 5 4 4 & % & % & ; 5 5 I E U K     w.w.w.O   @ 3.3.3.@         t.y.8.    9.9.  ; y ( V 4 4 5 5  .",
"( 5 5 2 & & $ $ $ $ $ & 4 l L K   w.  w.8.8.O   @ 3.3.@   + 9.0.0.  t.O   9.0.  9.  < > , 2 ; ; : ` ",
"/ 4 & ; $ $ # $ $ $ $ & 4 4 7 7   8.w.w.8.O w.  @ @ @   + 9.9.9.9.0.  0.9.+ 0.0.9.  & & $ $ & & : ~ ",
"a ; 4 ; $ # $ $ $ $ $ & & 4 4 5 6   8.O O w.  r.  @ @   + 9.9.+ + + 9.9.0.0.0.9.  # $ $ $ $ $ $ $ s ",
"a ; ; & $ $ = r y , & ; & ; ; ; 4 ;   8.O   X y.r.  @   + 9.+       + 9.9.9.9.+   % # # # # $ $ $ s ",
"d 2 ; ; $ $ r ;.;./ < ; ; ; & & &   y.        X r.r.    + +   t.O y.  + + + +   # % % % % # % $ $ s ",
"d 8 4 & & , ~ 7.7. .< : ;           y.y.. .     X y.r.  + + 9.  y.O t.  t.y.  % % % % 1 $ % & & $ s ",
") 8 5 5 4 8 S &.&.V < :   t.y.y.. . . . . . . .   X r.r.  + + 9.        y.2 & 1 1 1 1 1 2 & 2 % % ~ ",
"/ 9 9 x x 9 9 9 < j < ;   t.y.y.. 2.2.2.2.. y.. .   X y.r.  + + + + 9.9.9.  5 4 1 1 1 6 2 & & 2 & ` ",
"_ x c c z k k l j j < ;   t.t.. 2.2.e.e.2.2.y.y.. .   X r.r.        + + +   L z 6 1 2 2 2 2 1 % 2 ` ",
"( c c c k k k I M j ; ;   . . 2.2.t.y.y.e.2.. . . .     X y.r.X   J       P P l 2 1 2 1 1 1 1 2 & ` ",
"( c c k c k M E J k k k   . . 2.2.t.y.y.e.2.. . . .   y.  X X   M E R L P P z 7 6 p 6 2 1 1 2 1 2 ` ",
"( j g g g M E J b k J   y.. 2.2.2.t.t.2.2.2.. .     y.t.        I P z 7 7 K p z z k 4 2 2 1 1 2 2 ` ",
"( g : - : b J M k j   y.y.. 2.2.2.2.2.2.2.. .   y.y.t.t.  r.y.  P z K P K 6 6 z m l 7 2 2 % 1 2 ; ` ",
"! : - : ; : k M b 5 g   . . 2.2.2.2.2.2.. .     y.t.t.  r.X X   p l         5 k k 5 4 & % % % # & ` ",
"! - - : ; 5 5 z k j j   . . . 2.2.2.2.y.y..   y.y.t.  r.y.X   +     + + y.y.  j j 9 4 $ # # # % % s ",
"a & - : : 5 j 7 4 l k   . . t.y.y.2.. y.. .   y.t.t.  r.X   9.+ + + 9.+     j j : ; w ~ w * # # % f ",
"! : ; : 5 7 l 7 7 4   y.. . t.y.y.. . . .     y.t.  r.X X   9.9.9.9.0.9.+     j 5 9 ` 4.O.* # # & ` ",
"/ ; ; 5 l z K l 7 6 2   . . t.t.. . . . .   y.y.t.  r.y.  9.9.9.0.0.0.9.+ y.y.  4 8 / ;.` = % % 2 ] ",
"( 5 5 5 7 l z l u V t   . . . . . . . .     y.t.t.  r.X   + 9.9.9.9.9.+       5 5 5 9 y 0 1 % 1 6 ] ",
"/ 5 5 7 l K z 7 F o.      . . . . . .     y.y.t.  +         + + 9.9.9.+ y.y.  l l l 7 4 2 1 1 2 2 ] ",
"/ 5 l l l l 7 9 (   y.      . . .     y.y.y.t.t.  + 9.0.9.9.    + + +       L z l z l 7 2 2 & 1 2 f ",
"d 5 7 l j 5 5 5 9   y.y.  y.      y.y.y.y.t.t.  + + 0.9.    ; <     y.y.  P P z k k j 5 4 & % 1 2 f ",
"d 4 5 7 5 5 4 ;   9.      t.y.y.y.y.t.t.t.t.  + + + + 0.9.9.    4 5     P U U P z k k 5 ; 2 & % & s ",
"d ; 4 ; ; : :   9.9.+ + +   t.t.t.t.t.t.    + + 9.9.9.9.0.9.y.y.  4 5 z P U I P z k j g : ; & & & f ",
"a ; ; : : - $ $     + + + +             + + + + + + + + + 9.y.y.y.  5 l L L U P L m z j 5 ; 4 ; & s ",
"a ; : : $ - - $ $ -         h : : $ & &                             k m P U R I m b z j 5 : : 4 ; ~ ",
"d ; q q > q B q ; : : n Q J n h j ; 2 & & & 2 y i y $.;.` 3 & % & 4 b J I M W R z l l j g g j 5 5 ~ ",
"a w O.O.! +.4.^ q : 5 k J J n k j 4 ; & & & 2 2 6 8 d ] i & & 2 & ; k k l k I M l 5 5 5 j j j 5 5 ^ ",
"a w +.@.! @.6.+., & : k b m b k k 5 4 4 2 2 2 2 6 2 3 8 2 % & % & & & 2 4 l z z 5 5 7 5 5 j l j j ` ",
"! > r a q ! ^ B < ; 5 5 l k k j 5 7 5 4 4 4 2 4 4 4 6 2 2 & & 2 & & & & 4 b J J z j 5 : 5 5 j j j [ ",
"! ; & $ , < : 9 : 5 5 5 5 5 5 7 5 5 7 7 4 4 4 4 4 4 6 7 4 4 & & & $ & ; 5 k J n j 5 5 ; 5 5 5 j j [ ",
"/ ; & ; ; ; 5 j j l j l 5 5 4 5 7 5 7 7 5 5 ; : ; 5 7 l 7 5 2 & 2 & 2 ; ; 5 : : ; ; ; 4 ; : 5 j j ( ",
";.O.#.O.#.&.&.,.-.=.=.=.%.%.%.%.%.%.%.%.%.$.#.O.%.&.=.=.=.%.%.%.#.#.#.#.#.#.#.#.#.#.#.#.#.$.&.=.=.5."
};
