/* XPM */
static char *result[] = {
/* columns rows colors chars-per-pixel */
"50 50 115 2 ",
"   c black",
".  c #107848",
"X  c #585858",
"o  c #E83800",
"O  c #B85800",
"+  c #588028",
"@  c #23C500",
"#  c #2BC601",
"$  c #24CB00",
"%  c #2BCC00",
"&  c #28C70D",
"*  c #2BCA09",
"=  c #32C601",
"-  c #39C700",
";  c #33CC01",
":  c #3BCD00",
">  c #33C70C",
",  c #35CC0C",
"<  c #3ACF0C",
"1  c #26D200",
"2  c #2CD300",
"3  c #2FD30C",
"4  c #34D400",
"5  c #3BD400",
"6  c #34DA00",
"7  c #3CDB00",
"8  c #34D70B",
"9  c #3CD30A",
"0  c #2ECB16",
"q  c #34C716",
"w  c #35CB15",
"e  c #3ACC14",
"r  c #35C91C",
"t  c #3BCC1B",
"y  c #36D215",
"u  c #3BD416",
"i  c #3DDA15",
"p  c #3CCD22",
"a  c #3DCE2A",
"s  c #3DD322",
"d  c #3ED22A",
"f  c #43CD00",
"g  c #4CCE00",
"h  c #43D501",
"j  c #4BD501",
"k  c #43DC00",
"l  c #4ADC00",
"z  c #43D60A",
"x  c #4AD608",
"c  c #41DB0E",
"v  c #54D400",
"b  c #5BD500",
"n  c #54DD00",
"m  c #5ADD01",
"M  c #41CF1C",
"N  c #42D316",
"B  c #44DD16",
"V  c #4DDD16",
"C  c #43D41A",
"Z  c #4AD41F",
"A  c #52D616",
"S  c #51DA16",
"D  c #62DB00",
"F  c #44E300",
"G  c #4AE500",
"H  c #51E101",
"J  c #49E116",
"K  c #66E000",
"L  c #6AE200",
"P  c #73E100",
"I  c #41CD23",
"U  c #42CE2A",
"Y  c #4ACD2C",
"T  c #44D423",
"R  c #4AD523",
"E  c #4BDB22",
"W  c #44D32A",
"Q  c #4BD52A",
"!  c #44D82A",
"~  c #4CD92A",
"^  c #52D623",
"/  c #53DD22",
"(  c #59DD22",
")  c #52D52D",
"_  c #58D72B",
"`  c #55DC2B",
"'  c #4CCD33",
"]  c #50CE35",
"[  c #52CE39",
"{  c #46D035",
"}  c #4CD235",
"|  c #4ED935",
" . c #53D434",
".. c #54DB35",
"X. c #58DC35",
"o. c #54D33B",
"O. c #5AD43E",
"+. c #5AD938",
"@. c #60D83B",
"#. c #38A070",
"$. c #78A048",
"%. c #5BD442",
"&. c #5CD942",
"*. c #64D64C",
"=. c #67DA4A",
"-. c #68D84C",
";. c #F09810",
":. c #E08040",
">. c #F09850",
",. c #98C068",
"<. c #F8D048",
"1. c #60C898",
"2. c #808080",
"3. c #C8C8C8",
"4. c #F8F8F8",
/* pixels */
"_ A S S S V V V J V V N N u w w y w w w q q q w e u i B V J J B i i i y 0 0 0 0 0 y y y u y y u i  .",
"( v n n n l l l l l k h 5 ; ; ; ; ; ; = # # # # % % 4 5 7 k F k F 7 6 6 2 1 2 % 2 4 4 7 7 5 4 4 5 ~ ",
"( m m m m G G l l k k h : 4 ; % , , > > # # * % % % 4 5 7 F k k k 7 7 6 2 2 2 2 6 6 7 7 k 7 5 4 6 ~ ",
"( m m H n l l l k k h z : : ; , t ' Y > * * @ @ # $ 2 4 7 7 F 7 7 7 7 4 4 6 6 6 6 6 k J c 7 7 4 4 ~ ",
"( K H H n l k k k k h 5 9 e M e ' *.O.M , *   @ * w   8 7 7 7 7 7 6 6 6 6 6 6 6 7 F F x F k 7 4 4 Q ",
"/ H H H G G F F k k 7 z z  .%.Q Y O.] M e   <.  p   4.  i 6 6 6 6 4 4 4 6 6 6 6 6 F G F l k k 5 7 Q ",
"E G G G G F F F k k h k z +.=.+.Z ) R N   <.;.o   4.4.  i 8 6 2 4 2 4 4 7 7 6 6 7 k F k l F h 5 5 ! ",
"E k F G G F F F F k k k x ^ _ / ^ @.    <.;.    4.4.3.  8     4 4 2 4 5 n m k 7 k k k F F z k h 7 W ",
"E 7 F G F F F F F F k l l l v x (   <.<.    4.4.4.3.      <.<.  5 h h h v b j v m l k k k k k 5 5 Q ",
"E k k F F F F F F k l l l n n           +   4.4.3.3.  o ;.<.  5 k v v f f h j D P v h 5 5 h k k k ) ",
"E F k F F k F k k l G n m H   ;.o o o   + 4.  3.3.  o <.;.  ; 5 h v j h v v g b D j 5 4 5 7 k k k ` ",
"E k k k F 7 7 k k k l m m   ;.o       + $.$.4.    o o ;.<.<.    h j : f b b v g j f ; ; 4 5 k k G ` ",
"/ G k F 7 7 5 7 k h l n   ;.o   4.3.  + $.,.$.3.3.  o o ;.;.<.;.  v j - g g b v f ; = ; 5 5 k l l ` ",
"/ l k 7 7 6 4 4 5 h     L     4.4.3.  + + $.,.$.+   o o o o ;.;.<.  b - = f v g - = ; 4 4 7 k l l ` ",
"/ l k 5 4 4 2 4 ;   :.:.    ;.4.3.        + $.$.$.+   o <.<.<.  <.  b - @ = f f = ; 9 9 9 7 h h k ` ",
"E l k 5 4 2 % 2   :.  >.:.  o 3.  >.>.:.O   + $.$.+   o ;.;.<.    b g = @ @ # = % = N R C 5 5 k h _ ",
"E k 5 4 % % $ %   :.>.>.O :.>.  >.:.:.:.:.O   + + +   <.o ;.<.<.  : : # @ @ @ @ @ = N R N 4 4 5 5 ) ",
"R 5 5 % % % # # #   :.>.>.>.:.:.O O O :.:.O   + +   2.  <.o o ;.<.  = % @ @ @ @ $ % : , , % = ; - W ",
"T ; ; ; % % # # #   O :.:.:.:.O       O :.O   +   2.4.X   o ;.  ;.  % % @ @ @ @ # % % % % % % = ; U ",
"s ; ; % # # # # * %   O O O O   4.o 3.  O O     2.2.X         4.  = % # @ @ @ @ @ @ @ @ @ # # # = U ",
"p ; ; % # @ * r e , ,   4.3.  3.o 4.  :.O O   2.4.X     . . 4.4.          @ @ $ @ @ @ @ @ @ @ # # a ",
"s 2 4 % # % t O.o.M 9 ; ; 4.        :.O O   2.2.X   . . . . . . . . 4.4.3.  $ $ $ $ @ $ $ $ % $ % a ",
"s 4 ; 4 % , U -.-.Q : ;   :.:.:.O O O O   2.4.X   . . 4.. #.#.#.#.. 4.4.3.  $ 1 $ $ $ 1 2 % $ % % a ",
"T 8 5 9 4 8 C o. .Z 5 ;   O O O         2.2.X   . . 4.4.#.#.1.1.#.#.. 3.3.  $ 1 1 1 1 1 2 % 2 % % a ",
"T 9 z h z h 9 9 < 5 : ; #       @   X 2.4.X     . . . . #.1.4.4.3.#.#.. .   5 5 1 1 1 6 2 % % 2 % a ",
"E z x x x x h k x 5 5 % # # @ @ @ @   X X   4.  . . . . #.1.4.4.3.#.#.. .   H k 6 1 1 6 2 2 1 $ % W ",
"E z x x x j l D m j 5 = # @ @ @ @ @         3.4.    . . #.#.#.3.3.#.#.#.. 4.  k 2 2 2 1 1 1 1 2 2 W ",
"R x x h j j m L D j h j ; # @ @ $ *   4.X   3.3.4.4.  . . #.#.#.#.#.#.#.. 4.4.  6 6 2 6 1 1 1 2 % W ",
"R h h f f m L D v j m         @ $     X 2.X   3.3.4.    . . #.#.#.#.#.#.. .   l G k 4 2 2 1 1 2 4 W ",
"R f : - : v K m j j   4.4.O O     O   X 2.4.X   3.4.4.  . 4.4.#.#.#.#.. . .   l v l 4 4 2 % 1 2 % W ",
"I - - ; ; : l v v 5 5     O :.O O :.:.  X 2.X   3.3.4.  . . 4.. #.4.4.3.. .   h j h 4 2 $ $ $ $ 2 U ",
"I ; = ; ; 5 5 l j h     O :.>.:.:.>.:.  X 2.2.X   3.4.    . . . . 4.4.3.. . 4.  h 5 ; * @ @ @ $ $ a ",
"p = ; ; : 5 h 7 6   4.4.O :.>.>.>.:.:.:.  X 4.X   3.4.4.  . . . . . 3.3.. .   h : 5 w U r @ @ @ $ d ",
"I ; ; : 5 k k 7 6 5       O :.:.:.:.:.O   X X X   3.3.4.    . . . . . . . .   5 9 : W %.' & @ $ 1 W ",
"I ; : 5 h k k 7 7 8   4.4.O :.:.:.O O O             3.4.4.    . . . . . .   5 5 4 8 T o.W * $ 1 2 Q ",
"R 5 5 7 k k G F c i y       O O O         O O   O   3.3.4.4.4.    . . .   h k 7 7 5 9 y 0 $ $ 2 6 ! ",
"T 5 7 k k F k z E ` Z ,   4.4.    5 7 5 5     :.O O   3.3.4.4.4.4.      4.  k k k k 7 5 2 2 1 2 2 ! ",
"T 7 7 k k k 7 5 Z _ T , ;     2 4 4 4 5 4   :.>.:.O O   3.3.3.3.4.4.4.4.3.    l k l k 5 4 1 2 $ 2 d ",
"s 5 7 k 5 5 5 5 9 N < ; ; % % % % 4 ; 4 4   :.>.>.:.O O     3.3.3.3.3.3.    4.  j j h 5 4 % $ 1 2 d ",
"s 4 5 5 5 5 5 ; ; = - ; ; ; % % % % % % ;   :.>.>.:.:.O O O               4.4.    j h 5 4 2 % $ $ a ",
"s ; 4 5 : ; = = = = = - - - = = # % % 2 %     :.>.:.:.O O     O O O O O O       4.  j f ; ; % % % d ",
"p ; ; : ; = = # # = - f g f - = % % %     :.:.>.:.O O O O       O O O O :.:.:.:.    l h 5 ; ; 4 ; a ",
"p ; ; = = = = # = = : j D b g - ; ;   4.4.:.>.:.:.:.:.O O O           O O O O O :.:.  h 5 : : 4 ; W ",
"s ; w q > e M q = ; f b P P b g :   4.4.4.:.O O O O O O O O   % % : l               h k h f h 5 : U ",
"p e ' ' I ] %.Y < = : v D D b j h                             1 2 ; h l l l m m k 7 5 5 h h h h 5 W ",
"p w ' [ I [ *.] e = 4 k v j j l h 5 4 4 4 2 2 2 4 6 4 3 2 % % % % % % ; 4 h l l 5 5 5 5 5 h 5 h h Q ",
"I , t p q I Q I < ; 5 5 h h h j 7 5 5 4 4 2 4 2 4 4 6 2 2 % % 2 $ % % % 5 l K D j h 5 5 5 5 h h 5 Q ",
"T = % # > ; < : 5 5 5 5 h k 5 5 5 5 7 7 5 4 4 4 4 4 6 6 4 2 % % % % % ; 4 j D b h 5 5 ; 5 5 5 h h Q ",
"p ; % ; ; : 9 5 h k h 5 5 7 5 4 5 7 7 7 5 5 ; : ; 5 7 7 7 5 2 % % % 2 ; 4 ; 5 : : ; ; 4 ; : 5 h h R ",
"[ } ' } } }  .X.X.X.X...| | | | | | | | | } ' } } | ..X.....| | { { { { ' { { { { { { { { } | ..X.&."
};
