/* XPM */
static char *result[] = {
/* columns rows colors chars-per-pixel */
"50 50 119 2 ",
"   c black",
".  c #585858",
"X  c #E83800",
"o  c #B85800",
"O  c #588028",
"+  c #24C601",
"@  c #2BC601",
"#  c #24CB00",
"$  c #2BCD00",
"%  c #28C70D",
"&  c #2BC90A",
"*  c #31C601",
"=  c #33CD01",
"-  c #3BCD00",
";  c #33C70C",
":  c #34CC0B",
">  c #38CE09",
",  c #26D200",
"<  c #2BD300",
"1  c #2FD30C",
"2  c #34D401",
"3  c #3BD400",
"4  c #34DA00",
"5  c #3CDB00",
"6  c #33D60A",
"7  c #3BD40A",
"8  c #2ECB16",
"9  c #34C716",
"0  c #35CB15",
"q  c #3ACC14",
"w  c #35C91C",
"e  c #3BCC1B",
"r  c #35D316",
"t  c #3BD415",
"y  c #3DDA15",
"u  c #34D418",
"i  c #3BD41C",
"p  c #3CCD22",
"a  c #3DCE2A",
"s  c #3DD322",
"d  c #3ED22A",
"f  c #43CE00",
"g  c #4DCF00",
"h  c #43D500",
"j  c #4BD501",
"k  c #43DC00",
"l  c #4BDC00",
"z  c #43D60A",
"x  c #4AD608",
"c  c #41DB0E",
"v  c #54D400",
"b  c #5CD600",
"n  c #54DD00",
"m  c #5ADD01",
"M  c #54DD0B",
"N  c #41CF1C",
"B  c #42D316",
"V  c #44DD16",
"C  c #4DDD16",
"Z  c #43D518",
"A  c #4AD11E",
"S  c #4ADA1E",
"D  c #52D616",
"F  c #52DB16",
"G  c #63DC00",
"H  c #44E300",
"J  c #4AE500",
"K  c #53E302",
"L  c #5DE200",
"P  c #49E116",
"I  c #65E300",
"U  c #6BE200",
"Y  c #74E200",
"T  c #41CD23",
"R  c #42CE2A",
"E  c #4ACD2C",
"W  c #43D523",
"Q  c #4BD523",
"!  c #44DA25",
"~  c #4BDB22",
"^  c #44D32B",
"/  c #4BD52B",
"(  c #44D82A",
")  c #4BDA2B",
"_  c #52D623",
"`  c #53DD22",
"'  c #59DD22",
"]  c #51D52C",
"[  c #58D72B",
"{  c #55DC2A",
"}  c #4CCD33",
"|  c #50CE35",
" . c #52CE39",
".. c #46D035",
"X. c #4CD235",
"o. c #4ED935",
"O. c #53D434",
"+. c #59D731",
"@. c #54DB35",
"#. c #58DC35",
"$. c #54D33C",
"%. c #5AD43E",
"&. c #5AD938",
"*. c #61DD37",
"=. c #60D83B",
"-. c #78A048",
";. c #5BD442",
":. c #5EDA44",
">. c #64D64C",
",. c #64D94A",
"<. c #68D84C",
"1. c #F09810",
"2. c #E08040",
"3. c #F09850",
"4. c #98C068",
"5. c #F8D048",
"6. c #808080",
"7. c #C8C8C8",
"8. c #F8F8F8",
/* pixels */
"[ D C F F C C C C C C Z B q e 0 r 0 0 q 9 9 9 9 0 t t V C P P V y y y u 8 8 8 8 8 r r u i u u t Z ] ",
"' v v n n l l l l J k 3 3 - = = = = = * @ @ & @ $ 2 2 5 k k H k H 5 4 < < < < $ < 2 2 5 5 3 2 2 3 ) ",
"' m m K m J J l l k k k - - = $ * : ; * @ @ & + $ $ 2 3 5 H 5 k 5 5 4 3 2 < < < < 4 5 5 5 5 3 2 4 / ",
"' m m m n l l l k k h h 7 = = $ p } E 9 $ & + + + + < 2 5 5 5 H H 5 5 4 2 4 4 4 5 5 H c c k 5 2 2 ) ",
"{ m L K n l k k k k h 7 7 B e e } >.%.q : & & + % u u 6 5 5 4 5 5 4 2 2 < 4 4 4 5 H H x H k 5 2 2 / ",
"` n K J J J H H 5 k h h z O.;./ / %.| N q : # # p $.@.! y 5 4 4 4 2 2 4 < 4 4 4 5 H J l l k k 3 5 ) ",
"~ l J J J H H H H k k h z &.<.+.A ] Q N 7 > $ & ^ :.,.) y 6 4 2 2 < 2 2 k H 5 4 4 k H H H l z 3 3 ( ",
"~ H J J J H H H k k k k x _ { _ [ =.[   B 7 < < u ..^ i 6   2 < 2 < 2 5 n m k 5 H 5 k k k k k h 3 / ",
"~ k H J J H H H H k l k l j j x ' *.  5.  7   < , ,   <   5.  2 3 h h h v m j v L j k k 5 k k k 5 / ",
"~ 5 k H H H H H 5 H l J l n K m M F   5.    1.  ,   1.    5.  3 h m v f f f g G U b 3 3 3 h k k k / ",
"~ H k H H H H H k J n n K m m K K   n       5.  ,   5.      =   h j g f v g g v G j 3 3 3 3 k k k { ",
"` k k 5 5 k 5 5 k k l n m m L L   8.    5.    5.  5.    5.    8.  h f f b G v g j f = = 2 5 k k J { ",
"` H k k 5 5 5 3 h k l m L L I L   8.    1.1.  5.  5.  1.1.    8.  v h - f v b v f - * = 2 5 k l l { ",
"` l k 5 5 4 2 2 - h h   U I   K   7.8.    1.  1.  1.  1.    8.7.  G   - *   v g * * = = 2 3 h l l { ",
"` l k 3 4 2 2 2 = 2   8.    8.    7.8.8.    5.X 1.X 5.    8.8.7.    8.    8.  - * = 7 7 7 5 k h l { ",
"` k k 3 2 $ < $ $ =   8.  8.      7.8.8.  X 5.1.1.1.5.X   8.8.7.      8.  8.  * * = B Q Z 3 3 h h ] ",
"Q k 3 2 = $ + $ $ $   o 2.2.o   8.  7.      X       X       7.  8.  o 2.2.o   + @ = B Q B 3 2 3 h / ",
"Q 3 3 < $ $ $ @ @ $   o 2.2.o 8.      X X 1.  -.4.-.  1.X X       8.o 2.2.o   + @ $ = ; ; $ = = - ^ ",
"W 2 = = $ @ @ @ @   o 2.3.2.2.o 8.  7.  7.X 1.  -.  1.X 7.  7.  8.o 2.2.3.2.o   + @ $ $ @ $ $ = = R ",
"p = = $ @ + @ @ @   o 3.3.2.2.o     O   7.8.X 1.  1.X 8.7.  O     o 2.2.3.3.o   + + @ @ + + @ @ @ R ",
"p = = $ $ + & e e   o 3.2.2.o   2   O   7.8.1.      1.8.7.  O   =   o 2.2.3.o   # + + + + + + @ @ a ",
"s < 2 = $ & e  .$.  o 2.o o o   $     3.  7.  2.3.2.  7.  3.    $   o o o 2.o   # # # # # + $ $ @ a ",
"s 2 = < $ $ ^ >.<.  o o         @   2.2.3.  3.  3.  3.  3.2.2.  $         o o   # # # , # # $ # $ a ",
"W 6 3 7 7 7 i $.O.      . . 8.    o o 2.o o 2.2.o 2.2.o o 2.o o     8.. .       , , , , < $ $ $ $ a ",
"! 7 h z z h 7 7 7   . . 8.6..     o o o     o o   o o     o o o     . 6.8.. .   , , , 4 < < $ $ $ a ",
"~ z x x x x j k h   8.6.6.    o     o   7.  8.7.X 7.8.X 7.  o     o     6.6.8.  4 , < < , , < # $ ^ ",
"Q x x x x j j L m   .     o 3.2.  .   o   8.X 8.X 8.X 8.  o   .   2.3.o     .   4 , , < , < , < < ^ ",
"Q x x h h j m U I j   o o 2.3.3.  . 6.  o   X X X X X   o   6..   3.3.2.o o   5 4 4 4 < , , < , $ ^ ",
"Q f f f f b U I v j b   o 2.2.3.  . 8.  o   7.      7.  o   8..   3.2.2.o   H l l h 2 4 , , , < 2 ^ ",
"Q - - - - v I m j j b   o o 2.2.o   .   o 2.  2.2.2.  2.o   .   o 2.2.o o   5 l m k 2 < , , < < $ ^ ",
"T - - * = - j m v 3 - f   o o 2.o     .   o o o   o o o   .     o 2.o o   k 3 h j h 2 $ # + + # $ ^ ",
"T = * = = - 3 l j h f j       o o   7.          8.          7.  o o       k 3 f h 3 2 & + + + # $ d ",
"p * * - - 3 h 5 3 3 j j   8.8.    X 7.8.8.              8.8.7.X     8.8.  h h h - - e p w + + # , a ",
"T = = - 3 k k 5 5 4 3 3   8.      X X 1.8.8.8.8.8.8.8.8.8.1.X X       8.  h h 3 2 7 / ;.} % + # $ ^ ",
"W = = 3 k k H k 5 6         2.2.3.  X 1.1.5.5.5.5.5.5.5.1.1.X   3.2.2.        3 3 6 W $.^ % # # 2 ( ",
"Q 3 3 5 k k k k c   8.8.o 8.    2.3.  1.1.1.1.1.1.1.1.1.1.1.  3.2.    8.o 8.8.  3 3 7 r 1 , # # < ) ",
"W 3 5 k k k k k S   8.2.2.o o o   o 2.  7.1.1.1.1.1.1.1.7.  2.o   o o o 2.2.8.  5 k k 2 < < # < < ( ",
"W 3 5 k k k 5 7   8.2.2.5.2.2.o   o 2.  7.8.8.8.8.8.8.8.7.  2.o   o 2.2.5.2.2.8.  l k 3 2 , # , < d ",
"W 3 5 k 5 3 3 3   2.2.5.5.5.2.o o   o 2.8.8.8.8.8.8.8.8.8.2.o   o o 2.5.5.5.2.2.  j h h 2 $ # < < d ",
"p 2 5 3 3 3 - =   2.2.5.5.5.5.2.o   o 2.2.8.8.8.8.8.8.8.2.2.o   o 2.5.5.5.5.2.2.  j h 3 2 $ < # # a ",
"p 2 2 - - = * * *   2.2.5.5.5.2.o   o o 2.2.2.2.2.2.2.2.2.o o   o 2.5.5.5.2.2.  l j l h - = $ < $ d ",
"p = = - = * * @ * *     2.2.5.2.o   o o o o o o o o o o o o o   o 2.5.2.2.    K l K j h - = = = = a ",
"p = * = * * * * @ * - g   2.2.2.  o o     o o o o o o o     o o   2.2.2.  K I L n l j h - - 3 = = R ",
"s = 9 q ; q e 9 = = f b Y       3     $ $               ^ &     $       L L U I l k k h h h h 3 3 R ",
"p q } } T | ;.E ; = 3 v G G m j h 3 = $ $ $ < < < 6 s ) i # $ < $ = h j j l m K 5 5 3 3 h h h h 3 ^ ",
"p 0 }  .R  .>.| q $ - h v j v j h 3 2 2 < < < < 4 2 6 1 < $ $ # < $ $ 2 2 k l l 3 3 3 3 3 h h h h / ",
"T ; e p 9 T E N > = 3 3 k h h h 3 5 3 2 2 2 < 2 2 4 < < < $ $ , + $ $ $ 2 v G G l h 3 3 3 3 3 k h / ",
"T = $ @ = > > z - 3 3 3 h 3 h 5 3 3 5 5 3 2 2 2 2 2 4 5 2 2 $ $ $ $ $ = 3 j G b h 3 3 - = 3 h h h / ",
"T = $ $ = = 3 h h h k h 3 3 5 2 3 3 5 5 3 3 = - - 3 5 5 5 3 2 $ $ < $ = 2 - - - = 2 = = = 3 3 h h Q ",
"$.X.} X.X.O.O.@.#.#.@.@.o.o.o.o.o.o.o.o.o.X.X.X.X.o.@.@.@.o.o.o.......X.................} X.o.o.@.:."
};
