/* XPM */
static char *result[] = {
/* columns rows colors chars-per-pixel */
"50 50 121 2 ",
"   c black",
".  c #107848",
"X  c #585858",
"o  c #E83800",
"O  c #824F12",
"+  c #B85800",
"@  c #588028",
"#  c #23C600",
"$  c #2BC601",
"%  c #24CB00",
"&  c #2BCD01",
"*  c #28C70D",
"=  c #2BC90A",
"-  c #31C601",
";  c #33CD01",
":  c #3BCD00",
">  c #33C70C",
",  c #34CC0B",
"<  c #3ACF0C",
"1  c #26D200",
"2  c #2CD300",
"3  c #2FD30C",
"4  c #34D400",
"5  c #3BD400",
"6  c #34DA00",
"7  c #3CDB00",
"8  c #33D70A",
"9  c #3CD30A",
"0  c #2ECB16",
"q  c #34C716",
"w  c #35CB15",
"e  c #3ACC14",
"r  c #3BCD1B",
"t  c #35D216",
"y  c #3BD415",
"u  c #3DDA15",
"i  c #3BD41B",
"p  c #3CCD22",
"a  c #3DCE2A",
"s  c #3DD222",
"d  c #3ED22A",
"f  c #43CD00",
"g  c #4CCE00",
"h  c #43D501",
"j  c #4BD501",
"k  c #43DC00",
"l  c #4BDC00",
"z  c #43D60A",
"x  c #4AD608",
"c  c #41DB0E",
"v  c #54D400",
"b  c #5BD500",
"n  c #53DC00",
"m  c #59DD00",
"M  c #41CF1C",
"N  c #42D316",
"B  c #49D516",
"V  c #44DD16",
"C  c #4DDD16",
"Z  c #44D31A",
"A  c #49D61F",
"S  c #4ADA1E",
"D  c #52D616",
"F  c #51DA16",
"G  c #63DB00",
"H  c #6CDC00",
"J  c #44E300",
"K  c #4BE400",
"L  c #53E301",
"P  c #5CE201",
"I  c #56E800",
"U  c #5AE803",
"Y  c #49E116",
"T  c #64E300",
"R  c #6BE400",
"E  c #6CE903",
"W  c #73E100",
"Q  c #41CD23",
"!  c #42CE2A",
"~  c #4ACD2C",
"^  c #43D423",
"/  c #4AD523",
"(  c #44DA25",
")  c #4BDB22",
"_  c #44D32A",
"`  c #4BD42B",
"'  c #44D82A",
"]  c #4BDA2B",
"[  c #52D721",
"{  c #52DE22",
"}  c #59DD22",
"|  c #54D72F",
" . c #58D72B",
".. c #55DC2B",
"X. c #4CCD33",
"o. c #50CE35",
"O. c #52CE39",
"+. c #46D035",
"@. c #4CD234",
"#. c #4ED935",
"$. c #53D434",
"%. c #54DB35",
"&. c #58DC35",
"*. c #55D33C",
"=. c #59D43F",
"-. c #54D83B",
";. c #5AD938",
":. c #78A048",
">. c #5CD543",
",. c #5DDA43",
"<. c #64D64C",
"1. c #64D94A",
"2. c #68D84C",
"3. c #F09810",
"4. c #E08040",
"5. c #F09850",
"6. c #98C068",
"7. c #F8D048",
"8. c #808080",
"9. c #C8C8C8",
"0. c #F8F8F8",
/* pixels */
" .D C F F F Y F C C B B y y e e w t w w q q q w w y y V V Y Y V u u u t 0 0 0 0 0 t t y y t t y V ` ",
"} v v n n l l K K l k h 5 ; ; & ; ; ; - $ $ $ $ & ; 4 7 k k J k J 7 6 4 2 1 & 2 2 2 6 7 7 9 4 4 5 ] ",
"} m m L L n l K l k k h : ; ; & > > > - $ = = & & & 4 5 7 J k k J 7 7 6 4 4 2 2 2 6 7 7 9 7 4 4 5 ] ",
"} m m m n l l k k k k h 5 : ; , r X.~ w $ = # # # & 2 4 7 7 J 7 7 7 6 4 4 2 6 6 6 7 J c J k 7 4 4 ] ",
"} m U I n l J k k k h 9 z e M e X.<.=.M > = = # * w i 8 7 7 7 7 7 7 4 6 6 6 6 6 J J K x J k 7 5 4 ] ",
"{ l L K K K J k 7 k h h z $.=.` `   $.M < , % % s -.-.( u 6 6   6 6 4 4 2 6 6 6 6 J J l l k 7 5 4 ` ",
") l K K K J J J J k k h z ;.1.;.  0.  N y , & =   ,.,.] u 8   0.  2 2 4 7 J 7 6 7 7 J K J l z h 7 _ ",
") k K K K J J J k k k k x [ &.[   0.  B   9 2   7.  ' i   4   0.  4 4 7 n m k 7 7 k k k k k k 5 5 ] ",
"( J J K J J J J J k J l l l v x   9.0.  7.    7.3.7.    7.  0.9.  h h 5 v n j v m l k k k k h k 5 ` ",
") k k J J J J J J k l l l n n n   9.0.0.  3.7.3.o 3.7.3.  0.0.9.  v v j f g j G H m h 5 5 7 k k k ] ",
") k k k J J J k k l l L m L m m   9.0.0.  7.3.o o o 3.7.  0.0.9.  j j f v b g b G v 5 4 4 h k k k ..",
") k k J k 7 7 k k l l n m m P P U   9.      o       o       9.  j j f f v b g g j : ; ; 4 5 k k K ..",
"{ K k k 7 7 5 7 7 k l n m P P P L     o o 3.  :.6.:.  3.o o     g v f f f v b v f : ; ; 4 5 k l l ..",
"{ K k k 7 6 4 4 : h j n R R U L L   9.  9.o 3.  :.  3.o 9.  9.  b H b - - f v g - - ; ; 5 5 k l l ..",
"{ l k 5 4 4 2 4 ; 4 5 n R E U L L   @   9.0.o o   o o 0.9.  @   g H H - $ - f : - ; : 9 9 7 h h l ..",
") l k 4 4 2 & 2 & ; : h P R E U J   @   9.0.3.      3.0.9.  @   g b g - # # $ - - ; N / Z 7 5 h h ..",
"[ k 5 4 & & & # & & & : 5 P R I       5.  9.  4.5.4.  9.  5.    f 5 ; $ # # # # # ; M A N 4 4 4 5 | ",
"/ 5 4 2 & & & $ $ $ & & 4 k K K     4.4.5.  5.  5.  5.  5.4.4.  : ; ; $ # # # # # & ; , , ; ; ; : ! ",
"^ ; ; ; & $ $ $ $ # & & 2 4       + + 4.+ + 4.4.+ 4.4.+ + 4.+ +       $ # # # # # $ $ & $ & & & ; ! ",
"s ; ; & $ $ $ $ $ $ $ & ;   . .   + + +     + +   + +     + + +   . .   # # # # # # $ $ # $ $ $ - ! ",
"p & ; & $ $ = r r , ; ; ;   9.      +   9.o 0.9.o 9.0.o 9.  +       9.  # # # % # # % # # # $ $ $ a ",
"s 4 4 ; & & p O.-.Q 9 ;   9.      X   +   0.o 0.o 0.o 0.  +   X       9.  # # % % % % % # # # & $ a ",
"s 4 ; ; ; $ ! 2.<.| 5 ;     + +   X 8.  +   9.      9.  +   8.X   + +     1 % 1 % 1 % 2 2 % & & & a ",
"( 6 9 4 8 8 Z $.o.B < ;   + 5.4.  X 0.  + 4.  4.4.4.  4.+   0.X   4.5.+   2 & 1 1 1 % 1 2 & & 1 % a ",
"' 9 z z 5 h 9 9 5 < :   + 4.5.4.+   X 8.  + + +   + + +   8.X   + 4.5.4.+   5 4 1 1 1 6 2 & & & & _ ",
") z z x x x j h k 9 4   + 5.4.4.+     X 0.      8.      0.X     + 4.4.5.+   L k 6 1 2 2 1 1 2 2 & _ ",
"/ x x j x j l m m j   + 4.4.+ + +   9.    X X X 0.X X X     9.  + + + 4.4.+   k 6 1 2 1 1 1 1 2 & _ ",
") x x x j j m R G j   + 4.+       o 9.9.0.              0.9.9.o       + 4.+   7 6 6 4 6 1 1 1 1 2 _ ",
"/ x f f f m R G v j   + +   X 0.X   o 3.0.0.0.0.0.0.0.0.0.3.o   X 0.X   + +   l l k 4 2 2 1 2 2 2 _ ",
"/ : : : : v T m j j   +   8.8.X     o 3.3.7.7.7.7.7.7.7.3.3.o     X 8.8.  +   l m k 4 4 1 1 1 2 ; _ ",
"Q : : - ; : j m n :     X 0.X   + +   o 3.3.3.3.3.3.3.3.3.o   + +   X 0.X     h j h 4 & % # # % & _ ",
"Q - - ; ; : 5 l l 9     X X   + 5.4.+     3.3.3.3.3.3.3.    + 4.5.+   X X     f h 5 8 $ % # # # % a ",
"p - - ; : 5 h 7 4   +   0.  + 4.5.5.4.+ 0.  3.3.3.3.3.  0.+ 4.5.5.4.+   0.  +   5 : e a w # # # 1 d ",
"Q ; ; : 5 k k 7 6   4.+     + + 4.5.5.+   0.  0.0.0.  0.  + 5.5.4.+ +     + 4.  4 9 _ >.X.* # % % _ ",
"Q : 4 5 k k k J 7   4.4.+ +   + + + + 0.    0.0.0.0.0.    0.+ + + +   + + 4.4.  4 9 ^ *.+.* # 1 2 ` ",
"/ 5 4 h k k k k c   + + 4.+   0.  0.    0.  0.0.0.0.0.  0.    0.  0.  + 4.+ +   5 5 9 y 3 % % 1 6 ] ",
"^ 5 5 7 k J k z S |   + + 4.+   0.  0.    3.3.3.3.3.3.3.    0.  0.  + 4.+ +   k h k 7 4 2 1 2 2 2 ' ",
"^ 7 k k k k k h S $./     + 4.+   +         + + 4.+ +         +   + 4.+     K l k l k 7 4 1 2 % 1 d ",
"s 5 7 k h h 5 4 z M 9   4.4.4.4.4.+                           + 4.4.4.4.4.  L l l j h h 4 & % 1 & d ",
"s 4 5 7 5 4 4 ; ; -   0.4.0.9.4.0.9.+     4.4.4.4.4.4.4.    + 9.0.4.9.0.4.0.  L l j h 5 ; 2 & % & d ",
"s ; 4 : : ; - $ -   0.0.+ 0.9.+ 0.9.+   O               O   + 9.0.+ 9.0.+ 0.0.  l l j : : ; & & & a ",
"p ; ; : ; - - - - -                   & & & t >.,.` ^ @.s 2                   I L v l h 5 ; ; 4 & a ",
"s ; ; ; - - - - $ - : j G b g : ; & 2 & 2 & t -.,._ s ` r = & & & 4 h m L L P P l v l h 5 : : 4 : ! ",
"p ; e q > q M q ; ; f b W W b g h ; & & & & = y i y +.>._ 2 % 2 & ; j T m P W T l k k h h f h 5 4 ! ",
"p w X.X.Q o.>.~ w ; 4 v G G b j h 4 4 ; & & & 2 6 8 s #.i % = & & ; h v l l m L k 5 5 5 h h h 5 5 _ ",
"p w o.O.! O.<.X.< ; : h v j j j h 5 4 ; 2 2 2 2 2 6 2 3 2 & 2 % & & ; 2 4 7 l l 7 5 7 5 5 h h h h ` ",
"p , r p q Q ~ M < ; 4 h k h k h 7 5 5 4 4 4 2 4 6 4 6 2 2 & & & & & & & 4 v T G j h h : 5 5 h h h ` ",
"Q ; & $ ; : < < 5 : 5 5 h 5 h h 5 5 7 7 4 4 4 4 4 4 6 7 4 4 & & & & & & : j G b j 4 4 : 4 5 5 h h ` ",
"Q ; & ; ; ; 5 h h h k h 5 5 7 4 5 5 7 7 5 4 : : : 4 7 k 7 4 2 2 & & 2 ; ; 4 : : : ; 4 ; ; 4 5 h h / ",
"*.@.@.X.@.@.$.;.&.%.%.%.#.#.#.#.#.#.#.#.#.@.@.@.@.#.%.&.%.%.#.@.+.+.+.+.@.+.+.+.+.+.+.+.X.X.#.%.%.,."
};
