/* XPM */
static char *result[] = {
/* columns rows colors chars-per-pixel */
"50 50 120 2 ",
"   c black",
".  c #107848",
"X  c #585858",
"o  c #E83800",
"O  c #B85800",
"+  c #588028",
"@  c #24C601",
"#  c #2AC601",
"$  c #24CB00",
"%  c #2BCD00",
"&  c #28C70D",
"*  c #2BCA09",
"=  c #31C702",
"-  c #33CD01",
";  c #3ACE01",
":  c #33C70C",
">  c #34CC0B",
",  c #38CE09",
"<  c #26D200",
"1  c #2CD300",
"2  c #2FD30C",
"3  c #34D400",
"4  c #3BD401",
"5  c #34DA00",
"6  c #3CDB00",
"7  c #3CD309",
"8  c #2ECB16",
"9  c #34C716",
"0  c #35CB15",
"q  c #3ACC14",
"w  c #35C91C",
"e  c #3BCC1B",
"r  c #35D215",
"t  c #3BD415",
"y  c #3CDA16",
"u  c #3FD31D",
"i  c #3FE500",
"p  c #3DCD22",
"a  c #3DCE2A",
"s  c #3DD322",
"d  c #3ED22A",
"f  c #43CD00",
"g  c #4CCF00",
"h  c #42D501",
"j  c #4BD501",
"k  c #43DC00",
"l  c #4BDC00",
"z  c #44D609",
"x  c #4AD608",
"c  c #43DA0D",
"v  c #53D500",
"b  c #5DD600",
"n  c #53DD00",
"m  c #5ADD01",
"M  c #54DD0B",
"N  c #41CF1C",
"B  c #42D316",
"V  c #44DD16",
"C  c #4DDD16",
"Z  c #43D41A",
"A  c #4AD41F",
"S  c #52D616",
"D  c #52DB15",
"F  c #63DC00",
"G  c #44E300",
"H  c #4BE300",
"J  c #54E301",
"K  c #5BE301",
"L  c #56E800",
"P  c #5AE803",
"I  c #49E116",
"U  c #64E200",
"Y  c #6BE400",
"T  c #6CE903",
"R  c #41CD23",
"E  c #42CE2A",
"W  c #4ACD2C",
"Q  c #44D423",
"!  c #4AD523",
"~  c #4BDB22",
"^  c #44D32A",
"/  c #4BD52A",
"(  c #44D82A",
")  c #4CD92A",
"_  c #52D623",
"`  c #53DD22",
"'  c #59DD22",
"]  c #52D52D",
"[  c #58D72B",
"{  c #55DC2B",
"}  c #4CCD33",
"|  c #50CE35",
" . c #52CE39",
".. c #46D035",
"X. c #4CD235",
"o. c #4ED935",
"O. c #53D434",
"+. c #59D731",
"@. c #54DB35",
"#. c #58DC35",
"$. c #54D33C",
"%. c #5AD43E",
"&. c #5AD938",
"*. c #61DD37",
"=. c #60D83B",
"-. c #38A070",
";. c #78A048",
":. c #5BD442",
">. c #5CD942",
",. c #64D64C",
"<. c #68D84C",
"1. c #F09810",
"2. c #E08040",
"3. c #F09850",
"4. c #98C068",
"5. c #F8D048",
"6. c #60C898",
"7. c #808080",
"8. c #C8C8C8",
"9. c #F8F8F8",
/* pixels */
"[ S S D D D C C I C C B B t e 0 r q e 0 9 9 9 q 0 t t V V I I V V y r r 8 8 8 8 0 r r t t r r t Z o.",
"' v n l v H H l l l k h ; - - - % - - # # # # # # 3 3 6 k k G k i 6 5 5 1 % 1 1 1 1 5 5 6 4 3 3 4 ) ",
"' m m J n l l l l l k 4 4 - - % = : : = # # * # % % 3 4 k k k k 6 6 6 3 3 1 5 1 3 5 6 6 6 6 5 3 5 ) ",
"' m m m n H l l k k k h ; ; - - R } W 0 * * @ @ @ % 1 3 6 6 6 i i 6 6 5 3 1 5 1 5 6 G c c k 6 3 3 ) ",
"{ K J L J l k G k k h 7 7 B e q } ,.%.N > % @   * 8 r   5 i 5 6 6 5 3 3 5 1 5 5 6 G H c k l 4 4 3 / ",
"` l J L H H G k k 6 k h z O.:.] / %.| N q :   9.  :.  5.  6 5 5 5 5 3 5 1 1 i 5 i G G G G k k 4 6 / ",
"~ l H H H G G G k k k k z %.<.O.A ] W B t >   9.9.  o 1.5.  3 3 1 3 3 3 6 k 6 5 5 6 l l l k k 4 4 ( ",
"~ l H H H G G i k k k k x _ ] _ _ =.[     7   8.9.9.    1.5.    - 3 1 6 m K k 6 6 k G k l k k 4 6 ^ ",
"Q k G G G G G G G l k l l l l M ' *.  5.5.      8.9.9.9.    5.5.  h h h v b j v m l k 6 k k k h 4 / ",
"~ i l G G G i G k G l H l n n n M D D   5.1.o   8.8.9.9.  +           h f f g F F m h 4 4 6 k 6 k ] ",
"~ 6 6 G G G G k l l l l m n m m J n H l   1.5.o   8.8.  9.+   o o o 1.  v v g v F v 4 4 4 4 6 l l ` ",
"~ l G k k 6 6 k k l l J m K m K K J     5.5.1.o o     9.;.;.+       o 1.  F v g j f - - 3 4 k l G { ",
"` H l 6 6 6 6 6 6 h l m K K U P J   1.5.1.1.o o   8.8.;.4.;.+   8.9.  o 1.  b v f = = - 3 4 k l l { ",
"` H k k 5 5 3 3 4 4 h m Y U P J   5.1.1.o o o o   + ;.4.;.+ +   8.9.9.    f     ; = = 4 3 6 k l l { ",
"` l k 4 5 1 3 3 - 3 4 v Y Y P J   5.  5.5.5.o   + ;.;.;.+         8.9.1.    2.2.  = 4 7 7 6 h h k { ",
"~ l k 3 3 3 % % % - ; h K Y T P G     5.1.1.o   + ;.;.+   O 2.3.3.  8.o   2.3.  2.  B / Z 4 4 h h { ",
"! k 4 3 3 % % # % % - 3 6 K U L G   5.5.1.o 5.  + + +   O 2.2.2.2.3.  3.2.O 3.3.2.  B ! B 3 3 4 4 ] ",
"! 4 3 3 % % @ # # # # 1 3 k H G   5.1.o o 5.  7.  + +   O 2.2.O O O 2.2.3.3.3.2.  # , > , % - 3 ; ^ ",
"Q 3 - % # # # # @ # # % 3 3 6 6   1.  1.o   X 9.7.  +   O 2.O       O 2.2.2.2.O   # # % # % % - = E ",
"p - 3 % # # # # % # # # - - 4 3 3   9.        X 7.7.    O O   8.o 9.  O O O O   @ @ @ # @ # # # = E ",
"p % - % # # * e q > % = -           9.9.. .     X 9.7.  O O 2.  9.o 8.  8.9.  $ $ $ @ @ @ @ @ # # a ",
"s 3 - - # % p $.%.Q ; 3   8.9.9.. . . . . . . .   X 7.7.  O O 2.        9.$ $ $ $ $ $ $ @ $ # # # a ",
"s 3 3 - 1 * E <.<./ 7 ;   8.9.9.. -.-.-.-.. 9.. .   X 9.7.  O O O O 2.2.2.  $ $ $ $ < 1 $ $ % $ % a ",
"s 7 3 4 3 , Z O.O.A , -   8.8.. -.-.6.6.-.-.9.9.. .   X 7.7.        O O O   % < < < $ < 1 % % 1 % a ",
"( 6 z h z h 7 7 7 4 ; -   . . -.-.8.9.9.6.-.. . . .     X 9.7.X   ;       4 4 3 < < < 5 1 1 1 $ % d ",
") c z x x x j h h 7 4 =   . . -.-.8.9.9.6.-.. . . .   9.  X X   h z z c 6 l H l 5 < < 1 1 < % % 1 ^ ",
"! z x x j j l m m j 4   9.. -.-.-.8.8.-.-.-.. .     9.8.        n F M k H J J k 5 < 1 1 < < < 1 % ^ ",
"~ x x j x j m Y F j   9.9.. -.-.-.-.-.-.-.. .   9.9.8.8.  X 9.  b F Y l J K l 5 5 5 5 1 < < < 1 1 ^ ",
"! f f f f m Y F v j F   . . -.-.-.-.-.-.. .     9.8.8.  X 7.X     K H         l l k 3 3 < < < 1 3 ^ ",
"! f ; ; ; v F m j j b   . . . -.-.-.-.9.9..   9.9.8.  X 9.7.X   O     O O 9.9.  m k 3 1 1 < 1 1 % ^ ",
"R ; ; = - ; j m v 4 f   . . 8.9.9.-.. 9.. .   9.8.8.  X 7.X   2.2.O O 2.O     h h h 3 1 @ $ $ $ % ^ ",
"R = = - - 4 4 l l 4   9.. . 8.9.9.. . . .     9.8.  X 7.7.X   2.3.2.2.3.2.O     h ; , % @ @ @ @ $ a ",
"R = - = ; 4 6 6 4 4 j   . . 8.8.. . . . .   9.9.8.  X 9.X   2.2.2.3.3.3.2.O 9.9.  ; q a w @ @ $ < a ",
"R - ; ; h h k 6 5 6 4   . . . . . . . .     9.8.8.  X X X   O 2.2.2.2.2.O       4 7 ^ >.} & @ $ % ^ ",
"Q - - 4 6 k l k 6 5 1 %   . . . . . .     9.9.8.            O O O 2.2.2.O 9.9.  3 3 ^ $...* $ $ 1 ( ",
"! 4 4 6 k k G k c u t % %   . . .     9.9.9.8.8.  O   O O         O O O       4 4 4 7 t 2 < $ $ 5 ) ",
"Q 4 4 6 k G k 6 ~ { Q -   9.      9.9.9.9.8.8.  O O 2.    7 4 7 4     9.9.  k k k k k 3 1 1 $ 1 1 ( ",
"Q 4 k k k k k 4 Q +.!     8.9.9.9.9.8.8.8.8.  O O 2.3.2.  , , ; ; h k     H H l k k k 4 1 1 $ < < d ",
"s 4 6 k h 4 4 4 7 B   9.    8.8.8.8.8.8.    O O 2.3.3.2.  > 3 - ; 4 k l J J J l j j j 4 3 1 $ 1 % d ",
"s 3 4 6 4 4 3 - -     9.9.              O O O 2.2.3.3.2.  % % - - 4 k l J L L J l l h 4 - % 1 $ % a ",
"p - 3 4 ; ; - =   9.      O O O O O O     O O 2.2.3.2.    2 $ % % 3 4 l J L K J l j j f ; - % % % d ",
"s - - ; = = = #     2.2.2.2.O O O O       O O O O 2.3.2.2.    1 % 3 4 j H J L L n n l h 4 - - - % a ",
"p - = - = = =   2.2.O O O O O           O O O 2.2.2.2.3.2.9.9.  % 3 h n J J U L l l l h h ; 3 4 - ^ ",
"p - 0 q : 9 N 9               j f 3 %   O O O O O O O O 2.9.9.9.  ; l F K m Y U l l h h f f 4 4 ; E ",
"p 0 W } R | :.W > = ; v F F n j h 4 -                             - h l k l m n k 6 4 4 4 h h h 4 / ",
"p e |  .R %.,.| q = 4 h v v v j h 4 3 3 1 1 1 1 3 1 5 2 1 % % % % % % - 3 k n l 4 4 4 4 4 h h h 4 / ",
"R > e p 9 R / N , - 4 4 h h h h k 4 4 3 3 3 3 3 1 3 5 1 1 % % 1 % % # 1 3 v F F l h 4 4 4 4 h k h / ",
"s - # # = , , , 4 4 4 6 h 4 k 4 4 4 6 6 3 3 3 3 3 3 6 5 3 1 % % $ # % - ; j F b h 4 4 - ; 4 4 h h / ",
"R - % - - - 4 h h k h 6 4 4 4 3 6 4 6 6 4 4 - ; ; 4 6 6 6 4 1 % 1 % % - - ; 4 ; - - - - - 4 4 h h ! ",
"$.X.X.} X.X.O.&.#.@.&.@.o.o.o.o.o.o.o.o.o.X.} X.X.o.@.@.@.@.o.o.o.......................} X.o.@.@.>."
};
