/* XPM */
static char *result[] = {
/* columns rows colors chars-per-pixel */
"50 50 236 2 ",
"   c #010101",
".  c #0B0203",
"X  c #010B01",
"o  c #0C0903",
"O  c #01030A",
"+  c #0A040B",
"@  c #050A0B",
"#  c #0C0C0C",
"$  c #130201",
"%  c #1A0104",
"&  c #130C03",
"*  c #1B0C03",
"=  c #1C020A",
"-  c #130D0C",
";  c #1A0D0B",
":  c #14060B",
">  c #001102",
",  c #151201",
"<  c #1C1304",
"1  c #1D1A03",
"2  c #15120B",
"3  c #1B130C",
"4  c #1D180D",
"5  c #020114",
"6  c #0D0E12",
"7  c #01011B",
"8  c #09041B",
"9  c #0A0816",
"0  c #130E11",
"q  c #190F12",
"w  c #110A18",
"e  c #0D1112",
"r  c #09131D",
"t  c #151414",
"y  c #1C1314",
"u  c #161916",
"i  c #1D1913",
"p  c #141519",
"a  c #1F1419",
"s  c #16181A",
"d  c #1B1B1B",
"f  c #240E02",
"g  c #22010B",
"h  c #2B030B",
"j  c #250C08",
"k  c #270907",
"l  c #231304",
"z  c #2B1403",
"x  c #241B04",
"c  c #2A1D03",
"v  c #23140A",
"b  c #241C0C",
"n  c #2A1B0B",
"m  c #2D130C",
"M  c #341400",
"N  c #341B02",
"B  c #3B1D01",
"V  c #3B1C0A",
"C  c #351809",
"Z  c #2B0012",
"A  c #230711",
"S  c #330014",
"D  c #3A0417",
"F  c #211215",
"G  c #221B15",
"H  c #22161A",
"J  c #251A1B",
"K  c #281B1E",
"L  c #2B1410",
"P  c #3D1514",
"I  c #371317",
"U  c #31000D",
"Y  c #2D2305",
"T  c #2B2309",
"R  c #272105",
"E  c #312505",
"W  c #3E2001",
"Q  c #312806",
"!  c #34250B",
"~  c #3B240E",
"^  c #322D0C",
"/  c #3E290A",
"(  c #23201F",
")  c #2B221D",
"_  c #2D2514",
"`  c #3D2B12",
"'  c #352615",
"]  c #3C3416",
"[  c #010123",
"{  c #01012A",
"}  c #0B0729",
"|  c #021725",
" . c #1B1C21",
".. c #151321",
"X. c #221E20",
"o. c #2A1C21",
"O. c #1E2124",
"+. c #1F2228",
"@. c #232323",
"#. c #23262C",
"$. c #2D252B",
"%. c #252A2C",
"&. c #2B2B2B",
"*. c #2C2725",
"=. c #312927",
"-. c #3C3124",
";. c #272C34",
":. c #292D32",
">. c #2C3237",
",. c #2E333A",
"<. c #333334",
"1. c #3E3C34",
"2. c #32353B",
"3. c #35393E",
"4. c #3C3D3E",
"5. c #441D00",
"6. c #471118",
"7. c #422302",
"8. c #4A2501",
"9. c #4B2A02",
"0. c #412409",
"q. c #432D0C",
"w. c #4B2C0C",
"e. c #462807",
"r. c #532A02",
"t. c #4B330C",
"y. c #48350B",
"u. c #543405",
"i. c #5C3C05",
"p. c #563407",
"a. c #462D13",
"s. c #4B2B12",
"d. c #412715",
"f. c #4D3213",
"g. c #4A3B12",
"h. c #473618",
"j. c #563A16",
"k. c #512611",
"l. c #470621",
"z. c #500423",
"x. c #4B3C24",
"c. c #493B29",
"v. c #453E35",
"b. c #503F2D",
"n. c #5A4116",
"m. c #5F420D",
"M. c #634A0B",
"N. c #654915",
"B. c #72521A",
"V. c #49412A",
"C. c #5A4827",
"Z. c #484336",
"A. c #514538",
"S. c #625326",
"D. c #6F5836",
"F. c #6E5731",
"G. c #756028",
"H. c #363B41",
"J. c #3B3E43",
"K. c #343943",
"L. c #403F40",
"P. c #3C4145",
"I. c #3D424B",
"U. c #444445",
"Y. c #42464B",
"T. c #4A4A4B",
"R. c #474949",
"E. c #584F44",
"W. c #454B53",
"Q. c #494F53",
"!. c #494E59",
"~. c #424751",
"^. c #4C535C",
"/. c #4B5255",
"(. c #52555C",
"). c #55595D",
"_. c #5B5C5C",
"`. c #535155",
"'. c #555042",
"]. c #645649",
"[. c #655B52",
"{. c #706451",
"}. c #4E5761",
"|. c #515661",
" X c #545B65",
".X c #565E69",
"XX c #595E69",
"oX c #595F67",
"OX c #5A6165",
"+X c #5C636C",
"@X c #5D6571",
"#X c #64676B",
"$X c #696B6D",
"%X c #636B74",
"&X c #656E79",
"*X c #696E79",
"=X c #626772",
"-X c #697076",
";X c #6B727C",
":X c #69737B",
">X c #71797D",
",X c #76777A",
"<X c #6D7582",
"1X c #6F7982",
"2X c #707681",
"3X c #737A85",
"4X c #757D8A",
"5X c #787E8B",
"6X c #757B86",
"7X c #7B828D",
"8X c #7A8188",
"9X c #7C8592",
"0X c #7E8894",
"qX c #7F8898",
"wX c #848A8D",
"eX c #81858A",
"rX c #838C95",
"tX c #838C9B",
"yX c #838994",
"uX c #8B949E",
"iX c #8E989D",
"pX c #8B9297",
"aX c #939494",
"sX c #999C9D",
"dX c #94999B",
"fX c #848FA0",
"gX c #898FA0",
"hX c #8A94A2",
"jX c #8E9AA2",
"kX c #8693A1",
"lX c #979CA2",
"zX c #9CA2A4",
"xX c #98A2A8",
"cX c #A2A5A5",
"vX c #A7A9AA",
"bX c #B0B2B2",
/* pixels */
"Z.:.&.&.&.&.&.&.&.&.&.&.&.&.&.&.&.*.@.@. .d d d d d d d  . .d X.( @.@.*.%.&.&.&.&.&.&.&.&.&.&.&.:.L.",
"&.                                      ~.^.|. X.X X.X X|.W.                                      &.",
"#.                                %X%X&X4XqXtXtXfXfXkXfXkXtX4X<Xe                                 &.",
"@.                          #.^.4X5X0XqXtXtXtXtXtXtXtXgXhXjXjXjXuXuXOX;.                          &.",
"@.                      ,.I.4X4X9X9XqX9X4X<X<X&X&X@X&X<X<X1X7XpXiXdXzXjX(.                        &.",
"@.                  6 +X:X4X4X9X7X1X;X+X X^.W.Y.I.P.P.I.W.^. X@X>XwXaXdXzXwXR.                    &.",
"@.                  +X4X4X7X4X1X@X X!.I.3.>.<.=.&.>.%.%.%.>.2.H.W.OX;XwXaXcXvXxX                  #.",
"@.              p +X4X4X5X6X;XoX^.I.3.1.Z.C.C.F.G.{.D.S.C.V.-.*.:.3.Q.OX,XaXcXbXzX&.              #.",
"d           XX@X+X5X9X4X3X%X|.T.4.v.C.N.N.M.n.j.j.t.j.n.S.G.F.S.V.&.>.H.^.-XwXsXvXaX#.            @.",
"@.          gX7X4XqX9X4X%X(.U.v.C.M.u.e.z 1 o = % . X o & E q.N.B.S.c.&.2.W.#X8XsXcXaX            J ",
"d       O 3X2X<X5X5X3X&X|.R.V.j.u.5., o X         X     X     * N m.B.x.*.>.I.+XeXsXcXrX#         d ",
"@.      }.9X@X2X4X3X<X|.T.b.i.9.z .     X   X   X       O O 5 5 O % 8.M.j.*.&.I.#XeXsXzX7X+.      u ",
" .      2.+X=X2X4X<X+XT.b.p.W &   O O     5 O     o     o @ [ [ 7 .   N i.n.=.$.Y.=XyXcXvX(.      u ",
"(     d XX(.%X<X<X=X`.A.r.B &     O @ o & - O     , , , 1 2 [ [ 7 5   . z u.j.( #.T.-XaXcXtXO.    t ",
"O.    ;.W.oX*X2X*X XA.t.N &   O   O , R Y Y Y , , R , | @ 1 * o 5 O .   X z i.h.X.2.).8XlXzXI.    u ",
"@.    oX~.oX<X<X#X'.f.B * O O O   X R Y Q Q E Q x R x < , , * X   = % $     B i.-.X.P.&XpXlXuX    u ",
"@.    K.!.=X3X;X_.x.W l X O O : = * Y Y Q Q Q Q Q Y E E Y R 1 + + g g .   O % 9.j.) :.(.5XsXlX@X  s ",
"@.    K.|.<X4X*X'.w.c o     O % g < Q Q ^ ^ Q Q Q Q Q Q Q E Y x O + 8 5 O .   * u.s. .J.&XaXzX5X  u ",
"X.  2.J.XX3X6X#Xb.7.*     O O . = , Y T 3 y 1 Q Q Q Q Q Q Q E Y * 7 } [ 7 O   . 5.t.J >..XwXjXuX|.u ",
"d   #.I.%X5X6X_.s.N o O O O O   O O 2 G ) ) 1 Q Q Q Q Q Q Q Q Q Y [ { [ [ O O   f e.) O./.3XpXuX+Xd ",
"d @.,.W.;X9X2XA.7.m + O O O 5   O @ # ) ) ) b Y Q Q Q Q Q Q Q Q Y 5 } } 5 7 5 O $ W /  .P.&XpXiX+Xu ",
"u  .2.|.6XeX-Xx.7.* 5 5 5 [ { O 9 @ y ) ) ) J 3 Y E Q Q Q Q Q Q Y 7 { 7 7 7 7 O   N W J K.@X7XiX+Xt ",
"q p K. X5XwX$Xs.5.: 5 7 7 { { { 5 G ) ) ) ) G x Q Q Y T Q Q Q Q Y 7 { { { [ 7 5   z 7.) 2.+X7XiX+Xt ",
"t s K.XX8XeX#Xq.V + 7 [ [ { { { 7 ( ) *.) ) b Y Y x G 2 E Q Q Q Y w { { [ { [ 5   f 8.) H.+X0XiX+Xt ",
"d O.H.@X6XeX[.w.C 5 7 [ [ [ [ { 7 ( ) K 4 4 T R u r 4 b Q Q E Q E T y 9 [ [ [ 8 5 . 0.) 3.oX7XjX+X@.",
"d #.H.+X6XeX].w.m 8 7 [ [ 8 8 [ 7 J ) J - 3 T u | r b Y Q Q Q Q Q T < 5 [ { [ [ @ & W K 3.@XrXhXP.Y.",
"d d H.+X6XeX].p.M   .   o $ $ . 7 w X...5 i a | | r R Q E Q Q Q Q x 8 { { { { [ 5 . B G ,.oX0XhX3.T.",
"d p K..X8X,X].p.M . $ . $ $ % $ . { { 7 7 t q a d 3 ^ ^ ^ Q Q Q Q c 8 { { { { 5 O . N J ,.XX0XhX3.T.",
"d p K.oX,X,XD.w.M $ $ . . $ % $   7 { w H J K o.o.+ 3 y i b T E Q E 1   X O O X   o N G ,.oX9XkX3.T.",
"p p ,.oX>X,XE.r.M $ $ . $ %   $ $ $ + { 8 o.J a y J o.K o.H v Y Q Q Y X > >   > X o N G ,..XqXkX3.U.",
"d 0 2. X>X$XA.r.5.. . g g % . $ % % $ 9 H o.q H o.o.o.o.o.K J 2 Q Q Q o X >   > X & N i ,.+XtXjXJ.4.",
"p 6 2. X-X#XA.9.5.$ . g = . t . % . & & J q H o.o.o.o.o.o.o.o.; R E Q o > X o $   * W y ,.@XqXhXK.v.",
"i t ,.|.%XOXZ.7.8.g .     d p d O | e 2 G - H o.o.o.K o.o.o.o.; Y Q Y o   % U h $ M B y 2.+XrXuX3.L.",
"p 6 >.^.#XOXv.E r.k     . u d @.e | , 3 J J a o.o.o.o.K o.o.o.- E E Y X X o h g $ M N y 2.+XqXtX2.L.",
"s e ;.^.+X).1.b r.m   . @ d @.#.u 2 2 J o.o.a @ J $.$.o.o.o.H x E E Y o X   o X & W z u 2.+XqXrX,.L.",
"d e ;.!.#X).3.< 7.V + . . d &.*.( t a *.o.J + i y u 0 : K y x E E E E R x z X   z W * t ,.+X7X9X>.P.",
"p 6 ;.!.+X(.3.l C 8.8 7 5 5 7 ..#.#.d a J t @.@.t - . 1 x z N Q c Y R R Y x X o z N $ t ,.+X7X8X>.Z.",
"d 6 ;.!.OX).J.v n r.H 7 7 [ [ { ..@.&.@.O.( #.@.t = * c Y Y E E E c c z ; O X * N n & 0 >..X7X1X:.U.",
"u 6 ;.W.OX(.U.b ' 0.V 5 7 7 7 { { 8  .%.*.@.*.t : : & b Q ! E E c x Y Y < [   f N h.b - ;..X3X<X#.U.",
"d # %.W..X).U.d.x.L 7.F 7 7 7 [ { { [ u @.@.a w H H H a ; T ^ E E z x c c . * N m d./ a ;.}.1X:X#.Y.",
"d 6 %.W.oX XL.h.P : z V w 5 7 7 [ 7 y H H y a J J H H J K F v T c c c Y x $ W m = m q._ #.^.1X-X#.U.",
"p # %.W._. XT.j.C Z A z z 5 5 7 5 q H H o.J o.J K J J H J H a ; 1 x Y c * N N * % % q._ #.^.;X%X@.R.",
"d 6 #.W.(.(.Y.j.L D Z = c ; 5 5 + y q H a a H H H H H H H y y y - x x * N W j g g = 0.! ;.^.>X%X@.R.",
"s # #.Y.!.^.Y.k.V D Z A % z < . : q q y q a a a F F H F y q y F y 2 & N B l = g g j s.! +./.:X+XO.U.",
"d 6 +.I././.Y.k.a.S S Z g % l x 3 q q q q y q y q q F q y y y H H v N W v = = g h y.y.3 %.!.&X@XO.U.",
"i    .H.W./.U.e.s.~ Y Z g = % * n 3 - q q q y y q y y y y y J y z 9.B k g % g Q V.h.d.e #.^.&X/.O U.",
"u   p ,.U.T.P.P q.c.] b k g = = * x n 3 y y i y y y q q y G x u.u.0.h Z g g c V.V.a.I p ;.}.%XP.  L.",
"d     #.Y.R.P.l.C h.c.] Y h h v E < l b b G i G J ) _ ' ^ y.p.t.e.y.I S S U Q V.q.6.D d %.J.I.    v.",
"u     O O.4.P.z.D B ` ` ! q.g.g./ z g = * v b b T _ ~ ` q.a.P D 6.t.y.g.g.g.y.q.6.l.6.d p         4.",
"<.&.*.#.d ( d y y t 3 i d y G 3 - & # o o @ o # - - t 2 y t y y y 3 i 4 i 4 4 y a K X.@.@.@.O.J @.U."
};
