/* XPM */
static char *result[] = {
/* columns rows colors chars-per-pixel */
"50 50 238 2 ",
"   c #18181E",
".  c #2F151A",
"X  c #093010",
"o  c #0E1132",
"O  c #002C35",
"+  c #39282B",
"@  c #393535",
"#  c #4C0307",
"$  c #780007",
"%  c #4B3311",
"&  c #6D3C09",
"*  c #780936",
"=  c #4A3334",
"-  c #7A3B29",
";  c #014E12",
":  c #296816",
">  c #2E433E",
",  c #625E08",
"<  c #754A15",
"1  c #52492E",
"2  c #55463D",
"3  c #6B4623",
"4  c #745431",
"5  c #7C6D2B",
"6  c #080847",
"7  c #341356",
"8  c #003448",
"9  c #00304E",
"0  c #111075",
"q  c #281576",
"w  c #273360",
"e  c #653051",
"r  c #651878",
"t  c #314D61",
"y  c #504E4D",
"u  c #56575A",
"i  c #745F4F",
"p  c #7A7256",
"a  c #575A65",
"s  c #56536D",
"d  c #785B63",
"f  c #5E6273",
"g  c #686F74",
"h  c #646878",
"j  c #891224",
"k  c #924E0C",
"l  c #9D5905",
"z  c #A85502",
"x  c #966916",
"c  c #B16B11",
"v  c #914F31",
"b  c #AD5934",
"n  c #99722D",
"m  c #A86126",
"M  c #B17736",
"N  c #C77817",
"B  c #C47634",
"V  c #870843",
"C  c #891D47",
"Z  c #A51450",
"A  c #893345",
"S  c #AA534B",
"D  c #906E4B",
"F  c #B47C47",
"G  c #834E63",
"H  c #8E6F72",
"J  c #976B79",
"K  c #A67D65",
"L  c #2A9B00",
"P  c #44B637",
"I  c #24C601",
"U  c #2BC601",
"Y  c #24CB00",
"T  c #2BCD00",
"R  c #2BCA0A",
"E  c #32C701",
"W  c #33CD01",
"Q  c #3BCD00",
"!  c #38CA07",
"~  c #34CD0C",
"^  c #26D200",
"/  c #2CD300",
"(  c #2FD30C",
")  c #34D400",
"_  c #3BD401",
"`  c #34DA00",
"'  c #3CDB00",
"]  c #33D60A",
"[  c #3CD30A",
"{  c #2ECB16",
"}  c #35CB15",
"|  c #3ACC14",
" . c #35C819",
".. c #3BCD1B",
"X. c #36D215",
"o. c #3BD415",
"O. c #3BD519",
"+. c #3FE200",
"@. c #3CCD22",
"#. c #3DCE2A",
"$. c #3DD225",
"%. c #43CD00",
"&. c #4CCE00",
"*. c #43D501",
"=. c #4BD501",
"-. c #43DC00",
";. c #4BDC00",
":. c #43D60A",
">. c #48D80B",
",. c #53D400",
"<. c #5AD702",
"1. c #54DD00",
"2. c #5ADD01",
"3. c #41CF1C",
"4. c #46D818",
"5. c #52DA15",
"6. c #62DC00",
"7. c #42E200",
"8. c #4BE400",
"9. c #53E300",
"0. c #5BE400",
"q. c #49E116",
"w. c #68E200",
"e. c #73E100",
"r. c #41CD23",
"t. c #45CD2B",
"y. c #43D323",
"u. c #4AD523",
"i. c #4BDB22",
"p. c #44D32A",
"a. c #4BD42B",
"s. c #48D929",
"d. c #55DA25",
"f. c #55DC2B",
"g. c #4CCD33",
"h. c #51CE37",
"j. c #46D035",
"k. c #4CD234",
"l. c #4ED935",
"z. c #56D637",
"x. c #54DB35",
"c. c #55D33C",
"v. c #61DB39",
"b. c #4E974C",
"n. c #57AA59",
"m. c #5CD543",
"M. c #5AD943",
"N. c #5BCA5A",
"B. c #64D74B",
"V. c #67C56C",
"C. c #A9941E",
"Z. c #A9843B",
"A. c #B38F31",
"S. c #B88639",
"D. c #D0881D",
"F. c #C5862A",
"G. c #C99738",
"H. c #D9AC33",
"J. c #E7B237",
"K. c #EBC73C",
"L. c #F4C839",
"P. c #FBD23D",
"I. c #9A8554",
"U. c #B2854B",
"Y. c #97846F",
"T. c #BA9566",
"R. c #A99377",
"E. c #B69577",
"W. c #CF9F45",
"Q. c #C69B5F",
"!. c #CFAF55",
"~. c #D9AE58",
"^. c #D3B46C",
"/. c #EEC94A",
"(. c #FDD442",
"). c #FFD942",
"_. c #FCDC49",
"`. c #D8C07F",
"'. c #EBDC68",
"]. c #000094",
"[. c #30188E",
"{. c #00229E",
"}. c #0000A7",
"|. c #0F13B4",
" X c #2E14A8",
".X c #3524B6",
"XX c #4E3CB0",
"oX c #6B4D99",
"OX c #6E7382",
"+X c #747C87",
"@X c #100DCC",
"#X c #0001D8",
"$X c #0718DB",
"%X c #2D23C8",
"&X c #4F49D1",
"*X c #9A7888",
"=X c #A57A86",
"-X c #B57E8E",
";X c #9178A9",
":X c #3489BD",
">X c #7A828A",
",X c #798493",
"<X c #7ACF89",
"1X c #858C99",
"2X c #8E9096",
"3X c #B0968F",
"4X c #B88998",
"5X c #98A49B",
"6X c #B1A092",
"7X c #8A95A4",
"8X c #939CAA",
"9X c #B099A3",
"0X c #9AA2AD",
"qX c #9DA8B8",
"wX c #A9A5A9",
"eX c #ADAEB3",
"rX c #A8B3BB",
"tX c #C48B9B",
"yX c #C2A587",
"uX c #C591A3",
"iX c #D59BAC",
"pX c #D4ACA7",
"aX c #DEA4B7",
"sX c #E3BDAA",
"dX c #E2A5B9",
"fX c #8282C4",
"gX c #A6B2C7",
"hX c #AAB5C3",
"jX c #A9B5C5",
"kX c #B3BDC6",
"lX c #C3BFCA",
"zX c #B9C1CC",
"xX c #BAC6DA",
"cX c #CFD1D3",
"vX c #CBD9E7",
"bX c #DBDEE6",
"nX c #DBE4E4",
"mX c #E2E5E9",
/* pixels */
"f.5.5.5.5.5.5.5.q.5.4.4.o.| } } ..X.} }  . .} } } o.o.4.q.q.q.4.O.O.O.X.{ { { { { X.X.X.O.O.X.O.o.f.",
"d.,.1.1.1.;.;.7.;.;.-.;._ W W W W W W E U U U I T T ) ' ' 7.-.7.7.' +.` / ^ / / / ) ) ' ' ] ) ) _ a.",
"d.2.2.1.9.;.;.8.8.-.*.*.Q W W T E ! ~ E U U I U U T ) _ ' 7.7.-.+.' ` ' / / / / / ` ' ' ' ' ) ) ) s.",
"d.6.2.0.1.;.;.-.-.-.-.[ _ Q W W @.g.t. .~ R I I U T / ) ' ' ' +.' ' ' ) ) ) ` ` ` +.+.>.>.-.' ) ` a.",
"f.9.0.9.1.8.-.-.-.*.-.*.[ :.3.| g.B.h.3.! E Y I R { X.] ' +.` +.' ` ` ` / ` ` ` +.+.7.8.>.-.' ' _ s.",
"d.9.9.8.9.8.7.7.-.-.-.[ :.z.c.g.t.m.g.3.| } R Y @.M.x.s.o.' ` ` ` ) ) ) ` / +.` ' 7.;.8.7.-.*._ ' a.",
"i.8.8.8.8.8.7.7.-.-.*.*.4.z.B.z.u.g.u.3.| ~ T R #.B.M.s.4.] ) / ) / ) ) ' ' ` ` ' +.-.-.;.;.-._ _ p.",
"i.-.8.8.8.7.7.7.7.-.7.*.=.d.f.d.d.v.f.5.:.[ T / X.j.p.O.] ) / ) ) / ) _ 1.0.;._ ' -.-.7.-.-.-.[ _ s.",
"i.-.7.8.7.8.7.7.7.7.-.-.;.;.=.>.d.v.f.5.:.[ / / ^ ^ ^ / / ) W ) _ *.*.*.,.1.=.1.2.;.*.' -.*.*.*.' s.",
"i.-.7.7.7.7.7.7.7.8.;.8.8.1.2.1.0.5.5.>.*.' ` / ^ ^ ^ Y T T W _ =.1.,.%.%.&.=.6.w.2.*._ ' ' 7.-.*.s.",
"i.-.-.' 7.7.7.7.-.8.1.1.9.0.0.9.9.1.;.8.7.' ( / ^ ^ ^ ^ T T W _ *.=.=.%.,.,.&.,.6.,._ _ _ ' ' 7.;.f.",
"i.7.-.7.-.' ' -.-.;.;.7.7.7.7.7.7.7.7.7.V.V.8XqXgXgXqX<Xq.+.7.-.7.7.7.7.-.7.,.&.=.%.W W ) _ *.-.;.f.",
"d.8.-.' ' ' ' _ _ ;.;.7.7.7.7.7.7.o.b.7XjXxXxXxXxXxXxXvXvXrXn.+.7.7.7.7.7.-.<.&.%.E E W ) _ -.;.8.f.",
"d.8.;.' ` ` ) ) ) _ =.7.7.-.7.7.a.,XjXzXgX8X,XOXf g g ,XrXcXnX5XM.-.7.7.7.-.,.&.Q E W ) ) _ ;.;.;.f.",
"i.;.;.' ` ) ) ) W Q _ 7.7.7.-.i.1XjXjX7Xg D I.Q.^.T.I.i u g rXnXnXb.7.7.7.7.%.%.W W Q [ [ ' *.*.;.f.",
"i.8.*._ ) T / T T W W 7.7.+.,X,XjXjX1XY.G.A.x 4 < 1 n Z.W.p a 2XcXmXx.7.-.7.U E U W 3.u.4._ ' _ *.f.",
"i.*._ ) ) T T U T T T 7.-.m.OXqXjX8XT.N 3 X X   X X O o = F.M u ,XvXnXb.8.7.I I I W 3.4.4.) ) _ *.a.",
"i._ _ T U T I U I U T 7.8.s 1XhXrXQ.N = 8 > s O , , 5 .Xq o c Z.y 7XmXkX[ +.I I I T W | ! T W W Q p.",
"y.) T W T U U I U U U 7.P h qXhXE.N @ 9 y K.K.H.C.I.p , 7 * . c F u kXmXN.7.Y I I U U U U T T T W t.",
"@.W ) W U I U U U U U +.P ,XjXwXF.3 8 C C.P._.).P.P.K.A.e Z 7 + N y ,XbXhX7.I I I I U U I U U U E #.",
"@.W W T U U R ....~ T 8.y 7XkXR.m O 9 e F ^.E.P.(.(.).P.K %X Xo & x a kXvXN.I Y Y Y I I I I U U U #.",
"$./ W W U U ..c.c.3.[ +.s gXkXF e 9 9 8 t pXsX~.).).).(.~.&X.X0 . k @ qXvXV.Y Y Y Y I Y Y Y U I U #.",
"$.) ) T T ( t.B.B.a.[ 7.OXkXeXz q }.#X{.6XsXsXT.P./.).)./.#X#X].6 < 2 7XvXV.Y Y Y Y Y ^ Y T T T I #.",
"y.] _ _ _ ] 3.z.z.3._ +.OXlX6Xv 0 |.%X#XpXsX^.!.R.E.(.(./.;X%X|.0 & 2 1XvXV.T ^ ^ ^ ^ / / T Y / T #.",
"s.' :.:.:.:.:.[ [ _ Q 7.OXzXyXv 7 q r  X4X9XY.8X:XH.P.(.(.K @X%X0 % y 8XbXa _ ) ^ ^ ^ ` / / T T T p.",
"s.:.:.>.=.=.*.*.*.[ _ 7.h zXyXk # # j $ @XXX2X4X3X'.'.(.P.*X$X{.O % = 8XvXd 9.-.` ^ / / / / ^ Y T p.",
"u.:.>.=.=.;.;.6.2.=.Q 7.h kXE.z # j $ $ V .X4X4X9XdXiXT.).L.; ; ; % 2 7XvXa 9.-.` ^ / ^ ^ ^ / / / p.",
"i.=.=.:.=.=.2.w.6.=.*.7.h kXY.z # Z d A e D 3XiXdXdXaXiXH.P.: 1 + & 2 7XvXu -.' ` ` ` / ^ ^ ^ ^ T p.",
"u.%.%.%.%.<.w.6.,.=.6.7.f rXH z # @ 2XeX:XY.tXiXdXiXdXiXK.P.; V * l = 7XvXu 7.;.8.;.) / ^ ^ / / / p.",
"u.Q Q Q Q ,.w.2.=.=.<.7.f jXY.m = = lXcXH aXpXH 9X4XpXQ.L.L.n , % l @ ,XxXu ' ;.1.*._ / / ^ ^ / / p.",
"r.Q Q E W Q =.1.1.Q Q 7.f jX+Xk G ].}.fXcXeX9XcXH M H.J.J.H.A.1 < < @ ,XkXu _ *.=._ ) / Y I Y Y T p.",
"r.W E W W _ _ ;.;.*.*.+.f kX2XD N [.}.#X&XlXcX2XJ K !.H.H.G.n 7 m U.@ ,XrXu _ %.*._ ) U I I I Y U #.",
"r.E E W _ _ ' ' ' _ ;.7.f kX5Xv - D }.|.oXuX-XuXuXtX-XK G.A.x z v v 4 ,X0Xu *.*._ Q ..r. .I I I ^ #.",
"r.W W Q *.*.*.' ' ` _ 7.f hXwXv V m G w *X-X-XtX4X-X-X=Xi n x c * - 4 ,X0Xu *._ _ ) p.m.g.R I Y / #.",
"y.W Q _ *.-.-.-.' ] / 7.a qXwXF Z V b U.J *X=X=X4XJ J H H c m * * A.1 OX8Xu _ _ _ [ y.c.#.R Y Y / p.",
"u._ _ ' -.-.7.-.:.O.o.L y 0XwXB Q.v V v U.K =X*XJ H G D D.b V - `.U.@ OX+Xy ' ' _ _ ] X.( R Y ^ ` s.",
"y._ ' ' 7.-.;.' 4.f.y.:   >X9XS Q.S.S.G.m D I.R.T.Q.G.M b M U.S.S.A @ >   y ;.*.' *.*.) / ^ / / ` p.",
"y._ ' -.-.-.' [ u.f.u.W T T I U ) ) _ ) _ ) ) W ..s.y.} [ [ ! Q *.*.;.;.;.;.8.;.7.;.-._ ( / ^ Y / $.",
"$._ ' *.*.' _ _ | 4.| W W T T T / W W ) W W W T p.B.m.y.} ~ W W Q *.;.7.1.9.9.8.;.=.=._ ) T Y ^ / #.",
"O._ _ ' _ _ ) W W E Q W W W U T U T T T W W W ) y.c.m.m.p.T / W W _ *.;.9.9.0.9.;.=.*._ ) / T Y T #.",
"@.W ) _ Q W E E E E E Q Q E E E U T T T T W ~ $.y.y.c.B.k.R Y T T ) _ -.8.0.0.9.;.;.=.%.W W W T T #.",
"@.W W Q W E E U E E Q %.&.%.E E W T Y / / T ..c.m.a.y.k.$.T / T T ) _ ;.8.9.0.9.1.1.;.*._ W / W T #.",
"@.) E E E E E E U E %.&.6.<.&.%.W T T T T / } c.M.a.y.p...^ T ^ T W *.1.9.0.0.0.1.;.;.*.*.Q Q ) W p.",
"@.W }  .!  . .! E W Q <.e.e.,.&.%.W / T T Y ( o.O.O.l.c.p.R T Y T _ =.w.0.0.e.w.;.;._ *.*.%.*._ Q t.",
"@.| g.g.@.h.m.g.~ W _ ,.6.6.<.&.*._ ) T T T / / ` ] $.s...^ T / T W *.;.;.;.2.1.' ' ' _ _ *.*.*._ p.",
"@.} h.h.t.c.B.g.| W Q *.&.,.,.,.*._ ) W / / / / / ` ( ( / Y T T T T T W ) ' ;.;._ _ _ _ _ *.*.*.*.p.",
"@.~ ..@. .r.t.r.! W _ _ *.*.*.*.' _ _ ) ) ) / ) ) ) ` / / T T / T T U / ) ,.w.6.=.*._ Q _ _ _ *.*.a.",
"r.W U U W ! Q [ Q _ _ ' *._ _ *._ _ ' ' ) ) ) ) ) ) ` ' ) ) T T Y U T W _ =.6.<.*._ _ Q ) _ *.*.;.a.",
"y.W T W W Q _ *.*.;.*._ _ ' _ _ ) ' ' ' _ ) Q W _ _ ' *.' ) / T / T T ) W _ Q Q W ) W W W _ _ *.*.u.",
"c.g.g.j.j.k.z.x.x.x.x.x.l.l.l.l.l.l.l.l.z.k.g.k.k.l.x.x.x.x.l.l.j.j.j.j.j.g.j.j.j.j.j.j.g.g.l.l.x.M."
};
