/* XPM */
static char *result[] = {
/* columns rows colors chars-per-pixel */
"50 50 121 2 ",
"   c #610000",
".  c #23C500",
"X  c #2BC600",
"o  c #24CB00",
"O  c #2BCD00",
"+  c #28C70D",
"@  c #2BCB09",
"#  c #32C601",
"$  c #39C700",
"%  c #33CD01",
"&  c #3BCD00",
"*  c #33C70C",
"=  c #34CD0C",
"-  c #3ACF0C",
";  c #26D200",
":  c #2CD300",
">  c #2EDF00",
",  c #2FD30C",
"<  c #34D400",
"1  c #3BD401",
"2  c #34DB00",
"3  c #3CDB01",
"4  c #34D40A",
"5  c #3BD309",
"6  c #39D908",
"7  c #2ECB16",
"8  c #34C716",
"9  c #35CB15",
"0  c #3ACC14",
"q  c #35C91C",
"w  c #3BCD1B",
"e  c #35D215",
"r  c #3BD415",
"t  c #3DDA15",
"y  c #34D418",
"u  c #3BD41B",
"i  c #2EE100",
"p  c #34E200",
"a  c #3DE300",
"s  c #3CCD22",
"d  c #3DCE2A",
"f  c #3DD222",
"g  c #3ED22A",
"h  c #43CD00",
"j  c #4CCE00",
"k  c #43D401",
"l  c #4BD501",
"z  c #43DC00",
"x  c #4BDD00",
"c  c #43D50A",
"v  c #4AD608",
"b  c #43DA0D",
"n  c #54D400",
"m  c #5BD600",
"M  c #53DD00",
"N  c #5ADD01",
"B  c #54DD0B",
"V  c #41CF1C",
"C  c #42D316",
"Z  c #49D516",
"A  c #44DD16",
"S  c #4DDD16",
"D  c #43D41A",
"F  c #4AD41F",
"G  c #4ADA1E",
"H  c #52D616",
"J  c #52DB15",
"K  c #61D600",
"L  c #63DB00",
"P  c #6CDC00",
"I  c #44E300",
"U  c #4BE400",
"Y  c #54E401",
"T  c #5BE300",
"R  c #56E800",
"E  c #5AE803",
"W  c #49E116",
"Q  c #64E200",
"!  c #6BE400",
"~  c #6CE903",
"^  c #73E100",
"/  c #41CD23",
"(  c #42CE2A",
")  c #4ACD2C",
"_  c #43D323",
"`  c #4AD523",
"'  c #44DA25",
"]  c #4BDB22",
"[  c #44D32A",
"{  c #4BD42B",
"}  c #44D82A",
"|  c #4BDA2B",
" . c #52D623",
".. c #53DD22",
"X. c #59DD22",
"o. c #52D52D",
"O. c #58D72B",
"+. c #55DC2B",
"@. c #5ADC2C",
"#. c #4CCD33",
"$. c #50CE35",
"%. c #52CE39",
"&. c #46D035",
"*. c #4CD234",
"=. c #4ED935",
"-. c #53D434",
";. c #54DB35",
":. c #58DC35",
">. c #55D33C",
",. c #59D43E",
"<. c #54D83B",
"1. c #5AD938",
"2. c #61DD37",
"3. c #60D83B",
"4. c #5CD543",
"5. c #5DDA43",
"6. c #64D74B",
"7. c #64D94A",
"8. c #68D84C",
"9. c #FFCC33",
"0. c #FFE082",
/* pixels */
"O.H H J J J S S S W S D C r 9 e 9 9 9 9 8 8 8 9 y r t A S W W A A t t y 7 7 7 7 7 y y r r r y r C | ",
"X.n M x n U U x x x z k & % % % % % % % X X X X O O < 1 3 z I z z 3 2 < : ; O O : < < 2 3 4 < < 3 o.",
"X.N N N M M x x x z z k 1 % % O * * * # X X X X X O < 1 3 I z z z p 2 3 < : : : < 2 3 3 c 3 1 < < { ",
"X.N N Y M x U z z z z k & & % = w #.) 8 @ X + . o O : < 3 z 3 a 3 3 3 < < < 2 2 2 3 I b I 3 3 < < | ",
"X.B Y R Y x z z z 3 k 5 5 0 V 0 #.8.,.V * @ + . + y y 4 3 3 3 p 3 2 < 2 : < 2 p p I I x b I 3 < < { ",
"..Y U R U U I I z z z k c -.4.{ { ,.$.V - = o o s 4.<.' t 2 3 2 2 2 < < 2 > 2 2 3 I I x x z k 3 2 | ",
"] x U U U I a I z z z k c 1.7.1.F o.) C - = @ @ g 5.5.| t 4 < : : < < < 1 z 3 2 3 3 I U x z z 1 1 { ",
"] z U U U I I I I z z z v  .@. . .3.O.Z c 5 : : y [ } u 4 < % < % : < 3 N N z 3 z z z z I z k k 1 } ",
"] I I U I I I I I z z x x l x v ..2.@.S v 5 : : ; ; ; : : : < % 1 k k k n M l n T l z 3 z z k z 3 { ",
"] 3 z I I I I I I I x U x M N M B J B x z 1 < > ; ; o : O O % 1 k M n j h j n K ! N k 1 1 3 z z z o.",
"] z z I I I I I z U x M N Y N N N M x x z 1 < : ; ; ; O O % % 1 k l l h n n j n K n & 1 1 1 z z z ..",
"..I z 3 z 3 3 z z x x M N N T N Y Y U x z z 1 > : > ; @ O O & k l k h h n m n j l h % % < 3 z I x +.",
"..I z I 3 3 3 1 1 z x M T T T E Y Y U x z z 1 < > ; ; o : % 1 l n n h & h n m n & % % % < 1 z x U +.",
"..x z 3 3 2 < < 1 k k N ! ! T E Y Y U I 3 3 3 < : ; : O O O & k n P m $ # h n j $ # % % 1 1 z l x +.",
"..x z 1 < < : < % % 1 M ! ~ E Y U U I 3 3 3 3 < < > : : % % h k j P K $ . # h $ $ % 5 5 6 3 1 k z O.",
"..z z 1 < O : O O % & k N ! ~ E I I a 3 3 2 1     : : : < & k h j m j # . X # X X % C ` D 1 1 k k O.",
"` z 1 < < O o X X O % & 3 N ~ Y a p 3 2 2 <   0.0.  : < < 1 1 k & & & X . . . . o % C ` C < 1 1 k { ",
"` 1 1 : O O X X X o X O < z U I a p 2 2 < <   0.9.  > < < 1 k 1 & % % X . . . . . O % * = O % % $ { ",
"_ < % % X o X X X o O O < < 3 3 2 2 < < 2   0.9.9.9.  < < 1 & & & < O X . . . . . X O O X O O O % ( ",
"s % % O X X X X @ X X O O % < 1 < < < 2 <   0.9.9.9.  < < & & % % % O X . . . . . X . X . X X X X ( ",
"f % % O X o @ w 9 = = O % % % %           0.9.9.9.9.9.          % O X o o . . o o o o . . . X X X d ",
"f : % % O X w %.,.D & % # # O O   0.0.0.0.9.9.9.9.9.9.9.9.9.9.  O : o o o o o o o o o o o o o O X d ",
"f < < O O = ( 6.8.o.5 & # # X .   0.9.9.9.9.  9.9.  9.9.9.9.9.  X O % < o o o o o o o o O o : O O d ",
"' 4 1 5 4 4 D >.-.D & % # X . . .   9.9.9.9.  0.9.  0.9.9.9.  X X % k n 1 : : ; ; ; ; ; O O O o O d ",
"] 5 c c c 5 k 5 5 5 & % O X . . . .   9.9.9.  0.9.  0.9.9.  & & $ & v N v < 1 < ; ; : : : : o O O g ",
"} k v v v x z k k k & O X . . . . . o   9.9.0.0.9.0.0.9.  & n n k k c b z I Y z > ; : : : : : : O [ ",
"` v v v v l l L N l & % X . . . . o o   9.9.9.9.9.9.9.9.  & l l n m B v x Y Y z > : : : ; ; : o : [ ",
"` v v k k x N ! L l k l $ X . . o +   0.9.9.9.9.9.9.9.9.9.  k l N ! Q U Y T z 3 3 < > : ; ; ; ; O } ",
"` h k h h m ! Q l l L L j X . . o e   0.9.9.9.9.9.9.9.9.9.  U T T T x 3 z I 3 U l z < : : ; : : < [ ",
"` & & $ & n L N l l m K h X o . ; y   0.9.9.9.    9.9.9.9.  Y Y Y I I Y I p 3 l N z < < : ; ; : O [ ",
"/ & % # % & l N n & & h $ X X O <   0.9.9.    > p     9.9.9.  a 3 z T ~ R z 1 k k k < O o . . o O ( ",
"/ % $ % % 1 1 x x h k j $ X X < 1   0.9.  i > p 2 2 2   9.9.  2 2 2 x N M k k k k & < @ o . . o o g ",
"/ # # % & 1 1 3 3 1 l l $ # % % 3       p p > 2 2 2 2 2       2 < : 2 1 1 k k k & & 0 d q . . o ; d ",
"/ % % & k 3 z 3 2 1 1 1 O O % < 3 z z 3 p p 2 > : 2 2 6 6 3 2 2 < < < 2 3 k k 1 1 5 [ 4.#.+ . o o [ ",
"_ % 1 1 k z z 3 3 4 < O O O % < 3 z z 3 z 2 2 2 < > 4 6 2 6 5 < 2 1 1 k k k z 1 < 4 ` <.[ + o o < } ",
"` 1 1 1 z U z z b t e O O O % < 3 3 z z 3 < < < < < < 5 5 6 5 < 1 k k z k z 1 1 1 1 5 e , o o : : | ",
"_ 1 3 3 z z z z G @.F = O O : < < 3 3 1 1 < < < : = 4 4 & 4 5 5 1 k k x x z z z 1 z z < ; ; O : : } ",
"_ 1 z z z z z 5 F o.` = O O O : < < 1 < < < O % u *.[ 0 & = & % & 1 z x U x U x z x z 1 < ; o : : g ",
"f 1 3 z z 1 1 1 5 r - % % O O O : % < % % < < @ / 6.4./ = = < % & 1 k x Y Y Y x l x l 1 < O o ; ; g ",
"f < 3 1 1 1 < % $ % % $ % % O X X O O O % % % = _ >.4.4.[ @ O % < 1 z x Y Y R Y l l k 1 < : o O O d ",
"s % < 1 & % $ # # # $ $ $ $ # X X O O : O % 4 s _ _ >.6.*.@ O o O < z z Y R E Y U l l k & % O O O g ",
"f % % % % # X X X # $ h j h $ # O O O o : O 9 4.4.{ _ *.f ; O : O % 1 z U R Y Y U M l k 1 % < % O d ",
"s % % $ # # # X X % & j K m j $ % % O O O O y <.5.} _ [ u @ O O O < k N Y Y Q E M l l k 1 & % 1 % [ ",
"u = 0 8 * 8 V 8 # % h m ^ ^ m j & % : O O O @ r u r =.>._ @ o : O % n L T N ! Q x z z z k h k 1 & ( ",
"s 8 ) #./ $.4.) * % 1 n L L M l k 1 % O O O : : < 4 f *.u @ O O O % k n x l T M z 3 1 1 1 k k k 1 { ",
"s 0 $.%./ %.6.$.0 % % k n n l l k 1 < < : O : : > < 4 : ; O : o : O % : < 3 x x 1 1 1 1 1 k k k 1 { ",
"/ * w s 8 / { / - % 1 1 z k k z z 1 1 < < < : < < < > : : O O O O O X : < n ! N l 1 1 1 1 1 k k k { ",
"/ % O X = $ - & 1 1 1 1 k k 1 k 1 1 3 3 < < < < < < 2 3 < : O O O X O O 1 l K m l 1 1 & % 1 1 z k { ",
"_ % O O % & 5 1 k k z k 1 1 1 2 1 1 3 3 1 1 % & & 1 3 3 3 1 < : : O O < % & 1 & % % % % % 1 1 k k ` ",
">.#.#.*.*.-.-.;.:.:.;.;.=.=.=.=.=.=.=.=.=.*.*.*.*.=.;.;.;.;.=.&.&.&.&.&.&.&.&.&.&.&.&.&.#.*.=.;.;.5."
};
