/* XPM */
static char *_6fb2441ae584f2ef039a0884e19f7c21s68npEA8JzEHLQr[] = {
/* columns rows colors chars-per-pixel */
"50 50 162 2 ",
"   c #1FCB00",
".  c #23C500",
"X  c #2BC600",
"o  c #24CB00",
"O  c #2BCD00",
"+  c #28C70D",
"@  c #2BCB09",
"#  c #32C601",
"$  c #39C700",
"%  c #33CD01",
"&  c #3BCD00",
"*  c #33C70C",
"=  c #34CD0C",
"-  c #3ACF0C",
";  c #26D200",
":  c #2CD301",
">  c #2BDC02",
",  c #2FD30C",
"<  c #33D400",
"1  c #3BD401",
"2  c #34DB00",
"3  c #3CDB01",
"4  c #34D40A",
"5  c #3BD309",
"6  c #35DB0B",
"7  c #3ADC0A",
"8  c #2ECB16",
"9  c #34C716",
"0  c #35CB15",
"q  c #3ACC14",
"w  c #35C91C",
"e  c #3BCD1B",
"r  c #2DD312",
"t  c #35D215",
"y  c #3BD415",
"u  c #33DE11",
"i  c #3CDA14",
"p  c #35D31A",
"a  c #3AD31B",
"s  c #3EDE1B",
"d  c #2FE201",
"f  c #34E200",
"g  c #3BE300",
"h  c #3CCD22",
"j  c #3DCE2A",
"k  c #3DD222",
"l  c #3ED22A",
"z  c #43CD00",
"x  c #4CCE00",
"c  c #43D401",
"v  c #4BD501",
"b  c #43DC00",
"n  c #4BDD00",
"m  c #43D50A",
"M  c #4AD608",
"N  c #43DA0D",
"B  c #4BD90F",
"V  c #54D400",
"C  c #5BD600",
"Z  c #51DD00",
"A  c #53DC00",
"S  c #57DD00",
"D  c #57DF04",
"F  c #5ADC01",
"G  c #59DE01",
"H  c #5ADE01",
"J  c #59DE04",
"K  c #54DD0B",
"L  c #40CE1A",
"P  c #42CF1E",
"I  c #40D316",
"U  c #42D616",
"Y  c #45D616",
"T  c #49D516",
"R  c #44DB16",
"E  c #41DD16",
"W  c #47DF16",
"Q  c #4ADA16",
"!  c #4EDE16",
"~  c #43D41A",
"^  c #4AD41F",
"/  c #4ADA1E",
"(  c #52D616",
")  c #53DE13",
"_  c #52D916",
"`  c #50DC16",
"'  c #61D600",
"]  c #63DB00",
"[  c #6CDC00",
"{  c #42E100",
"}  c #43E300",
"|  c #47E101",
" . c #49E300",
".. c #4EE301",
"X. c #4BE400",
"o. c #52E102",
"O. c #51E302",
"+. c #54E400",
"@. c #5BE300",
"#. c #56E800",
"$. c #5AE803",
"%. c #49E116",
"&. c #64E200",
"*. c #6BE400",
"=. c #6CE903",
"-. c #73E100",
";. c #41CD23",
":. c #42CE2A",
">. c #48CB2A",
",. c #4BCE2E",
"<. c #43D323",
"1. c #4AD523",
"2. c #44DA25",
"3. c #4BDB22",
"4. c #44D32B",
"5. c #4BD12A",
"6. c #4AD42B",
"7. c #49D72A",
"8. c #4AD72A",
"9. c #4FD72A",
"0. c #4DD22E",
"q. c #44D92A",
"w. c #4BDA2B",
"e. c #52D623",
"r. c #52DD22",
"t. c #53DD22",
"y. c #58D923",
"u. c #5ADC22",
"i. c #58DF22",
"p. c #53D52C",
"a. c #51D72E",
"s. c #58D72B",
"d. c #55DC2B",
"f. c #5ADC2C",
"g. c #4ECD33",
"h. c #4CCE33",
"j. c #52CE39",
"k. c #46D035",
"l. c #4CD031",
"z. c #4CD334",
"x. c #4ED935",
"c. c #51D531",
"v. c #52D234",
"b. c #53D435",
"n. c #59D731",
"m. c #54DB35",
"M. c #58DC35",
"N. c #55D43C",
"B. c #55D43E",
"V. c #59D33E",
"C. c #5AD43D",
"Z. c #54D83B",
"A. c #53DC39",
"S. c #5AD938",
"D. c #61DD37",
"F. c #60D83B",
"G. c #5BD540",
"H. c #5CD544",
"J. c #5CDA43",
"K. c #64D64B",
"L. c #64D94A",
"P. c #68D84C",
/* pixels */
"s.( _ _ _ ` ! ! ! ! Q Y I y q 0 0 0 0 0 0 9 0 0 0 y y R %.%.W W E i y t 8 8 8 8 0 t t y y y t y U p.",
"y.V V Z Z n n n n n b 1 1 & % % % % % X X X X O O % < 1 b b b b b 3 2 < : O O : : < < 3 1 < < < 1 9.",
"u.S S S Z n n n n n b 1 1 & % O % = * # X X X O O O < 1 3 b b b b 3 2 < < : : : < 2 3 3 3 3 < < < 9.",
"u.G G G Z n n n n b b c 1 & % % h g.>.0 @ X X . o O : < 3 3 3 3 3 3 3 < < < 2 2 2 3 { b b b 3 < < 6.",
"u.G J O.Z n n b b b c c 5 q e q l.K.V.e = @ o . @ 0 t 4 3 3 3 3 3 3 < < < < 2 2 3 { | n b b 3 < < 6.",
"r.Z O.O... .{ { b b b c m c.G.0.5.C.v.L q = O o h B.Z.2.i 3 2 2 2 < < < < 2 2 2 3 { | n n n b 1 1 6.",
"3.n  .X.X. .{ { b b b b B S.P.b.^ p.1.I q = O @ 4.L.J.w.i < < < < : < < 3 b 3 2 3 b n n n n b 1 1 6.",
"3.n  .X.X. .{ { b b n b M e.s.e.e.F.n.T m 5 : : p 4.4.a 4 < < < < < < 1 S G b 3 3 b b n b b b 1 1 6.",
"3.b |  . . .| { b n n n n n n M y.D.f.B m 5 : ; ; ; : : : : < < 1 c c c V G n V G n b b b b b b 1 6.",
"3.b b { { { { { n n n n Z Z Z Z K ) ) n b 1 < : ; ; o O O : % 1 c Z V c z z v ] *.G c 1 1 b b b b 9.",
"3.b b b { { { b n n n Z S S G S S Z n n n 3 < : ; ; ; O O O & 1 c v v z V V x V ] v 1 < 1 1 b n b d.",
"3.n b b b 3 3 b b n n Z G G @.@.@.O...n n 3 1 < ; ; : O O O & c v c & z V ' V v v z & % < 1 b n n d.",
"r.n n b 3 3 3 3 3 b n Z G @.@.@.#.O...n n 3 3 < : ; ; O O O & v V v z $ z V C V z $ % % < 1 b n n d.",
"r.n n 3 3 2 < < 1 1 c S *.&.@.$.#... .n b 3 3 < : ; ; O O % & v C ] C $ # z V x $ % % < < 1 b n n d.",
"r.n b 1 < < < < % & 1 V *.*.$.O... .| b 3 3 1 < < : : : O & z c V [ ' $ . # z & % % - 5 5 1 c c v d.",
"r.n b 1 < : : O O % & c G *.=.$. .{ g 3 3 3 1 < < : : : < < c c x V v # . . X X X & I 1.Y 5 1 c c d.",
"3.b 1 < % O O O O O % < b @.*.#.g 3 2 2 2 < < < < < < < < 1 c c & & $ X . . . . X % y 1.I 4 < 1 1 9.",
"1.1 < % O O O X X X O O < b  .{ g 2 2 < < < < < < < < < < 1 1 1 & & % X . . . . X O % = = O % & & 5.",
"<.< % O O O X X X X O O < < 3 3 2 2 2 < < < < < < < < < < 1 1 1 & % O X . . . . . O O O O O O % $ :.",
"h % % O O X X X X X O O % < < < < < < < < < : : : : < < < & & & & % O X . . . . o . . . . . X X X :.",
"h % % O X X @ 0 e = % % % % % % < < < < 4 4 : ; : : : % % % % % % O O o . . . o o o . . . . X X O j ",
"k < % O O O e B.B.~ - % % % O O O O < y z.5.t : : O O O O O O O O O o o o o o o o o o o o o O O O j ",
"k < < % O @ 4.P.P.9.5 & % X X X O O : k J.B.p o O O O X X X X X O O % < O o o o o o o O O O O O O j ",
"<.< 5 5 4 4 a Z.v.~ 1 & % X X . . o O t 6.4.r ; o o . . . . X X O % c V c O O ; ; ; : < : O O O O j ",
"2.5 m m m c 1 5 5 1 & $ X X . . . . o o ; ; ; o o o . . . X & & $ & M D b < 1 < ; ; : < : : O O O 4.",
"1.m m M M M c c c 1 1 % O . . . . . o o o       o o o . . & V v c c m N b n O.n > ; ; : ; : : O O 4.",
"1.m M M M v n G G c 1 % O . . . . o o o o     o : ; o o O & v v V G J M n +.O.b > ; ; ; ; ; : : O 6.",
"1.m M M c v S *.] v c v $ . . . o @ a l 8 o o : 4 : ; : % 1 c v G *.&.n O.+.| 3 3 < < ; ; ; ; : : 6.",
"1.c c z z G *.] V v ] ] z X . . o t Z.H.4.; ; 6 i 6 2 2 2 b n @.@.+. .3 { { 3 n n b < : ; ; ; : : 6.",
"1.& & $ & V &.G v v C ' z X . o O y A.J.q.> > 6 7 7 2 2 g { ..#.+.| | O.| 2 3 n Z b 1 : : ; ; O O 4.",
";.& $ % & 1 v G V & & z $ X X O < 3 s s u > > 2 2 2 3 3 g g g g 3 b @.*.@.b 3 c v c < O o . o o O 4.",
";.% # % & 1 1 n n 1 c c $ X O % 1 3 3 2 d d d 2 2 2 2 3 g g f 2 2 2 n G Z b c c c 1 % @ X . . o o j ",
"h % % $ & 1 1 3 1 1 n v $ X % < 1 b 3 3 f f f 2 2 2 2 3 3 2 2 2 < < < 1 1 c c c 1 & e ;.w X . o o l ",
";.% & & 1 b b 3 2 < 1 1 O O % < 3 b b 3 3 2 2 2 2 2 2 3 2 2 2 < < < < 1 1 c c 1 1 4 5.G.g.+ . o O 4.",
"<.& < 1 b n n 3 3 < : O O O % < 3 b b b 3 2 2 2 < < < 5 7 3 5 < < 1 1 1 c c 1 1 1 4 <.Z.4.@ o O : 6.",
"<.1 1 3 b n n b N U t O O O % < 3 3 b 3 3 < < < < < < < 5 5 5 1 1 1 c b b b 3 3 1 1 5 t , o o : < 6.",
"<.1 3 3 b n b b / s.<.% O O O < 2 3 3 3 1 < < < < 4 4 4 4 5 5 5 1 c b b b b n b b b 3 < : ; O : : q.",
"<.1 3 b b b 3 1 ^ s.1.% O O O : < < < < < < % % p 5.4.= = = = & 1 c b n n n ..n n n b 1 : : o : : l ",
"<.1 3 b b 1 1 1 5 I - % % O O O O % % % % % % % 4.K.H.<.= % % & 1 1 b n ..O.O.n n v c 1 < O o o O l ",
"k < 1 1 1 1 < & $ % $ $ $ % O O O O O O O % % = <.B.H.G.4.@ O % < 1 b n O.#.@.+.n v c 1 < O o o O j ",
"h % < 1 & & % % # # $ $ $ $ # X O O O O O % = <.<.<.B.L.z.@ O O O < 1 n O.@.@.+.n n v c & % O O O j ",
"h % & & $ # # X X # $ z z z $ # O O O O O O p C.H.6.2.z.k @ O O O < 1 b ..O.#.O.Z n n c 1 & % % O j ",
"h % % % # # # X X % & v ] C x & $ O O O O O t B.J.6.<.4.e O O O O % c S O.#.&.@.Z n n c 1 & 1 < & :.",
"h % 0 0 * 9 e 9 % % & C -.-.C v & & O O O O @ p a y z.B.4.@ O O O & v &.@.@.*.&.n b c c c c c 1 1 :.",
"h 0 g.g.h g.H.,.= % & V ] ] V v c 1 < O O O O : : 4 <.6.a O O O O % c n n n G Z b 1 1 1 c c c c 1 4.",
"h 9 g.j.;.j.K.v.q % 1 c v V v v c 1 < < : : : : < < < , ; O O O O O O O < b n n 1 1 1 1 1 c c c c 5.",
";.= e h 0 ;.5.P - & < 1 c c c c c 1 1 < < < : < < < < : : O O O O O O O < V *.] v c 1 1 1 1 c c c 6.",
";.% O O % = - 1 1 1 1 1 1 1 1 1 1 1 3 3 < < < < < < 2 3 < < O O O O O O 1 v ] G c 1 1 & < 1 c c c 6.",
";.% O O % & 1 c c c c c 1 1 1 1 1 1 3 3 1 1 & & 1 1 3 b 3 1 < : O O O % & & 1 & & & % % & 1 1 c c 1.",
"B.z.z.z.z.z.b.m.M.M.M.m.x.x.x.x.x.x.x.x.x.z.z.z.z.x.m.M.m.x.x.z.k.k.z.z.k.k.k.k.k.k.k.k.z.z.x.m.m.J."
};
