/* XPM */
static char *result[] = {
/* columns rows colors chars-per-pixel */
"50 50 13 1 ",
"  c #910100",
". c #B20100",
"X c #DB0100",
"o c #F80200",
"O c #F92220",
"+ c #A85000",
"@ c #FA4A48",
"# c #FB6A68",
"$ c #F89390",
"% c #F9B3B0",
"& c #FADBD8",
"* c #FBFBF8",
"= c None",
/* pixels */
"==================================================",
"==================================================",
"==================================================",
"======..===..=====================================",
"=====.oO. .oO.====================================",
"=====X@$@XoO#@====================================",
"====.O$&$Oo@%$+==================.. ..============",
"====.o@%%@@$&$O=================.@#@@#+===========",
"====.oo@$#@%&@.=================O$$#$%@===========",
"=====XooO@#%$O==================.@##%$O===========",
"=====.ooo@$$@.==================.oO@#@...===...===",
"======.oO$$@.====================.ooO.oOO. .ooO.==",
"=======.O#@.======================.X.X@$$@Xoo@$@==",
"========.O.======================== .O$**$OoO$&$+=",
"========= ==========================.O$**%@o@&*%@=",
"===========..===..==================.o@$&%@@$**$O=",
"==========.oO+ .OO.=================.ooO@$#@%*&@.=",
"==========.O$$OO$$O==================XoooO@#&*$O==",
"==========.O$%@@%%@==================.ooooO$&%@.==",
"==========.o@$#@%$+===================.ooo@%%@.===",
"===========XoO@#$@=====================.oO$$@.====",
"===========.ooO$$+======================.O#@.=====",
"============.o@$@========================.O.======",
"=============.@+========================== =======",
"============== ===================================",
"==================================================",
"==================================================",
"==================================================",
"==================================================",
"==================================================",
"==================================================",
"==================================================",
"==================================================",
"==================================================",
"==================================================",
"==================================================",
"==================================================",
"==================================================",
"==================================================",
"==================================================",
"==================================================",
"==================================================",
"==================================================",
"==================================================",
"==================================================",
"==================================================",
"==================================================",
"==================================================",
"==================================================",
"=================================================="
};
