/* XPM */
static char *result[] = {
/* columns rows colors chars-per-pixel */
"50 50 142 2 ",
"   c black",
".  c gray13",
"X  c #46321C",
"o  c #420D22",
"O  c #6E4615",
"+  c #434343",
"@  c gray39",
"#  c #824F12",
"$  c #AD2158",
"%  c #FF3868",
"&  c #FF6860",
"*  c #23C500",
"=  c #2BC600",
"-  c #24CB00",
";  c #2BCD00",
":  c #28C70D",
">  c #2BCA09",
",  c #32C601",
"<  c #39C700",
"1  c #33CD01",
"2  c #3BCD00",
"3  c #33C70C",
"4  c #34CD0C",
"5  c #3ACF0C",
"6  c #26D200",
"7  c #2CD300",
"8  c #2FD30C",
"9  c #34D401",
"0  c #3BD401",
"q  c #34DB00",
"w  c #3CDB01",
"e  c #34D40A",
"r  c #3BD309",
"t  c #39D908",
"y  c #2ECB16",
"u  c #34C716",
"i  c #35CB15",
"p  c #3ACC14",
"a  c #35C91C",
"s  c #3BCD1B",
"d  c #36D215",
"f  c #3BD415",
"g  c #3DDA15",
"h  c #34D418",
"j  c #3BD41B",
"k  c #34E100",
"l  c #3DE400",
"z  c #3CCD22",
"x  c #3DCE2A",
"c  c #3DD222",
"v  c #3ED22A",
"b  c #43CC00",
"n  c #4CCE00",
"m  c #43D501",
"M  c #4BD501",
"N  c #43DC00",
"B  c #4BDC00",
"V  c #43D50A",
"C  c #4AD608",
"Z  c #43DA0D",
"A  c #54D400",
"S  c #5BD600",
"D  c #53DD00",
"F  c #5ADD01",
"G  c #54DD0B",
"H  c #41CF1C",
"J  c #42D316",
"K  c #49D516",
"L  c #44DD16",
"P  c #4DDD16",
"I  c #43D41A",
"U  c #4AD41F",
"Y  c #52D616",
"T  c #52DB15",
"R  c #61D600",
"E  c #63DB00",
"W  c #6CDC00",
"Q  c #44E300",
"!  c #4BE400",
"~  c #54E401",
"^  c #5BE300",
"/  c #56E800",
"(  c #5AE803",
")  c #49E116",
"_  c #64E200",
"`  c #6BE400",
"'  c #6CE903",
"]  c #73E100",
"[  c #41CD23",
"{  c #42CE2A",
"}  c #4ACD2C",
"|  c #43D323",
" . c #4AD523",
".. c #44DA25",
"X. c #4BDB22",
"o. c #44D32A",
"O. c #4BD42B",
"+. c #44D82A",
"@. c #4BDA2B",
"#. c #52D623",
"$. c #53DD22",
"%. c #59DD22",
"&. c #52D52D",
"*. c #58D72B",
"=. c #55DC2B",
"-. c #5ADC2C",
";. c #4CCD33",
":. c #50CE35",
">. c #52CE39",
",. c #46D035",
"<. c #4CD234",
"1. c #4ED935",
"2. c #53D434",
"3. c #59D731",
"4. c #54DB35",
"5. c #58DC35",
"6. c #55D33C",
"7. c #59D43E",
"8. c #54D83B",
"9. c #5AD938",
"0. c #61DD37",
"q. c #60D83B",
"w. c #5CD543",
"e. c #5DDA43",
"r. c #64D74B",
"t. c #64D94A",
"y. c #68D84C",
"u. c #C29B27",
"i. c #FFCC33",
"p. c #FFDA68",
"a. c #1A2882",
"s. c #387A93",
"d. c #5EB1B2",
"f. c #7ADAC9",
"g. c #FF8CA9",
"h. c #FFAEA0",
"j. c #FFA8BF",
"k. c #FFE082",
"l. c gray80",
"z. c #FFD1C0",
"x. c gray92",
"c. c white",
/* pixels */
"*.Y Y T T T P P ) P P I J f p p p s p p a u u s d f g L L ) ) L L g h d y y y u y d h f g f d f J &.",
"%.A D B A ! ! B B B N m 2 1 9 ; ; 1 1 = = = = = ; ; 9 0 N N Q N N l q q 7 - 6 ; 6 9 9 w w 0 9 7 0 @.",
"%.F F F F B B B B N N m 0 1 1 1 3 3 3 , = = = > ; ; 9 0 w Q N N l w w 9 9 7 7 7 7 q w w w t 9 9 9 @.",
"%.F F ~ D B ! N N N N m 2 2 1 > s ;.} i = : * * = - 7 9 w N w l w w w q 9 q q q q l Z Q Z N w q q @.",
"=.^ ~ / ~ B N Q N w m r r p H s ;.r.7.H 3 = - - : h h e w w w w w q 9 9 q q q q w Q Q B Q Z 0 0 9 O.",
"$.D ! / ! ! Q N N N N m V &.w.O.O.7.:.H 5 4 - : z w.8...g q q q q 9 q 9 7 7 k q w Q N ! ! N w 0 0 @.",
"X.B ! ! ! Q Q l N N N N K 9.y.2.U &. .H p 5 ; > v e.e.@.g e 9 7 7 9 9 9 w N q q w l N B N B N w 0 o.",
"X.N ! ! ! Q Q Q N N N N C Y &.#.#.q.3.K V r 7 6 h o.+.j e 9 9 9 9 7 9 w F F N w w N N Q N N M 0 0 @.",
"..Q Q Q Q Q Q Q Q N B N B B B G %.0.-.K C r 7           7 9 ; 9 0 m m M A A M A F B N w N N N N w @.",
"X.N N Q Q Q Q l Q Q B ! B D D D G T G N N     j.g.g.% i.  7 1 0 N A A b b m M E ` S m 0 0 0 N N N @.",
"X.N N Q Q Q Q Q N ! B F F D F F ~ D D !   g.g.% % % u.i.k.      M M M b A A n S E A 0 0 0 w N N N =.",
"X.N Q N N w w N N B B D F ^ F ^ F ~ B   j.% % % % % % % % % % %   m 2 b A R A n M 2 1 1 9 0 N N B =.",
"$.! N N w w w 0 0 N B D F _ ^ ^ / ~ !   g.$ $ $ $ $ $ $ $ $ $ $   A b 2 b A S A b < 1 1 0 0 N N B =.",
"$.! N w w q 9 9 0 0 N ~ ` _ ( ( / ! !   + + . & & c.c.& & c.    S R S 2 , b A n < , 1 9 9 w N M B =.",
"$.B N 0 9 9 7 9 1 1 m A ` ` ( ~ ! Q   + & & . & z.c.. z.z.. # m A W R < = , b < < 1 1 r t 0 N m N =.",
"X.B N 0 9 7 7 ; ; 1 1 M ^ ` ' ( ! Q   + & # . . z.c.. z.z.. z.# n S n , * * , = = 1 J  .I 0 0 m M &.",
"X.N 0 9 1 6 ; ; ; ; 1 9 m ^ ' / l   + . z.# . . z.z.z.& h.z.z.# b 2 2 = * * * * - 1 f  .J 9 9 0 0 &.",
" .0 0 ; ; = = = = = ; ; 9 w ! Q l   + . z.z.z.z.z.z.z.+ & & & 0 0 1 1 = * * * * * ; 1 4 4 7 1 1 2 { ",
"| 9 ; 1 ; = = = = = = ; 7 9 w w k   + + . h.z.z.z.. + + + + + . 1 1 ; = * * * * - = = = = - ; = < { ",
"z 1 9 = ; = = = * = ; = 1 9 9 0 9   + + + . z.z.z.z.. . . . . 2 1 1 ; = * * * * - = = = = = = = , x ",
"z ; 1 ; = = : a s 4 = 1 1 1 1 1 9 1     . h.h.z.z.h.h.h.& 9 1 1 = ; ; - * * - - - * * * * * = = = x ",
"c 9 9 1 ; ; s >.6.| 5 9 1 , = ; 1 ; . % d.d.d.h.h.h.. . = = ; ; ; ; ; - - - - - - - - - - - = ; ; x ",
"c e 1 ; ; 4 { r.y.O.r 2 , = = * ; ; o % f.g.g.$ f.% o = = = = = ; ; 1 9 - - - - - - - 6 - - ; ; = x ",
"..t 0 0 9 e I 6.2.I 0 < , = * * * * o % f.g.% % $ f.% o * * = = = 1 M B m 6 ; 6 6 6 6 6 7 ; ; 6 - x ",
"..0 r m V V t r r 0 1 1 = = * * * * o f.g.% % % $ f.f.$ o , < < 2 2 C F C 9 0 9 6 6 6 q 9 ; ; 6 6 o.",
" .V C C C M M M M r 0 1 = * * * * * o g.% % % % $ f.f.% o < A A m V V V N N ~ B k 6 7 7 7 7 6 ; ; o.",
"@.C C C M M N F F M 1 1 = * * * * o g.% % % % $ f.f.f.% $ o M B A F D C ! ~ ~ N 7 6 q 6 6 6 6 6 ; o.",
" .C C m C B F ` E M M n < = * * - o g.% % % $ f.f.c.c.f.% o M M S ` _ ! ~ ~ N w w q 7 7 6 6 7 7 7 o.",
" .m C < b S ` F A M E E b = * * @ x.c.$ % $ f.f.f.x.x.f.f.a.B ^ ^ ~ B N w Q l N B N 9 9 6 6 7 6 9 o.",
" .b < 2 2 A ` F M m S R b ; * * @ x.c.c.$ f.f.f.f.f.f.f.d.a.! / ~ Q Q ~ Q w w B D N 0 7 6 6 6 ; ; o.",
"[ 2 < 1 < 0 M F A 0 b b < = = @ l.x.c.c.f.f.f.f.f.f.f.f.d.a.l l w N ^ ` / N 0 M M 0 9 ; - - - = ; o.",
"[ 1 , 1 1 1 0 B M m m b < = ; @ l.l.l.f.f.f.f.f.f.f.f.d.s.a.k q q q B ^ B M 0 b m 0 9 > * - * - - x ",
"z = < 1 2 0 m w 9 w M M 2 = 1 1 @ @ @ # f.f.f.f.f.f.d.s.a.q q q 7 9 q 9 w M 0 m 2 2 s [ a * * - 6 v ",
"z < < 0 0 N N w q 0 0 0 1 = 1 X O O O # f.f.f.d.d.d.s.a.t q t q q 9 q 0 0 m m 0 r 9 { w.;.: * - ; o.",
"| 1 9 0 N N Q w w t > 7 ; ; 1 X O # # # f.f.d.s.s.a.a.t t t 0 9 q 0 0 0 0 m 0 0 0 9 o.6.o.: - - 7 +.",
" .9 0 0 N N B N Z g e > ; ; 9 X O # # # d.d.s.O X 9 9 t r t t 0 0 0 M N N m N 0 0 0 t f 8 ; - 6 9 @.",
"| 0 0 N N Q N N X.=.U > ; ; ; X O # # # X O O X > e e e 4 r r 9 0 m N B M N N N w N w 9 7 6 6 7 7 +.",
"| w w N N N N r  .=. .4 ; ; 6 X O p.X X X O p.X s O.{ 5 1 1 2 5 2 0 N N B ! ! B N B N 0 7 7 6 ; 6 o.",
"| 0 w N 0 0 0 0 5 J 5 1 1 7 ; X O p.X 9 X O p.X O.r.w.c p 9 1 1 2 0 M B ! ~ ~ D M M M 0 9 6 - 6 6 v ",
"c 9 0 w 0 0 9 1 1 < 1 1 < < ; = X X ; ; ; X X 1 z w.w.w.o.> ; 1 9 0 N B ~ / / ~ B M m 0 9 > ; ; - x ",
"z 9 9 0 2 1 < , , , < < < < , = = 7 ; ; ; 1 4 | | | 6.t.,.> ; ; ; 9 m N ~ / ^ ~ B B M b 9 1 ; 7 ; v ",
"z 1 1 1 1 , , = = , < b b b < < = ; ; 6 ; 7 d w.w.o.+.<.c 7 ; 6 ; 9 0 N ! ~ / / ~ A B m 2 1 1 1 1 x ",
"c 1 < 1 , , , = = < 2 A E S n < 2 = ; ; ; ; d 6.e.o.c O.j > ; ; ; 1 M D ~ ~ _ ^ B B B m 2 2 0 1 1 { ",
"z 1 i u 3 u H u , 1 2 S ] W S n 0 1 7 ; ; 6 > f j g <.6.o.; ; 6 ; 0 M _ F ^ ` _ B B m m m m m 0 0 { ",
"z p } ;.[ :.w.} 3 , 2 A E _ A M m 9 1 ; ; ; 7 7 9 e c @.j > - ; ; 1 m B B B F D N 0 0 0 m m m 0 0 { ",
"z a :.>.[ >.r.:.p 1 0 N A A B M M 0 9 9 7 7 7 7 q 7 q 8 7 ; 6 ; ; ; ; 1 9 m B B w 0 w 0 0 m m m m O.",
"[ 4 s z u [ O.[ 5 1 0 0 0 M M m 0 w 0 9 9 9 7 9 9 q 7 7 6 ; ; ; ; ; ; ; 0 B W F M 0 0 2 0 0 N m 0 @.",
"| 1 = = 3 1 5 2 0 0 0 0 0 N 0 0 0 0 w w 9 9 9 9 9 9 q w 9 9 ; ; ; ; ; ; 9 M E S M 0 0 1 0 0 0 m M @.",
"z 1 ; ; 1 1 0 m m m N m 0 w 0 9 0 w w w 0 0 1 2 2 9 w N w 9 ; 7 ; ; 7 1 1 1 0 2 2 1 9 1 1 0 0 m m @.",
"6.<.<.;.<.2.2.9.5.4.4.4.1.1.1.1.1.1.1.1.1.;.<.<.<.1.4.5.4.4.1.1.,.,.,.,.<.,.,.,.,.,.,.,.,.;.1.2.4.7."
};
