/* XPM */
static char *result[] = {
/* columns rows colors chars-per-pixel */
"50 50 143 2 ",
"   c black",
".  c gray13",
"X  c #46321C",
"o  c #420D22",
"O  c #6E4615",
"+  c #434343",
"@  c gray39",
"#  c #824F12",
"$  c #AD2158",
"%  c #FF3868",
"&  c #FF6860",
"*  c #23C500",
"=  c #2BC600",
"-  c #24CB00",
";  c #2BCD00",
":  c #28C70D",
">  c #2BCB09",
",  c #32C601",
"<  c #39C700",
"1  c #33CD01",
"2  c #3BCD00",
"3  c #33C70C",
"4  c #34CC0B",
"5  c #3ACF0C",
"6  c #26D200",
"7  c #2CD300",
"8  c #2FD30C",
"9  c #34D400",
"0  c #3BD401",
"q  c #34DA00",
"w  c #3CDB00",
"e  c #33D60A",
"r  c #3CD30A",
"t  c #2ECB16",
"y  c #34C716",
"u  c #35CB15",
"i  c #3ACC14",
"p  c #35C91C",
"a  c #3BCD1B",
"s  c #35D215",
"d  c #3BD415",
"f  c #3DDA15",
"g  c #34D418",
"h  c #3BD41B",
"j  c #3DE400",
"k  c #3CCD22",
"l  c #3DCE2A",
"z  c #3DD222",
"x  c #3ED22A",
"c  c #43CC00",
"v  c #4CCE00",
"b  c #43D501",
"n  c #4BD501",
"m  c #43DC00",
"M  c #4BDC00",
"N  c #43D50A",
"B  c #4AD608",
"V  c #43DA0D",
"C  c #4BD90F",
"Z  c #54D400",
"A  c #5BD600",
"S  c #53DD00",
"D  c #5ADD01",
"F  c #54DD0B",
"G  c #41CF1C",
"H  c #42D316",
"J  c #49D516",
"K  c #44DD16",
"L  c #4DDD16",
"P  c #43D41A",
"I  c #4AD41F",
"U  c #4ADA1E",
"Y  c #52D616",
"T  c #52DB15",
"R  c #61D600",
"E  c #63DB00",
"W  c #6CDC00",
"Q  c #44E300",
"!  c #4BE400",
"~  c #54E401",
"^  c #5BE301",
"/  c #56E800",
"(  c #5AE803",
")  c #49E116",
"_  c #64E200",
"`  c #6BE400",
"'  c #6CE903",
"]  c #73E100",
"[  c #41CD23",
"{  c #42CE2A",
"}  c #4ACD2C",
"|  c #43D323",
" . c #4AD523",
".. c #44DA25",
"X. c #4BDB22",
"o. c #44D32B",
"O. c #4BD42B",
"+. c #44D82A",
"@. c #4BDA2B",
"#. c #52D623",
"$. c #53DD22",
"%. c #59DD22",
"&. c #52D52D",
"*. c #58D72B",
"=. c #55DC2B",
"-. c #5ADC2C",
";. c #4CCD33",
":. c #50CE35",
">. c #52CE39",
",. c #46D035",
"<. c #4CD234",
"1. c #4ED935",
"2. c #53D434",
"3. c #59D731",
"4. c #54DB35",
"5. c #58DC35",
"6. c #55D33C",
"7. c #59D43E",
"8. c #54D83B",
"9. c #5AD938",
"0. c #61DD37",
"q. c #60D83B",
"w. c #5CD543",
"e. c #5DDA43",
"r. c #64D74C",
"t. c #64D94A",
"y. c #68D84C",
"u. c #C29B27",
"i. c #FFCC33",
"p. c #FFDA68",
"a. c #1A2882",
"s. c #387A93",
"d. c #5EB1B2",
"f. c #7ADAC9",
"g. c #FF8CA9",
"h. c #FFAEA0",
"j. c #FFA8BF",
"k. c #FFE082",
"l. c #BAE8E0",
"z. c gray80",
"x. c #FFD1C0",
"c. c gray92",
"v. c white",
/* pixels */
"&.H d g d d d g s t t t t t s f f f K ) ) L K d d u u y y y u u i s i s d H K J ) ) T L L Y Y Y Y =.",
"@.w 9 9 9 w w 9 q 7 6 ; ; 7 9 q w j m m Q w 0 9 9 ; = = = = = 1 , 1 1 1 1 2 b m M M M ! ! S S S S *.",
"@.9 9 0 w w w w q 7 7 7 7 9 9 q j m Q m m w 0 9 ; ; = = = = 3 4 3 4 1 1 1 0 0 b m M M M M S D D D %.",
"O.9 9 w w V V Q q q j 7 9 q q w w w j w Q w 9 7 - = * : = > 3 } :.a > , 2 r b b m M m ! M ~ D D D %.",
"@.9 0 w Q Q C Q Q q j q q 7 9 q q w w q w q e g t : - = > 4 a w.r.O.a G a r N m b Q Q m ! S ~ ~ S %.",
"O.q 0 b m M ! ! Q w q q q q 9 9 9 q q q q f ..8.w.k - > 4 i a 2.7.} O.w.2.N 0 m b m m Q ! ! / / S $.",
"+.0 0 m m M m m j w q w w w 9 9 9 9 7 9 e K @.e.e.x > ; 5 i H  .&.I 3.t.9.N b b Q m Q j Q ! ! ! ! X.",
"@.0 b m m m Q m m b w m D S 0 9 7 9 1 9 9 e h +.,.g 6 ; r N J 3.q.#.#.*.#.B m m m j Q Q Q ! ! Q m X.",
"@.0 b m b m m b M D S n Z Z b b b 0 1 9 7 7           7 r m J -.0.%.B M M M M Q m Q Q Q Q Q ! Q m ..",
"@.b w m w w 0 w D ` E n v c b Z S b 0 1 ;   i.% g.g.j.    m M F T F S S S S M M m m m j Q Q Q m m X.",
"=.m m m b 0 1 0 n E A v Z Z c v n b       k.i.u.% % % g.g.  M ! S S D D D S S M ! m Q Q Q Q Q m Q X.",
"=.M Q m 0 9 1 1 c v v Z A A c c n   % % % % % % % % % % % j.  M ~ ^ ^ D D D ~ M M m m w Q j m Q m X.",
"=.! Q m 0 0 1 1 , c Z A Z c < c Z   $ $ $ $ $ $ $ $ $ $ $ g.  ! ~ ( ( ( ^ ^ S M m 0 w w w w w m ! $.",
"=.M M b 0 9 9 1 1 < v Z c , < A E Z     v.& & v.v.& & . + +   ! ! ( ~ ( ` ` S b b 2 9 9 q w w m M $.",
"=.n b b 0 r r r 1 , c c , * < R W Z b # . x.x.. v.x.& . & & +   ! ! ~ ( ' ` S c 2 9 9 7 9 9 0 m M $.",
"=.b w 0 w P  .H 1 = = , * * , v A v # x.. x.x.. v.x.. . # & +   Q Q ( ' ` D b 9 1 ; ; ; 7 9 0 b m $.",
"&.0 0 9 9 H  .d ; - * * * * = 1 2 c # x.x.h.& x.x.x.. . # x.. +   j / ' ^ w 9 1 = ; - ; ; ; 9 0 m X.",
"} 2 1 9 ; 4 5 1 = - * * * = = = 1 2 0 & & & + x.x.x.x.x.x.x.. +   j Q ! b 9 7 ; = = = = ; ; 9 9 0  .",
"{ , ; = = = = ; = = * * * * = ; 1 2 . + + + + + . x.x.x.h.. + +   w w w q ; = = = = = = = ; ; 1 9 | ",
"{ 1 = = = = * * - - * * * * = ; 9 1 2 . . . . . x.x.x.h..       9 9 9 9 9 1 ; = = > = = = = 1 9 1 k ",
"l = = = - * * * * - * * * * - = ; 1 1 9 1 1 & h.h.h.d.d.d.$ o 9 9 1 9 9 9 1 = 1 > h i : = = ; 1 1 k ",
"l = - = = - - - - - - - - - - - ; ; ; ; ; = = o $ d.l.l.f.d.$ o ; ; = = 1 , 9 r P 6.7.a = = = 9 9 z ",
"x ; - ; - ; 6 - - - 6 - - 9 1 1 ; = = = @ @ o $ f.l.g.g.f.d.$ o = = = = = , 2 r O.y.r.{ 1 > 9 1 q z ",
"l ; 6 - 6 6 6 6 - 6 6 6 ; b S b 1 = @ @ v.v.f.f.l.% % % g.d.$ $ o * * = = , , r P 6.6.h e 9 r 0 q z ",
"{ ; ; ; 6 9 7 7 6 6 q 0 9 n D B 2 @ c.v.v.v.f.l.% % % % g.f.d.$ o * * * * = 1 2 0 r r r r N N b r +.",
"o.6 ; 6 7 7 7 7 7 7 Q ~ m Q N B N @ z.c.v.v.% % % % % g.l.f.d.$ o * * * * = ; 2 r b n n n B B B N  .",
"o.; 6 7 6 6 6 6 7 7 b ~ / M B F A @ z.c.c.$ % % % % % g.l.f.s.a.- * * * * = , 2 b A D M n B B B N  .",
"o.7 7 6 6 6 q q q q w ! ~ ~ ! _ ` @ z.z.z.$ % % % % g.l.f.f.s.a.- - * * * < v b n ` ` D M b B B B X.",
"o.9 7 6 6 7 q 7 b S m w Q m w ! ~ _ @ @ @ l.$ $ $ l.f.f.f.f.f.a.s = - * = c E E n Z D ` A b c b b  .",
"o.; 6 - 6 7 9 q m S M w q Q / m m ~ / ! a.s.d.d.f.f.f.f.f.f.d.a.f ; - * = v R A n n A _ Z 2 < 2 c  .",
"{ ; - - - - 6 9 b n b w m ^ ' ^ j w j j a.a.s.d.d.f.f.f.f.f.d.X X X = = = < c < 0 S D n 0 , , , < | ",
"x - - * * = > 1 2 b b 0 b S D M q q q a.d.s.a.s.s.d.f.f.f.f.# O O O X , , , v b b n M 0 0 2 , 1 , [ ",
"x - - * * k l u 2 0 b c b b w 9 7 q q a.d.d.s.a.a.s.f.f.f.f.# # # O X 1 = 2 n n b w w b 0 2 , , 1 k ",
"o.; - - : ;.w.{ r 0 0 b 0 0 9 q q 9 9 q a.d.d.s.s.a.s.d.f.f.# # # O X 1 = 1 0 0 9 q w m b w 2 0 , [ ",
"O.7 - - > o.6.+.9 9 0 b w b 0 b 0 0 9 q a.s.s.s.s.a.a.s.d.d.# # # O X ; = ; ; > 9 q Q m m b 0 9 1 | ",
"+.9 6 - - 8 s r r 0 w w b m b b w 0 r r X # # # O X 9 a.a.a.# # # O X 9 ; ; 7 e P V m Q Q m 0 0 0 | ",
"+.7 6 ; 6 7 9 w m b m m M m n m 0 0 2 X X # # # O X 9 9 9 0 X X p.O X 7 ; ; >  .=.U m m m Q w w 0 | ",
"+.7 ; 6 7 9 0 n M m M ! ! M M m b 2 X p.p.# # # O X ; 9 9 9 0 X p.O X ; 7 ; 4  .3.U r w m m m b w | ",
"x 6 ; - 6 9 0 b n M M ~ ~ ! M m 0 0 X O O O O O O X 9 1 1 1 9 1 X X ; 7 ; 1 1 r H 5 0 0 w b w w 9 | ",
"x - - 6 ; 0 0 b n M ~ ^ / ~ M m 0 1 1 X X X X X X  .4 1 1 ; ; ; = ; ; = , 1 , 2 , , 1 1 0 b 0 w 9 z ",
"l ; ; ; 1 2 b n n ! ~ / / ~ m b 9 ; ; ; > <.r.6.| o.z 4 1 7 ; 6 7 = , , < < < < , , , , 2 0 0 9 9 k ",
"x ; 9 1 1 2 b M S M ~ / / ! m 0 9 ; ; 6 > h O.+.o.w.7.h ; ; ; ; ; = , < c c c < , 1 = , , , < 1 1 k ",
"{ 1 1 2 0 c b m M S ^ _ ~ S S b 1 ; ; 6 6 a O.|  .e.6.u ; 6 ; ; 1 1 < v A R n 2 , = = , , , 1 1 9 k ",
"{ 0 0 b 0 b b b m M _ ] ^ ^ _ Z 9 ; ; ; > o.7.<.f h d 8 ; ; 7 ; 9 2 v A ] ] A c 1 1 i a i 3 y u 3 k ",
"o.2 b b b b 0 w 0 w S D M n M b 9 ; ; ; > h +.z e 7 7 6 ; ; ; 1 0 b n A E W Z 2 , 3 } w.;.[ ;.;.i k ",
"O.b b b b 0 0 0 0 w M M b 9 9 ; ; ; - 6 ; 6 e e 7 9 7 9 7 7 9 9 0 b n n M Z b 9 , i 2.r.>.{ >.:.i k ",
"@.b b b 0 0 0 0 b n E ` Z 9 ; = ; ; ; ; ; 6 7 9 9 q 9 7 7 9 9 0 0 b b b b b 0 2 9 5 | } [ y p a 4 k ",
"O.b b w 0 2 1 0 0 b D A n 0 7 ; = ; 6 ; 9 9 w q 9 9 9 9 9 0 w w w 0 w b w b 0 0 0 0 2 2 4 3 = , 1 [ ",
"X.b b 0 2 1 1 1 1 0 2 1 0 1 1 ; ; 6 6 9 0 w m w 0 9 2 2 9 0 w w 0 9 0 w 9 0 b b w b b 0 , 1 ; ; 1 | ",
"e.4.4.<.<.<.,.,.,.,.,.,.,.;.,.,.,.<.1.<.1.4.4.4.1.<.;.<.<.<.1.4.1.1.1.1.1.1.4.5.5.5.4.4.2.<.;.<.;.6."
};
