/* XPM */
static char *_76e3038ba864b3fb8e01a15182702e2B79IQTsiV1G8AIav[] = {
/* columns rows colors chars-per-pixel */
"50 50 155 2 ",
"   c black",
".  c gray13",
"X  c #46321C",
"o  c #420D22",
"O  c #6E4615",
"+  c #434343",
"@  c #824F12",
"#  c #AD2158",
"$  c #FF3868",
"%  c #FF6860",
"&  c #23C500",
"*  c #2BC600",
"=  c #24CB00",
"-  c #2BCD00",
";  c #28C70D",
":  c #2BCA09",
">  c #32C601",
",  c #39C700",
"<  c #33CD01",
"1  c #3BCD00",
"2  c #33C70C",
"3  c #34CC0C",
"4  c #3ACF0C",
"5  c #26D200",
"6  c #2CD300",
"7  c #2FD30C",
"8  c #34D400",
"9  c #3BD401",
"0  c #34DA00",
"q  c #3CDB00",
"w  c #33D60A",
"e  c #3BD309",
"r  c #39D908",
"t  c #2ECB16",
"y  c #34C716",
"u  c #35CB15",
"i  c #3ACC14",
"p  c #35C91C",
"a  c #3BCD1B",
"s  c #36D215",
"d  c #3BD415",
"f  c #3DDA15",
"g  c #34D418",
"h  c #3BD41B",
"j  c #34E100",
"k  c #3EE200",
"l  c #3CCD22",
"z  c #3DCE2A",
"x  c #3DD222",
"c  c #3ED22A",
"v  c #43CD00",
"b  c #4CCE00",
"n  c #43D501",
"m  c #4BD501",
"M  c #43DC00",
"N  c #4BDC00",
"B  c #43D50A",
"V  c #4AD608",
"C  c #43DA0D",
"Z  c #4BD90F",
"A  c #54D400",
"S  c #5BD600",
"D  c #51DD00",
"F  c #53DC00",
"G  c #57DD00",
"H  c #5ADC01",
"J  c #59DE01",
"K  c #54DD0B",
"L  c #41CF1C",
"P  c #42D316",
"I  c #49D516",
"U  c #43DC16",
"Y  c #46DF16",
"T  c #4ADA16",
"R  c #4EDE16",
"E  c #43D41A",
"W  c #4AD41F",
"Q  c #4ADA1E",
"!  c #52D616",
"~  c #52D916",
"^  c #52DD14",
"/  c #61D600",
"(  c #63DB00",
")  c #6CDC00",
"_  c #42E101",
"`  c #44E300",
"'  c #47E202",
"]  c #4BE400",
"[  c #52E202",
"{  c #54E400",
"}  c #5BE300",
"|  c #56E800",
" . c #5AE803",
".. c #49E116",
"X. c #64E200",
"o. c #6BE400",
"O. c #6CE903",
"+. c #73E100",
"@. c #41CD23",
"#. c #42CE2A",
"$. c #4ACD2C",
"%. c #43D423",
"&. c #4AD523",
"*. c #44DA25",
"=. c #4BDB22",
"-. c #44D32A",
";. c #4BD32B",
":. c #4AD72A",
">. c #4ED72A",
",. c #44D82A",
"<. c #4BDA2B",
"1. c #52D623",
"2. c #53DD22",
"3. c #58D923",
"4. c #59DE22",
"5. c #52D52D",
"6. c #58D72B",
"7. c #55DC2B",
"8. c #5ADC2C",
"9. c #4CCD33",
"0. c #52CE39",
"q. c #46D035",
"w. c #4CD234",
"e. c #4ED935",
"r. c #53D434",
"t. c #59D731",
"y. c #54DB35",
"u. c #58DC35",
"i. c #55D33C",
"p. c #59D43E",
"a. c #54D83B",
"s. c #5AD938",
"d. c #61DD37",
"f. c #60D83B",
"g. c #5CD543",
"h. c #5DDA43",
"j. c #64D74C",
"k. c #64D94A",
"l. c #68D84C",
"z. c #C29B27",
"x. c #FFCC33",
"c. c #FFDA68",
"v. c #1A2882",
"b. c #387A93",
"n. c #5EB1B2",
"m. c #7ADAC9",
"M. c #FF8CA9",
"N. c #FFAEA0",
"B. c #FFA8BF",
"V. c #FFE082",
"C. c #BAE8E0",
"Z. c gray80",
"A. c #FFD1C0",
"S. c gray92",
"D. c white",
/* pixels */
"6.! ~ ~ ~ ^ R R R R T P P d i u u u u u u y u u u d d U ....Y Y U f f s t t t t u s s d d d s d P 5.",
"3.A A D D N N N N N M 9 9 1 < < < < < * * * * - - < 8 9 M M M M M q 0 8 6 6 - - 6 8 8 q 9 8 8 8 9 >.",
"4.G G G D N N N N N M 9 9 1 < - < 3 2 > * * * - - - 8 9 q M M M M q 0 8 8 6 6 6 6 0 q q q q 8 8 8 >.",
"4.J J J D N N N N M M n 9 1 < < l 9.$.u : * & & & - 6 8 q q q q q q 0 8 8 8 0 0 0 q _ M M M q 8 8 :.",
"4.J J { D N N M M M n n e i a i w.j.p.a 3 : & & : u s w r q q q q q 8 8 8 8 0 0 q _ ` ` M M q 8 8 :.",
"2.D [ [ ] ] _ _ M M M n B r.g.;.;.p.r.L i 3 - = l i.a.*.f r 0 0 0 8 8 8 8 0 0 0 q _ ` ] N N M 9 9 :.",
"=.N ] ] ] ` ` _ M M M M Z s.l.r.W 5.&.P i 3 - : -.k.h.<.f r 8 8 8 6 8 8 q M q 0 q M N N N N M 9 9 :.",
"=.N ] ] ] ` ` _ M M N M V 1.6.1.1.f.t.I B e 6 6 g -.,.h w 8 8 8 8 8 8 9 G J M q q M M N M M M 9 9 :.",
"=.M ` ` ` ` ` _ M N N N N N N V 3.d.8.Z B e           6 6 6 < 8 9 n n n A J N A J N M M M M M M 9 :.",
"=.M M _ ` ` ` _ N N N N D D D D K ^ ^ N     B.M.M.$ x.  - - < 9 n D A n v v m ( o.J n 9 9 M M M M >.",
"=.M M M _ _ _ M N N N D G G J G G D N   M.M.$ $ $ z.x.V.      9 n m m v A A b A ( m 9 8 9 9 M N M 7.",
"=.N M M M q q M M N N D J J } } } [   B.$ $ $ $ $ $ $ $ $ $ $   m n 1 v A / A m m v 1 < 8 9 M N N 7.",
"2.N N M q q q q q M N D J } } } | [   M.# # # # # # # # # # #   A m v , v A S A v , < < 8 9 M N N 7.",
"2.N N q q 0 8 8 9 9 n G o.o.} | | ]   + + . % % D.D.% % D.    m S ( S , > v A b , < < 8 8 9 M M N 7.",
"2.N M 9 8 8 6 8 < 1 9 A o.o. .[ ]   + % % . % A.D.. A.A.. @ v n A ) / , & > v 1 < < 9 e e 9 n n m 7.",
"2.N M 9 8 6 6 - - < 1 n } o.O. .`   + % @ . . A.D.. A.A.. A.@ n b A m > & & * * * 1 P &.E e 9 n n 7.",
"=.M 9 8 < - - - - - < 8 M } o.|   + . A.@ . . A.A.A.% N.A.A.@ n 1 1 , * & & & & * < d &.P w 8 9 9 >.",
"&.9 8 < - - - * * * - - 8 M ] _   + . A.A.A.A.A.A.A.+ % % % 9 9 1 1 < - & & & & * - < 3 3 - < 1 1 ;.",
"%.8 < - - - * * * * - - 8 8 q q   + + . N.A.A.A.. + + + + + . 9 1 < - * & & & & & - - - - - - < , #.",
"l < < - - * * * * * - - < 8 8 8 8       . N.A.A.A.. . . . . 1 1 1 < - * & & & & = & & & & & * * * #.",
"l < < - * * : a a 3 < < < < < < 8 8 8 o o n.n.n.N.N.N.% < < < < < - - & & & & = = = & & & & * * - z ",
"x 8 < - - - a i.i.E 4 < < < - - - - o # n.M.M.C.n.# # o - - - - - - = & & = = = = = = & & & - - - z ",
"x 8 8 < - : -.j.l.>.e 1 < * * * - o # n.M.$ $ $ C.m.# o * * * * - - < 8 - = = = = = = - - - - - - z ",
"%.r e 9 w w h r.r.E 9 1 < * * & & o # n.M.$ $ $ C.m.# # o & * * - < n A n - - 5 5 5 6 8 6 - - - - z ",
"*.e B B B n 9 e e 9 1 , * * & & & o # m.M.$ $ $ C.m.m.# o * 1 1 , 1 V J M 8 9 8 5 5 6 8 6 6 - - - -.",
"&.B B V V V n n n 9 9 < - & & & & o # m.M.$ $ $ # D.D.# o 1 A m n n B C M N [ N 6 5 6 6 6 6 6 - - -.",
"&.B V V V m N J J n 9 < - & & & & o # m.M.$ $ $ D.D.D.S.o 1 m m A J J V N { [ M 6 6 6 6 5 5 6 6 - :.",
"&.B V V n m G o.( m n m , & & & & v.b.m.# $ $ # D.D.S.Z.C.v.n m J o.X.N [ { ` q q 8 6 6 5 5 6 6 6 :.",
"&.n n v v J o.( A m ( ( v * & & & v.b.n.C.# $ # S.S.S.Z.C.C.v.} } { ] q _ _ q N N M 8 6 6 5 6 6 6 :.",
"&.1 1 , 1 A X.J m m S / v * & & - v.b.n.m.C.# # Z.Z.Z.C.m.C.v.| { ` ` [ ` 0 q N D M 8 6 6 5 5 - - -.",
"@.1 , < 1 9 m J A 1 1 v , * * - 8 v.n.n.m.m.m.C.X @ b.n.m.m.v.k q M } o.} M q n m n 8 6 & = = & - -.",
"@.< > < 1 9 9 N N 9 n n , * - < 9 q v.b.n.m.m.m.X @ @ b.b.v.j 0 0 0 N J D M n n n 9 8 : & & & = = z ",
"l < < , 1 9 9 q 9 9 N m , * < 8 q M q v.b.m.m.X @ @ @ @ @ X 0 0 8 8 8 9 9 n n n 9 1 a @.p & & = = c ",
"@.< 1 1 9 M M q 0 8 9 9 - - < 8 q M M v.b.n.X @ @ @ @ @ X r 0 8 8 8 8 9 9 n n 9 9 w ;.g.9.; & & - -.",
"%.1 8 9 M N N q q r 6 - - - < 8 q M M M v.n.b.X O @ c.X r r e 8 8 9 9 9 n n 9 9 9 w %.r.-.: = - 6 :.",
"%.9 9 q M N N M C E s - - - < 8 q q M q X @ n.b.X O @ c.X e e 8 9 9 n n M M q q 9 9 e s 7 = = 6 8 :.",
"%.9 q q M N M M Q 6.%.< - - - 8 8 q q q X @ @ @ @ X O O X e 9 9 9 n M M M N N M M M q 8 6 6 = 6 6 ,.",
"%.9 q M M M q 9 W 6.&.< - - - 6 8 8 8 X O @ @ @ @ X X X 4 4 4 1 9 n M N N N ] N N N M q 8 6 = 6 6 c ",
"%.9 q M M 9 9 9 e P 4 < < - - - - < < X O O @ @ @ c.c.X 3 < < 1 9 9 M N ] [ [ N N m n 9 8 - = = - c ",
"x 8 9 9 9 9 8 1 , < , , , < - - - - - - X X O O O O O X -.: - < 8 9 M N [ | } { N m n 9 8 - = = - z ",
"l < 8 9 1 1 < < > > , , , , > * - - - - - < X X X X X k.w.: - - - 8 9 N [ } } { N N m n 1 < - - - z ",
"l < 1 1 , > > * * > , v v v , > - - - - - - s p.h.:.*.w.x : - - - 8 9 M ] [ | [ D N N n 9 1 < < - z ",
"l < < < > > > * * < 1 m ( S b 1 , - - - - - s i.h.:.%.-.a - - - - < n G [ | X.} D N N n 9 1 9 8 1 #.",
"l < u u 2 y a y < < 1 S +.+.S m 1 1 - - - - : s h d w.i.-.: - - - 1 m X.} } o.X.N M n n n n n 9 9 #.",
"l u 9.9.l 9.g.$.3 < 1 A ( ( A m n 9 8 - - - - 6 6 w %.-.h - - - - < n N N N J D M 9 9 9 n n n n 9 -.",
"l y 9.0.@.0.j.r.i < 9 n m A m m n 9 8 8 6 6 6 6 8 8 w 7 6 - - - - - - - 8 M N N 9 9 9 9 9 n n n n ;.",
"@.3 a l u @.;.L 4 1 8 9 n n n n n 9 9 8 8 6 8 8 8 8 8 6 6 - - - - - - - 8 A o.( m n 9 9 9 9 n n n :.",
"@.< - - < 4 4 9 9 9 9 9 9 9 9 9 9 9 q q 8 8 8 8 8 8 0 q 8 8 - - - - - - 9 m ( J n 9 9 1 8 9 n n n >.",
"@.< - - < 1 9 n n n n n 9 9 9 9 9 9 q q 9 9 1 1 9 9 q M q 9 8 6 - - - < 1 1 9 1 1 < < < 1 9 9 n n &.",
"i.w.w.w.w.w.r.y.u.u.u.y.e.e.e.e.e.e.e.e.e.w.w.w.w.e.y.u.y.e.e.w.q.q.w.w.q.q.q.q.q.q.q.q.w.w.e.y.y.h."
};
