/* XPM */
static char *result[] = {
/* columns rows colors chars-per-pixel */
"50 50 138 2 ",
"   c black",
".  c gray13",
"X  c #46321C",
"o  c #420D22",
"O  c #6E4615",
"+  c #434343",
"@  c gray39",
"#  c #824F12",
"$  c #AD2158",
"%  c #FF3868",
"&  c #FF6860",
"*  c #23C500",
"=  c #2BC600",
"-  c #24CB00",
";  c #2BCD00",
":  c #28C70D",
">  c #2BCB09",
",  c #32C601",
"<  c #39C700",
"1  c #33CD01",
"2  c #3BCD00",
"3  c #33C70C",
"4  c #34CD0C",
"5  c #3ACF0C",
"6  c #26D200",
"7  c #2CD300",
"8  c #2FD30C",
"9  c #34D401",
"0  c #3BD401",
"q  c #34DB00",
"w  c #3CDB01",
"e  c #34D309",
"r  c #3BD309",
"t  c #39D908",
"y  c #2ECB16",
"u  c #34C716",
"i  c #35CB15",
"p  c #3ACC14",
"a  c #35C91C",
"s  c #3BCD1B",
"d  c #35D215",
"f  c #3BD415",
"g  c #3DDA15",
"h  c #3AD31C",
"j  c #34E100",
"k  c #3EE200",
"l  c #3CCD22",
"z  c #3DCE2A",
"x  c #3DD222",
"c  c #3ED22A",
"v  c #43CC00",
"b  c #4CCE00",
"n  c #43D500",
"m  c #4BD501",
"M  c #43DC00",
"N  c #4BDC00",
"B  c #43D50A",
"V  c #4AD608",
"C  c #43DA0D",
"Z  c #54D400",
"A  c #5BD600",
"S  c #53DC00",
"D  c #5ADD01",
"F  c #54DD0B",
"G  c #41CF1C",
"H  c #42D316",
"J  c #49D516",
"K  c #44DD16",
"L  c #4DDD16",
"P  c #43D41A",
"I  c #4AD41F",
"U  c #52D616",
"Y  c #51DA16",
"T  c #61D600",
"R  c #63DB00",
"E  c #6CDC00",
"W  c #44E300",
"Q  c #4BE300",
"!  c #53E300",
"~  c #5BE301",
"^  c #49E116",
"/  c #64E200",
"(  c #6BE400",
")  c #6CE903",
"_  c #73E100",
"`  c #41CD23",
"'  c #42CE2A",
"]  c #4ACD2C",
"[  c #43D323",
"{  c #4AD523",
"}  c #44DA25",
"|  c #4BDB22",
" . c #44D32A",
".. c #4BD42B",
"X. c #44D82A",
"o. c #4BDA2B",
"O. c #52D623",
"+. c #53DD22",
"@. c #59DD22",
"#. c #52D52D",
"$. c #58D72B",
"%. c #55DC2B",
"&. c #4CCD33",
"*. c #50CE35",
"=. c #52CE39",
"-. c #46D035",
";. c #4CD234",
":. c #4ED935",
">. c #53D434",
",. c #59D731",
"<. c #54DB35",
"1. c #55D33C",
"2. c #59D43E",
"3. c #54D83B",
"4. c #5AD938",
"5. c #61DD37",
"6. c #60D83B",
"7. c #5CD543",
"8. c #5DDA43",
"9. c #64D74B",
"0. c #64D94A",
"q. c #68D84C",
"w. c #C29B27",
"e. c #FFCC33",
"r. c #FFDA68",
"t. c #1A2882",
"y. c #387A93",
"u. c #5EB1B2",
"i. c #7ADAC9",
"p. c #FF8CA9",
"a. c #FFAEA0",
"s. c #FFA8BF",
"d. c #FFE082",
"f. c #BAE8E0",
"g. c gray80",
"h. c #FFD1C0",
"j. c gray92",
"k. c white",
/* pixels */
"$.U U Y Y Y ^ Y ^ L L H H f i d p i i i u u u u i f f K L ^ L K g g g d y y y y i d d f f f d f P #.",
"@.Z S N S N N Q N N M n 0 1 1 1 1 1 1 , = = = ; ; ; 9 w w W W M k w q 9 7 6 ; 6 6 9 q q 0 t 7 9 0 o.",
"@.D D D D Q Q N N M M n 2 1 9 ; 3 3 3 3 = = = ; ; ; 9 0 w W w M M k q w 9 9 7 7 7 q w w w w w 9 q ..",
"@.D D ! S N N N M M M 0 2 2 1 3 s &.] 3 > = : * - ; ; 9 w M w k w w w 9 9 7 q q q w W C W B w 9 9 o.",
"%.~ ~ ~ Q N M M M M n B r p P p ;.9.2.G 3 3 - * > y d e w w w k w q 9 q q 7 q q k W Q C W M 0 9 9 ..",
"+.Q ! Q Q Q W W M M w n B #.7.;...2.*.G p 1 > - x 7.3.} g q q q q q 9 9 9 q q q w W W N N M M 0 w o.",
"| Q Q Q Q W W W M M M M J 4.0.,.I #.{ G f 4 ; > c 0.8.o.g e 9 7 9 7 9 q w w w w w w W N Q M M w 0  .",
"| M Q Q Q W W W M M M M n O.$.{ O.6.$.J B e               9 9 9 1 7 9 0 D ! M 0 w M M W M M n n w X.",
"} W W W W W W k W M N M N N m F @.5.        s.p.p.p.% e.%   9 1 0 n n m Z S m S D N M w M M M n 0 ..",
"| M M W W W W W W W N Q S N S S F   $ $ p.p.% % % % w.e.d.  1 0 m S m v v v m R E D n 0 0 0 M M M #.",
"| M M W W W W W M N N D D D ! D   $ $ s.% % % % % % % %     1 0 0 m m m Z Z b Z R Z 0 0 0 w M M M +.",
"| M W M M w w M M N N ! D ~ D ~ @ k.k.p.% & & . $ $ $ $ $ $   n m m 2 v Z T Z b m 2 1 1 9 0 M M Q %.",
"+.Q M M w w w 0 w M N S D ~ / @ k.k.k.k.% & # . & & k.k.& $ $   Z Z v 2 v Z A Z v < , 9 9 0 M N N %.",
"+.Q M w w q 9 9 2 n M D ( ( ~ @ k.k.k.k.% h.# . & h.k.. h.h.# m A T A < , v Z b < , , 9 0 w M N N %.",
"+.N M 0 9 9 7 9 1 0 0 Z ( ) ~ @ k.k.g.j.u.h.h.h.. h.k.. h.h.h.# A T T < = , v < , 1 e r t 0 M n M %.",
"+.M M 0 9 7 7 ; ; ; 2 n ~ / ) @ j.g.j.g.u.h.h.h.h.h.h.+ & a.h.h.# A b , * * = , ; < H { P 0 0 0 n %.",
"{ M 0 9 1 ; - ; - ; 1 9 w ~ / @ g.g.g.u.i.p.h.h.. + + + + & & & # 2 < = * * * * - , f { H 9 0 0 0 #.",
"{ 0 0 7 ; ; = = = = ; ; 9 M Q W @ @ @ u.p.% % h.h.. . + + + + . 2 1 1 ; * * * * * ; 5 5 4 ; 1 1 2  .",
"[ 9 9 , ; * = = = * = ; 1 9 w w q t.u.i.% % % % % h.h.. . . . 2 2 9 ; = * * * * * ; = ; ; = = ; < ' ",
"l 1 1 ; = = = = = = = ; 1 9 0 9 9 t.u.% $ j.k.k.$ % f.f.f.p.p.o 1 , ; ; * * * * * = * * * = = = = z ",
"x ; 1 ; = = > s s 4 1 ; , 1 9 1 9 t.i.% g.j.k.k.k.f.f.i.p.% $ o 9 ; ; * * * * - - * * * * - = = ; z ",
"x 9 1 1 ; ; s =.1.[ 2 1 , = ; ; ; t.i.% g.j.k.k.k.p.p.i.p.% $ o , ; - - - - - - - - - - - - - ; = z ",
"x 9 9 ; ; >  .q.q...r 2 , , = * = ; t.$ g.j.k.k.k.p.% % % % % $ o ; ; 9 - - - 6 - - 6 6 ; - ; ; ; z ",
"} t r 0 0 e h 1.>.I 2 1 , = = * * t.i.i.i.g.g.j.j.p.% % % % % $ o 1 n S n 6 ; 6 6 6 - 6 ; ; ; 6 ; z ",
"[ 0 B B B B 0 r r r 2 1 ; = * * * t.u.i.i.i.g.g.$ % % % % % % $ o 2 V S N 9 0 9 6 6 6 q 9 7 ; ; ; z ",
"{ C n V V m m M n 0 0 , = * * * * t.y.u.u.u.i.i.i.$ % % % % % $ o B B V C M ! M q 6 7 7 7 6 6 ; ;  .",
"o.V V V V m N D D n 0 , = = * * * - t.y.y.y.y.u.i.i.$ $ % % % $ o A D V Q ! ! M 7 7 7 6 6 6 6 6 7  .",
"{ n V V m m D ( R m m b < * * * - > h X # # # y.y.u.i.i.$ $ $ o D ( / N ! ~ M w q q q 7 6 6 7 7 7  .",
"{ n v n v D ( D Z m A R v = * * - d X X X # # # # y.u.i.i.i.i.t./ ! Q k W W k N Q n 0 7 7 7 6 7 9  .",
"{ 2 2 < 2 Z / A m m A R v = - - - X r.r.# # # # # # y.u.i.i.i.t.! W M ! W q w N S M 9 9 6 6 6 6 ;  .",
"` < < 1 1 2 m D Z 0 < v < , = , 9 X O O O # # # # # # y.u.i.t.k w w ~ ( ~ M 0 n n n 9 7 - * * - ;  .",
"` 1 , < 1 0 0 N m 0 m m < = = 9 9 X O O O O O O # # # y.t.t.j q q q N ~ N n n 2 m 0 e = - * * - - z ",
"` , , 1 2 n 0 w w 0 N m < = , 0 w w X t.i.i.i.i.O O O t.w j q q 7 q 9 q w n n v 0 2 s l a * * - - c ",
"` 1 < 0 0 M M w w 9 0 2 , ; 1 9 X X t.y.u.u.i.i.i.i.t.t t q w q 9 9 9 0 0 n n 0 0 e  .7.&.: * - ; c ",
"[ 1 9 0 n M M W w t 7 ; ; ; 1 X r.r.X X # y.u.u.i.t.9 t t w t 9 9 w 0 w n n n 0 0 t [ 1. .> - - 7 o.",
"{ 0 0 0 M W M M C g d ; ; ; 7 X O # # # # # # y.u.t.9 r e t r 0 0 n n n n M w w 0 0 r d 8 > - 6 9 o.",
"[ 0 0 w W M M w | $.[ 7 ; ; 7 9 X O # # # # # # X e 4 e 0 4 e 2 0 n M M N N M M 0 M M 9 6 6 ; 7 7 X.",
"[ w M M M M M 0 [ ,.{ 4 ; ; ; 7 9 X O # # # # O X ;. .4 1 5 5 2 2 0 M N N N N Q M N M 0 7 6 ; 6 6  .",
"x 0 w M M 0 0 0 r H r 1 1 ; ; ; 7 1 X O # # O X  .0.7.` 4 e 1 9 0 n M N Q ! ! Q N m n 0 9 ; - 6 6 c ",
"x 9 0 w 0 0 1 1 , < < 1 < , ; ; ; ; ; X O O O X ` 1.8.7. .> ; 1 1 0 n N ! ! ~ ! N m m 0 9 7 - ; - z ",
"l 9 9 0 1 < , = , , , < < < , = = ; ; ; ; 1 4 l [ [ 1.0.;.> ; 6 ; 9 n M ! ! ~ ! N N m v 9 1 ; 7 ; c ",
"l 1 1 2 < , , = = , < v b v < , ; ; ; 6 ; 7 f 7.8. . .;.x 7 ; - ; 9 0 M Q ! ! ! ! Z N n 2 1 1 1 1 z ",
"x 1 , 1 , , , , , 1 2 m T A b v < ; 6 ; ; 6 d 1.8. .x ..s 7 ; ; ; 9 m D ! ! / ~ S N N n v 2 0 1 1 ' ",
"l 1 i i 3 i G u , 1 v A _ _ Z b n 1 ; ; ; ; > f h f ;.1. .> 6 ; ; 1 N / ~ ~ ( / N M n n 0 n n 0 0 ' ",
"l i &.&.` &.7.] 4 1 0 Z R R D m n 0 9 ; ; ; ; 7 q 8 x o.h > - ; ; 9 m m N N D D M 0 0 0 n n n n 0  .",
"l i *.=.` 1.9.*.p , 1 n Z m Z m n 0 9 1 7 7 6 7 9 9 q 8 7 ; 6 ; ; ; ; ; 9 w N N w 0 w 0 0 n n n n ..",
"l 4 s l i ` ] ` 5 1 0 0 n n n n M 0 9 0 9 9 7 q 9 9 9 7 7 ; ; 6 ; ; ; ; 9 Z / R m n 0 2 0 0 w n n ..",
"[ , ; = 3 5 2 2 0 0 0 0 M 0 M 0 0 0 w w 9 9 9 9 9 q q q 9 9 ; ; - ; ; 1 0 m R Z m 0 0 1 9 0 n n n ..",
"` 1 ; ; 1 1 0 n M n n M 0 0 0 w 9 0 w w 0 0 2 1 0 0 w w w 0 9 ; 7 ; ; 9 1 0 2 2 1 9 1 1 1 0 0 n n | ",
"1.;.&.&.;.>.>.4.<.<.<.<.:.:.:.:.:.:.:.:.:.;.&.;.;.:.<.<.<.<.:.-.-.-.-.-.&.-.-.-.-.-.-.-.-.&.:.>.<.8."
};
