/* XPM */
static char *result[] = {
/* columns rows colors chars-per-pixel */
"50 50 143 2 ",
"   c black",
".  c gray13",
"X  c #46321C",
"o  c #420D22",
"O  c #6E4615",
"+  c #434343",
"@  c #824F12",
"#  c #AD2158",
"$  c #FF3868",
"%  c #FF6860",
"&  c #23C500",
"*  c #2BC600",
"=  c #24CB00",
"-  c #2BCD00",
";  c #28C70D",
":  c #2BCA09",
">  c #32C601",
",  c #39C700",
"<  c #33CD01",
"1  c #3BCD00",
"2  c #33C70C",
"3  c #34CC0C",
"4  c #3ACF0C",
"5  c #26D200",
"6  c #2CD300",
"7  c #34D400",
"8  c #3BD401",
"9  c #34DA00",
"0  c #3CDB00",
"q  c #33D60A",
"w  c #3BD309",
"e  c #39D908",
"r  c #2ECB16",
"t  c #34C716",
"y  c #35CB15",
"u  c #3ACC14",
"i  c #35C91C",
"p  c #3BCD1B",
"a  c #36D215",
"s  c #3BD415",
"d  c #3DDA15",
"f  c #34D418",
"g  c #3BD41B",
"h  c #34E100",
"j  c #3EE200",
"k  c #3CCD22",
"l  c #3DCE2A",
"z  c #3DD222",
"x  c #3ED22A",
"c  c #43CD00",
"v  c #4CCE00",
"b  c #43D501",
"n  c #4BD501",
"m  c #43DC00",
"M  c #4BDC00",
"N  c #43D50A",
"B  c #4AD608",
"V  c #43DA0D",
"C  c #4BD90F",
"Z  c #54D400",
"A  c #5BD600",
"S  c #53DD00",
"D  c #5ADD01",
"F  c #54DD0B",
"G  c #41CF1C",
"H  c #42D316",
"J  c #49D516",
"K  c #44DD16",
"L  c #4DDD16",
"P  c #43D41A",
"I  c #4AD41F",
"U  c #4ADA1E",
"Y  c #52D616",
"T  c #52DB15",
"R  c #61D600",
"E  c #63DB00",
"W  c #6CDC00",
"Q  c #44E300",
"!  c #4BE400",
"~  c #54E401",
"^  c #5BE300",
"/  c #56E800",
"(  c #5AE803",
")  c #49E116",
"_  c #64E200",
"`  c #6BE400",
"'  c #6CE903",
"]  c #73E100",
"[  c #41CD23",
"{  c #42CE2A",
"}  c #4ACD2C",
"|  c #43D423",
" . c #4AD523",
".. c #44DA25",
"X. c #4BDB22",
"o. c #44D32A",
"O. c #4BD42B",
"+. c #44D82A",
"@. c #4BDA2B",
"#. c #52D623",
"$. c #53DD22",
"%. c #59DD22",
"&. c #52D52D",
"*. c #58D72B",
"=. c #55DC2B",
"-. c #5ADC2C",
";. c #4CCD33",
":. c #50CE35",
">. c #52CE39",
",. c #46D035",
"<. c #4CD234",
"1. c #4ED935",
"2. c #53D434",
"3. c #59D731",
"4. c #54DB35",
"5. c #58DC35",
"6. c #55D33C",
"7. c #59D43E",
"8. c #54D83B",
"9. c #5AD938",
"0. c #61DD37",
"q. c #60D83B",
"w. c #5CD543",
"e. c #5DDA43",
"r. c #64D74C",
"t. c #64D94A",
"y. c #68D84C",
"u. c #C29B27",
"i. c #FFCC33",
"p. c #FFDA68",
"a. c #1A2882",
"s. c #387A93",
"d. c #5EB1B2",
"f. c #7ADAC9",
"g. c #FF8CA9",
"h. c #FFAEA0",
"j. c #FFA8BF",
"k. c #FFE082",
"l. c #BAE8E0",
"z. c gray80",
"x. c #FFD1C0",
"c. c gray92",
"v. c white",
/* pixels */
"&.H s f a s s a f r r r r r f f d K ) ) ) ) K s s a y y t t t y y y u a s s K J ) ) T ) L T T Y Y *.",
"@.0 7 7 7 0 0 9 7 6 6 - - 6 7 9 j 0 m 0 m m 8 7 < - * * * * > < < < < < 1 1 b b M M ! M S M S S S *.",
"@.7 7 8 e e e 0 9 6 6 6 6 6 7 0 0 Q Q m Q 0 8 7 - * * : * * : 2 2 3 * < < 8 8 m m ! M M S S S D S %.",
"O.7 7 0 m Q V Q j 9 9 9 7 9 9 0 0 0 j 0 0 0 7 6 - = = & : 2 2 } ;.k < < 1 w b b b m M M ! M D D D %.",
"@.7 7 8 m m C ! Q 9 9 9 9 6 7 9 9 0 0 0 0 9 q f y ; & : : 3 p 7.r.O.p G p w b m m m m Q ! M ( ^ D %.",
"+.0 8 m m ! ! Q Q j h 9 9 7 9 7 9 9 9 9 e d ..8.8.l = = 2 4 p 2.7.} O.w.2.w N m m m Q Q ! ! ! / ~ $.",
"O.8 b m M M m m 0 0 h 0 0 0 7 7 6 6 7 7 9 d 1.e.e.o.: - 4 4 H  .&.I 3.y.9.C b m m m Q Q ! ! ! ! m X.",
"+.8 8 m m m Q m m m 0 b D S 8 7 7 < 7 6 7 q d +.,.f 6 - w H J 3.q.#.#.*.#.b b Q Q m Q j Q ! ! Q m X.",
"@.8 m m m m m m M D S n Z Z b b b 8 7 < 6 6 6           w N C -.0.%.F M M M M m Q m Q j Q Q ! Q m X.",
"@.b m m 0 8 8 8 A ` E n v c b Z Z b 8 < 6 -   i.$ g.g.j.    M ) T F S S S S M M m m Q Q Q Q Q m m X.",
"=.m m m m 8 7 8 Z R Z v Z Z c v n n 8       k.i.u.$ $ $ g.g.  S S S D D S S S ! M m Q Q Q Q Q m Q X.",
"=.M m m 8 < < < c n v Z R Z c c n b   $ $ $ $ $ $ $ $ $ $ $ j.  S ~ ^ D D D S M M m m 0 j j m Q m X.",
"=.! M m 0 8 < < < c Z A Z c , v n S   # # # # # # # # # # # g.  ~ ( ( ^ ^ D S M b 0 0 8 0 0 m m ! $.",
"=.M b m 8 7 7 < > , v Z c > , A E A n     v.% % v.v.% % . + +   ! ( ( ( ` ` S n b 8 7 7 9 9 0 m M $.",
"=.b b b 8 e w 1 < , , c > & , R W Z b c @ . x.x.. v.x.% . % % +   ! ~ ( ' ` S 8 8 < 7 6 7 7 m b m $.",
"=.b m 8 e J  .H < * > * & & > v Z n c @ x.. x.x.. v.x.. . @ % +   Q ( ' ` ^ b < < - - 6 6 7 8 b M $.",
"O.b 8 7 7 H  .u < = & & & & * < c 1 b @ x.x.h.% x.x.x.. . @ x.. +   / ` ^ 0 8 < * * - - - 7 7 8 m #.",
"} 1 < 7 - 3 4 7 - & & & & & * < < 1 8 b % % % + x.x.x.x.x.x.x.. +   Q ! m 7 6 - = * * = - - - 7 8 | ",
"{ < < * * - - * * = & & & & * - < 1 1 . + + + + + . x.x.x.h.. + +   0 0 7 - * * * * & * * - - < 7 | ",
"{ > * & * * = & = & & & & & & - 7 < 1 < . . . . . x.x.x.h..       7 7 7 7 < - * * : * * * * - 7 < k ",
"l * * & & & & & & = & & & & = = - < < < 7 < % h.h.h.d.d.d.o o 7 < 7 < 7 < < * < 3 p p : * * - < - k ",
"l * = * & = 5 & & 5 = = & = = - - - - - * * o # # d.l.g.g.d.# o < * * - * < 7 4 P 6.6.p * * < - 7 z ",
"l - - - = - 5 = = = = = - - 7 < - * * * * * o # f.l.$ $ $ g.d.# o * * * < > 1 w O.y.y.{ - - 7 < 9 z ",
"l 5 - - - 6 5 5 5 5 5 5 - b S b < * * * & o # # f.l.$ $ $ g.d.# o & & & * < < 1 H 6.6.g q w w 8 7 | ",
"x - - - 5 6 7 6 5 5 9 8 7 M D B 1 < 1 1 * o # f.f.l.$ $ $ g.f.# o & & & & * < 1 8 w w w b N N b e +.",
"o.- - 6 5 6 6 5 5 6 Q ~ b m V N N b Z Z , o # v.v.# $ $ $ g.f.# o & & & & & < 7 b b b n B B B N N  .",
"o.- 6 5 5 5 6 5 6 9 m ~ ~ M C D R Z n n 8 o c.v.v.v.$ $ $ g.f.# o & & & * * < 1 B D ^ n n B B B C  .",
"+.6 5 6 6 5 5 9 7 9 0 Q / ~ ! E ` A Z b a.l.z.c.v.v.# $ $ # f.s.a.& & & & , c n n E ` D n b B B b  .",
"+.6 6 5 5 5 h 9 b S M 0 Q Q 0 M ~ ^ D a.l.l.z.c.c.c.# $ # l.d.s.a.= & & * c E E n S E ` A b c b b  .",
"o.- 6 5 5 6 7 7 b S M 0 9 Q ~ Q Q ~ / a.l.f.l.z.z.z.# # l.f.d.s.a.- & = * v R A n n D E Z 1 , 1 c  .",
"{ - = = & = 6 7 8 n b 8 m / ' ^ j 0 Q a.f.f.d.s.@ X l.f.f.f.d.d.a.7 < * * , c , , S D n 1 < , < 1 [ ",
"l - & & & = : < 8 b b b b S D M 9 9 9 h a.s.s.@ @ X f.f.f.d.s.a.0 8 < > * < v b b M M 8 1 < < > < [ ",
"x = & & & i { p < b b b b b 0 7 9 6 9 9 X @ @ @ @ @ X f.f.s.a.j m 0 < < * 1 Z M 8 8 0 8 8 8 < , > k ",
"o.- = & ; ,.w.o.3 8 8 b 8 8 9 7 7 7 7 9 9 X @ @ @ @ @ X d.s.a.m m 0 7 - * - 8 8 8 9 0 m b b 1 < < k ",
"+.6 5 & ; o.6.o.7 8 8 b 8 b b 8 8 0 9 7 e e X p.@ O X s.d.a.j m m 8 8 < - * - 6 9 e j Q b 0 8 7 <  .",
"@.7 5 5 - : a e 8 0 0 8 b m m b 8 8 8 w e X p.@ O X s.d.@ X 0 m 0 0 7 < - - - y P V m m Q m 8 8 8 | ",
"+.6 6 - 5 6 7 m m 0 b m M b M b b 8 7 w w X O O X @ @ @ @ X 0 8 0 9 7 - - 6 <  .&.U m m m m m 0 8 | ",
"x 6 5 = 6 6 0 b M M ! ! ! M ! m b 1 1 3 3 < X X X @ @ @ @ O X 8 7 7 6 6 - - 3  .&.U w 0 m m m 0 0 | ",
"x 5 - - 5 7 8 b n M M ~ ~ ! M b 8 1 < < < y X p.p.@ @ @ O O X < < 6 - - - < < 4 H w 8 8 8 m m 0 8 z ",
"x - = 5 - 7 8 n n M ~ ( / ~ ! b 8 7 < 6 - o.X O O O O O X X - 6 - * * - < < < < 3 , 1 < 8 8 8 0 7 z ",
"x - 6 - < 1 b n M M ~ ( ~ ! M 8 7 - - - : ,.t.X X X X X - - - - * * * > , , , < > > > < < 1 8 7 < z ",
"l - < < < 1 b n M S ~ / / ! M 8 7 - - - 6 g <.| +.e.w.p - 6 - - - > > , c v c , , * * > > < , < < z ",
"{ < < 1 8 8 b M M S / _ ~ ~ S b 7 - - - - g ,.| +.w.8.y 6 - - 6 - < c v A R Z , < > * > > > < < < k ",
"{ 8 8 b b c m b b S _ ] ^ S _ Z < 5 - 5 : o.6.<.d g g 6 - - - - < b v Z ] ] A 1 < * 2 [ u 2 t y < k ",
"o.8 b b b 8 8 8 8 m S D M M n b < - 5 - - g +.z q 6 6 6 - - 6 < 8 b n Z E E S 1 > 4 } w.;.[ ;.;.y p ",
"O.b b b b 8 8 0 8 0 M M b 7 - < - - - - - 6 q q 6 9 6 6 6 6 7 7 8 b n n Z S b 8 < u :.r.>.{ >.:.u k ",
"O.8 b 8 8 8 8 8 b M E _ M 8 6 * = - 6 - - 6 6 7 6 7 7 7 6 7 7 8 8 m b M b b 8 7 < 4  .{ [ t i p 3 [ ",
"@.b m b 8 1 < 1 8 b A E n 7 < - - - - - 6 7 9 0 7 7 7 7 7 8 0 8 8 8 8 8 8 b 8 8 8 1 1 1 3 2 * > < [ ",
" .b 8 8 8 1 < < 7 < 1 8 1 < < - 6 - 6 7 8 0 m 0 8 7 < 1 8 8 0 0 8 0 7 8 8 8 0 b m b 8 8 1 < - - < o.",
"e.4.4.2.;.,.,.,.,.,.,.,.,.,.,.;.,.,.,.1.1.4.4.4.1.1.;.<.,.1.1.4.1.1.1.1.1.1.4.5.5.5.4.2.2.,.<.;.<.>."
};
