/* XPM */
static char *_94bb5a3eccd4fec8848e291951784derdOuqd5vtRkmuCnb[] = {
/* columns rows colors chars-per-pixel */
"50 50 154 2 ",
"   c black",
".  c gray13",
"X  c #46321C",
"o  c #420D22",
"O  c #6E4615",
"+  c #434343",
"@  c gray39",
"#  c #824F12",
"$  c #AD2158",
"%  c #FF3868",
"&  c #FF6860",
"*  c #24C500",
"=  c #2BC600",
"-  c #24CB00",
";  c #2BCD00",
":  c #28C70D",
">  c #2BC90A",
",  c #32C601",
"<  c #39C700",
"1  c #33CD01",
"2  c #3BCD00",
"3  c #33C70C",
"4  c #34CC0B",
"5  c #3ACF0C",
"6  c #26D200",
"7  c #2CD300",
"8  c #2FD30C",
"9  c #34D400",
"0  c #3BD401",
"q  c #34DA00",
"w  c #3CDB00",
"e  c #33D60A",
"r  c #3CD30A",
"t  c #2ECB16",
"y  c #34C716",
"u  c #35CB15",
"i  c #3ACC14",
"p  c #35C91C",
"a  c #3BCD1B",
"s  c #36D215",
"d  c #3BD415",
"f  c #3DDA15",
"g  c #34D418",
"h  c #3BD41B",
"j  c #3CCD22",
"k  c #3DCE2A",
"l  c #3DD222",
"z  c #3ED22A",
"x  c #43CD00",
"c  c #4CCE00",
"v  c #43D501",
"b  c #4BD501",
"n  c #43DC00",
"m  c #4BDC00",
"M  c #43D50A",
"N  c #4AD608",
"B  c #43DA0D",
"V  c #4BD90F",
"C  c #54D400",
"Z  c #5BD600",
"A  c #51DD00",
"S  c #53DC00",
"D  c #57DD00",
"F  c #57DF04",
"G  c #5ADD01",
"H  c #59DE01",
"J  c #54DD0B",
"K  c #41CF1C",
"L  c #42D316",
"P  c #49D516",
"I  c #43DC16",
"U  c #46DF16",
"Y  c #4ADA16",
"T  c #4EDE16",
"R  c #43D41A",
"E  c #4AD41F",
"W  c #4ADA1E",
"Q  c #52D616",
"!  c #52D916",
"~  c #52DD14",
"^  c #61D600",
"/  c #63DB00",
"(  c #6CDC00",
")  c #42E101",
"_  c #44E300",
"`  c #47E202",
"'  c #4BE400",
"]  c #52E202",
"[  c #54E401",
"{  c #5BE301",
"}  c #56E800",
"|  c #5AE803",
" . c #49E116",
".. c #64E200",
"X. c #6BE400",
"o. c #6CE903",
"O. c #73E100",
"+. c #41CD23",
"@. c #42CE2A",
"#. c #4ACD2C",
"$. c #43D423",
"%. c #4AD523",
"&. c #44DA25",
"*. c #4BDB22",
"=. c #44D32A",
"-. c #4BD32B",
";. c #4AD72A",
":. c #4ED72A",
">. c #44D82A",
",. c #4BDA2B",
"<. c #52D623",
"1. c #53DD22",
"2. c #58D923",
"3. c #59DE22",
"4. c #52D52D",
"5. c #58D72B",
"6. c #55DC2B",
"7. c #5ADC2C",
"8. c #4CCD33",
"9. c #52CE39",
"0. c #46D035",
"q. c #4CD234",
"w. c #4ED935",
"e. c #53D434",
"r. c #59D731",
"t. c #54DB35",
"y. c #58DC35",
"u. c #55D33C",
"i. c #59D43E",
"p. c #54D83B",
"a. c #5AD938",
"s. c #61DD37",
"d. c #60D83B",
"f. c #5CD543",
"g. c #5DDA43",
"h. c #64D64C",
"j. c #64D94A",
"k. c #68D84C",
"l. c #C29B27",
"z. c #FFCC33",
"x. c #FFDA68",
"c. c #1A2882",
"v. c #387A93",
"b. c #5EB1B2",
"n. c #7ADAC9",
"m. c #FF8CA9",
"M. c #FFAEA0",
"N. c #FFA8BF",
"B. c #FFE082",
"V. c #BAE8E0",
"C. c gray80",
"Z. c #FFD1C0",
"A. c gray92",
"S. c white",
/* pixels */
"5.Q ! ! ! ~ T T T T Y L L d i u u u u u u y u u u d d I  . .U U I f f s t t t t u s s d d d s d L 4.",
"2.C C A A m m m m m n 0 0 2 1 1 1 1 1 = = = = ; ; 1 9 0 n n n n n w q 9 7 7 ; ; 7 9 9 w 0 9 9 9 0 :.",
"3.D D D A m m m m m n 0 0 2 1 ; 1 4 3 , = = = ; ; ; 9 0 w n n n n w q 9 9 7 7 7 7 q w w w w 9 9 9 :.",
"3.H H H A m m m m n n v 0 2 1 1 j 8.#.u > = * * * ; 7 9 w w w w w w q 9 9 9 q q q w ) n n n w 9 9 ;.",
"3.H F ] A m m n n n v v r i a i q.h.i.a 4 > * * > u s e w w w w w w 9 9 9 q q q w ) _ _ n n w 9 9 ;.",
"1.A ] ] ' ' ) ) n n n v M e.f.-.-.i.e.K i 4 ; - j u.p.&.f w q q q 9 9 9 9 q q q w ) _ ' m m n 0 0 ;.",
"*.m ' ' ' ' _ ) n n n n V a.k.e.E 4.%.L i 4 ; ; =.j.g.,.f e 9 9 9 7 9 9 w n w q w n m m m m n 0 0 =.",
"*.m ' ' ' _ _ ) n n m n N <.5.<.<.d.r.P M r 7 7 g =.>.h e 9 9 9 9 9 9 0 D H n w w n n m n n n 0 0 ;.",
"*.n _ ' ' ' _ ) n m m m m m m N 2.s.7.V M r           7 7 7 1 9 0 v v v C H m C H m n n n n n n 0 ;.",
"*.n n ) _ _ _ ) m m m m A A A A J ~ ~ m     N.m.m.% z.  ; ; 1 0 v A C v x x b / X.H v 0 0 n n n n :.",
"*.n n n ) ) ) n m m m A D D H D D A m   m.m.% % % l.z.B.      0 v b b x C C c C / b 0 9 0 0 n m n 6.",
"*.m n n n w w n n m m A H H { { { ]   N.% % % % % % % % % % %   b v 2 x C ^ C b b x 2 1 9 0 n m m 6.",
"1.m m n w w w w w n m A H { { { } ]   m.$ $ $ $ $ $ $ $ $ $ $   C b x < x C Z C x < 1 1 9 0 n m m 6.",
"1.m m w q q 9 9 0 0 v D X...{ | } '   + + . & & S.S.& & S.    b Z / Z < , x C c < 1 1 9 9 0 n n m 6.",
"1.m n 0 9 9 9 9 1 2 0 C X.X.| ] '   + & & . & Z.S.. Z.Z.. # x v C ( ^ < * , x 2 1 1 0 r r 0 v v m 6.",
"1.m n 0 9 7 7 ; ; 1 2 v { X.o.| '   + & # . . Z.S.. Z.Z.. Z.# v c C b , * * = = = 2 L %.R r 0 v v 6.",
"*.n 0 9 1 ; ; ; ; ; 1 9 n { X.}   + . Z.# . . Z.Z.Z.& M.Z.Z.# v 2 2 < = * * * * = 1 d %.L e 9 0 0 :.",
"%.0 9 1 ; ; ; = = = ; ; 9 n ' )   + . Z.Z.Z.Z.Z.Z.Z.+ & & & 0 0 2 2 1 ; * * * * = ; 1 4 4 ; 1 2 2 -.",
"$.9 1 ; ; ; = = = = ; ; 9 9 w w   + + . M.Z.Z.Z.. + + + + + . 0 2 1 ; = * * * * * ; ; ; ; ; ; 1 < @.",
"j 1 1 ; ; = = = = = ; ; 1 9 9 9 9       . M.Z.Z.Z.. . . . . 2 2 2 1 ; = * * * * - * * * * * = = = @.",
"j 1 1 ; = = > a a 4 1 1 1 1 1 1 9 9 9 e   & M.M.M.M.% o 1 1 1 1 1 ; ; * * * * - - - * * * * = = ; k ",
"l 9 1 ; ; ; a u.u.R 5 1 1 1 ; ; ; ; 9 o N.V.V.N.N.V.V.% o ; ; ; ; ; - * * - - - - - - * * * ; ; ; k ",
"l 9 9 1 ; ; =.h.k.:.r 2 1 = = = ; ; o N.% V.n.% % V.n.% % o = = ; ; 1 9 ; - - - - - - ; ; ; ; ; ; k ",
"$.e r 0 e e h e.e.R 0 2 1 = = * * o N.% % V.n.% % V.n.$ % % o = ; 1 v C v ; ; 6 6 6 7 9 7 ; ; ; ; k ",
"&.r M M M v 0 r r 0 2 < = = * * o m.$ % $ V.n.$ % V.n.$ % % % o < 2 N F n 9 0 9 6 6 7 9 7 7 ; ; ; =.",
"%.M M N N N v v v 0 0 1 ; * * * o m.% $ v.n.n.$ % V.n.v.$ % % o v v M B n m ] m 7 6 7 7 7 7 7 ; ; =.",
"%.M N N N b m H H v 0 1 ; * * o m.$ % $ v.n.n.$ $ V.n.v.$ % % % o H F N m [ ] n 7 7 7 7 6 6 7 7 ; =.",
"%.M N N v b D X./ b v b < * * o m.$ % $ v.n.n.v.v.n.n.v.$ $ % % o X...m ] [ _ w w 9 7 7 6 6 7 7 7 =.",
"%.v v x x H X./ C b / / x = * o m.$ $ $ v.S.S.n.n.S.S.n.$ $ $ $ o [ ' w ) ) w m m n 9 7 7 6 7 7 7 =.",
"%.2 2 < 2 C ..H b b Z ^ x = * @ S.S.S.S.b.A.A.n.n.A.A.n.S.S.S.S.@ _ _ ] _ q w m A n 9 7 7 6 6 ; ; =.",
"+.2 < 1 2 0 b H C 2 2 x < = = @ S.S.S.A.b.n.n.n.n.n.n.n.A.S.S.S.@ n { X.{ n w v b v 9 7 * - - * ; =.",
"+.1 , 1 2 0 0 m m 0 v v < = ; 1 @ A.A.C.b.n.n.n.n.n.n.n.C.A.A.@ q q m H A n v v v 0 9 > * * * - - k ",
"j 1 1 < 2 0 0 w 0 0 m b 2 = 1 9 @ C.C.v.b.n.n.n.n.n.n.n.n.C.C.@ 9 9 9 0 0 v v v 0 2 a +.p * * - - z ",
"+.1 2 2 0 n n w q 9 0 0 ; ; 1 9 w c.b.b.n.n.n.v.v.n.n.n.n.n.c.9 9 9 9 0 0 v v 0 0 e -.f.8.: * * ; =.",
"$.2 9 0 n m m w w e 7 ; ; ; 1 9 w c.v.b.b.b.v.c.c.v.b.n.n.n.c.9 9 0 0 0 v v 0 0 0 e $.e.=.> - ; 7 =.",
"$.0 0 w n m m n B R s ; ; ; 1 9 w c.v.v.v.v.c.9 9 c.v.v.v.n.c.0 0 0 v v n n w w 0 0 r s 8 - - 7 9 ;.",
"$.0 w w n m n n W 5.$.1 ; ; ; 9 9 w c.c.c.c.c.9 9 c.c.c.c.c.0 0 0 v n n n m m n n n w 9 7 7 - 7 7 >.",
"$.0 w n n n w 0 E 5.%.1 ; ; ; 7 9 X # # # O X 1 s X O # # # X 2 0 v n m m ' ' m m m n w 9 7 - 7 7 z ",
"$.0 w n n 0 0 0 r L 5 1 1 ; ; ; X X # # # O X 1 =.X O # # # X X 0 0 n m ' ] ] m m b v 0 9 ; - - ; z ",
"l 9 0 0 0 0 9 2 < 1 < < < 1 ; X x.x.# # # O X 4 $.X O # # # x.x.X 0 n m ] } { [ m b v 0 9 ; - - ; k ",
"j 1 9 0 2 2 1 1 , , < < < < , X # # # # # O X $.$.X O # # # # # X 9 0 m ] { { [ m m b v 2 1 ; ; ; k ",
"j 1 2 2 < , , = = , < x x x < , ; ; ; ; ; ; a i.g.=.$.q.l ; ; ; ; 9 0 n ' ] } ] A m m v 0 2 1 1 ; k ",
"j 1 1 1 , , , = = 1 2 b / Z c 2 < ; ; ; ; ; s u.g.=.$.=.a ; ; ; ; 1 v D ] } ..{ A m m v 0 2 0 9 2 @.",
"j 1 u u 3 y a y 1 1 2 Z O.O.Z b 2 2 ; ; ; ; ; s h d q.u.=.; ; ; ; 2 b ..{ { X...m n v v v v v 0 0 @.",
"j u 8.8.j 8.f.#.4 1 2 C / / C b v 0 9 ; ; ; ; 7 7 e $.=.h ; ; ; ; 1 v m m m H A n 0 0 0 v v v v 0 =.",
"j y 8.9.+.u.h.e.i 1 0 v b C b b v 0 9 9 7 7 7 7 9 9 e 8 7 ; ; ; ; ; ; ; 9 n m m 0 0 0 0 0 v v v v -.",
"+.4 a j u +.-.K 5 2 9 0 v v v v v 0 0 9 9 9 9 9 9 9 9 7 7 ; ; ; ; ; ; ; 9 C X./ b v 0 0 0 0 v v v ;.",
"+.1 ; ; 1 4 5 0 0 0 0 0 0 0 0 0 0 0 w w 9 9 9 9 9 9 q w 9 9 ; ; ; ; ; ; 0 b / H v 0 0 2 9 0 v v v ;.",
"+.1 ; ; 1 2 0 v v v v v 0 0 0 0 0 0 w w 0 0 2 2 0 0 w n w 0 9 7 ; ; ; 1 2 2 0 2 2 2 1 1 2 0 0 v v %.",
"u.q.q.q.q.q.e.t.y.y.y.t.w.w.w.w.w.w.w.w.w.q.q.q.q.w.t.y.t.w.w.q.0.0.q.q.0.0.0.0.0.0.0.0.q.q.w.t.t.g."
};
