/* XPM */
static char *result[] = {
/* columns rows colors chars-per-pixel */
"50 50 137 2 ",
"   c black",
".  c gray13",
"X  c #46321C",
"o  c #420D22",
"O  c #6E4615",
"+  c #434343",
"@  c gray39",
"#  c #824F12",
"$  c #AD2158",
"%  c #FF3868",
"&  c #FF6860",
"*  c #23C500",
"=  c #2BC600",
"-  c #24CB00",
";  c #2BCD00",
":  c #28C70D",
">  c #2CCB09",
",  c #32C601",
"<  c #39C700",
"1  c #33CD01",
"2  c #3BCD00",
"3  c #33C70C",
"4  c #35CC0C",
"5  c #3ACF0C",
"6  c #26D200",
"7  c #2CD300",
"8  c #2FD30C",
"9  c #34D401",
"0  c #3BD401",
"q  c #34DA00",
"w  c #3CDB01",
"e  c #34D209",
"r  c #3BD409",
"t  c #39D908",
"y  c #2ECB16",
"u  c #34C716",
"i  c #36CB15",
"p  c #3ACC15",
"a  c #35C91C",
"s  c #3BCD1B",
"d  c #36D215",
"f  c #3BD416",
"g  c #3CDA16",
"h  c #3BD31B",
"j  c #3CE400",
"k  c #3DCD22",
"l  c #3DCE2A",
"z  c #3DD222",
"x  c #3ED22A",
"c  c #43CC00",
"v  c #4CCE00",
"b  c #43D500",
"n  c #4BD501",
"m  c #43DC00",
"M  c #4BDC00",
"N  c #44D609",
"B  c #4AD608",
"V  c #43DA0D",
"C  c #54D400",
"Z  c #5BD600",
"A  c #53DD00",
"S  c #5ADD01",
"D  c #54DD0B",
"F  c #41CF1C",
"G  c #42D315",
"H  c #44DD16",
"J  c #4DDD16",
"K  c #43D41A",
"L  c #4AD41F",
"P  c #4ADA1E",
"I  c #52D616",
"U  c #52DB16",
"Y  c #61D600",
"T  c #63DB00",
"R  c #6CDC00",
"E  c #44E300",
"W  c #4BE300",
"Q  c #53E301",
"!  c #5BE301",
"~  c #56E800",
"^  c #5AE803",
"/  c #49E116",
"(  c #64E200",
")  c #6BE400",
"_  c #6CE903",
"`  c #73E100",
"'  c #41CD23",
"]  c #42CE2A",
"[  c #4ACD2C",
"{  c #43D323",
"}  c #4AD523",
"|  c #4BDB22",
" . c #45D32A",
".. c #4BD42B",
"X. c #44D82A",
"o. c #4CD92A",
"O. c #52D623",
"+. c #53DD22",
"@. c #59DD22",
"#. c #52D52D",
"$. c #58D72B",
"%. c #55DC2B",
"&. c #4CCD33",
"*. c #50CE35",
"=. c #52CE39",
"-. c #46D035",
";. c #4CD234",
":. c #4ED935",
">. c #53D434",
",. c #54DB35",
"<. c #58DC35",
"1. c #55D33C",
"2. c #59D43E",
"3. c #5AD938",
"4. c #61DD37",
"5. c #60D83B",
"6. c #5CD543",
"7. c #5CD942",
"8. c #64D74B",
"9. c #67DA4A",
"0. c #68D84C",
"q. c #C29B27",
"w. c #FFCC33",
"e. c #FFDA68",
"r. c #1A2882",
"t. c #387A93",
"y. c #5EB1B2",
"u. c #7ADAC9",
"i. c #FF8CA9",
"p. c #FFAEA0",
"a. c #FFA8BF",
"s. c #FFE082",
"d. c #BAE8E0",
"f. c gray80",
"g. c #FFD1C0",
"h. c gray92",
"j. c white",
/* pixels */
"$.I I U U U J J J J J G G f i d i i p i u u u i i f g H J / / H H g d d y y y y i d d f f f d f K #.",
"@.C A M A M M W M M m 0 0 1 1 1 1 1 1 1 = = = = ; 1 9 0 w M E w m j q q 7 7 ; 7 7 7 q q t 0 7 9 w o.",
"@.S S S A A M M M M m 0 2 1 9 ; , 3 3 > = = > = = ; 9 9 @ @ @ m E w w 9 9 7 7 7 9 q w w w w w 9 9 o.",
"@.S S Q Q M E M m m m N 2 2 1 3 F &.[ u > > * * - ; 7 @ f.f.f.@ w w q q 9 7 q q q w E V V m w 9 9 o.",
"@.A ^ ~ A M E m m w b 0 5 f s p &.8.2.s 4 >           f.h.j.h.f.@ w 9 9 q q q q j E E B E m 0 9 9 o.",
"+.Q W ~ W W E E m m m N N >.6...[ 2.>.F     a.i.i.% w.  j.j.j.h.@ 9 9 q 7 7 j q j m E E M m m 0 0 X.",
"o.M W E W W E j m m m m B 3.9.3.L O.[   i.i.% % % q.w.s.      h.@ 7 9 9 w w w w q w M M W m m w 0 o.",
"| E W W W E E m m m m m B O.$.O.$.5.  a.% % % % % % % % % % %   9 7 9 w S S m 0 m m m E m m b b 0 X.",
"| m E E E W j j E E M M M M A B @.4.  i.$ $ $ $ $ $ $ $ $ $ $   0 b b b C S n A S n m m w m m 0 0 o.",
"| w M E E E E E E M M M M M A A D U   + + . & & j.j.& & j.    $ o C C b c c n Y ` S 0 0 w b m m m #.",
"| m j m E E E m E M W M S S S S S   + & & . & g.j.. g.g.. # $ $ o n n b C C v C T n 0 0 0 0 m m m %.",
"| E m m m w w m m M M A S S ! S Q   + & # . . g.j.. g.g.. g.# $ o b c c Z Z C v n c 1 1 9 0 m m E %.",
"+.W M w w w w w 0 m M A ! ! ! ^   + . g.# . . g.g.g.& p.g.g.# $ o v v < c C Y C c < ; 1 0 0 m M M %.",
"+.W m w w q 9 9 0 b b S ) ) ^ ^   + . g.g.g.g.g.g.g.+ & & & $ o Z Y Z < , c C v , < 1 9 9 w m M M %.",
"+.M w 0 q 9 7 9 1 1 0 A ) _ ! Q   + + . p.g.g.g.. + + + + + . o C R Y < * , c < 1 1 e r t 0 b b M %.",
"+.M m 0 9 ; 7 ; ; 1 2 b S ) _ ^ E       . p.g.g.g.. . . . . % o v Z v , * * = , = < G } K 0 w b b #.",
"| b 0 9 7 ; ; = = ; 1 0 w ! _ ~ E j o o r.& p.p.p.p.& % % % $ o b 2 < = * * * * - 1 p } G 9 9 0 0 ..",
"} 0 9 9 ; ; = * = - = 7 9 m E E j o i.% % % $ d.u.% y.% % % o 0 2 1 1 = * * * * * ; 1 5 4 7 1 1 2  .",
"{ 9 1 ; = = = = - = = ; 1 9 w w o i.% % % % % $ u.% % y.% $ o 2 2 1 = = * * * * - = = = ; = = 1 < ] ",
"k 1 9 ; = = = = = = = = ; 9 0 o i.% % % % % % $ u.u.% y.$ o 1 1 1 9 ; * * * * * * = - = = * = = , l ",
"k ; 1 ; = > > s p 4 = 1 1 1 1 o i.$ j.j.$ % % $ u.u.% % y.r.1 1 1 7 = - * * * - - - * * * * * = = l ",
"z 9 9 1 = ; s 1.6.K 1 e 1 , = o i.h.j.j.j.$ $ d.u.u.u.% j.r.; ; ; ; ; - - - - - - - - - - - - ; = l ",
"z 9 1 1 ; > ] 0.0...r 2 , = * @ f.j.j.j.j.$ u.u.u.j.u.u.u.r.= = = ; 7 9 ; - - - - - - ; ; - ; - ; l ",
"{ t e 0 0 e h >.1.K 0 < , = * @ f.h.j.j.j.d.u.u.u.u.u.u.y.r.X X = 1 b C 0 6 7 6 6 6 6 6 7 ; ; ; ; l ",
"X.w N N N N 0 r r r 2 1 = = * @ f.f.h.h.u.u.u.u.u.u.u.u.y.X e.O X < B S m 9 0 9 6 6 7 7 7 7 ; ; ; x ",
"| N b B B B n b b 0 0 1 = * * * @ f.f.y.u.u.u.u.u.u.u.u.t.X e.O X B N V m M W M q 6 6 q 7 6 6 ; 7  .",
"} B B B B n M S S n 2 1 = = * * - @ @ t.y.u.u.u.u.u.u.y.# # # O X Y D M M Q Q m q 6 7 6 6 6 6 7 ;  .",
"o.b B B n n S ) T n b v < * * * X X X r.t.y.y.u.u.u.u.y.# # # O X ) ( M Q Q M w q q q 7 6 6 6 7 7  .",
"} B b c b S ) T n n T T v = * X O O O t.r.r.t.y.y.u.u.t.# # # O X Q M w j E j M M b 9 9 7 6 6 7 7  .",
"' 2 2 2 < C ( S n n Z T c = - X O # # t.y.y.r.r.t.y.y.t.# # # O X E E Q M w w M A M 9 7 6 6 6 7 ;  .",
"' 2 < = 1 0 n S C 2 2 c , , = X O # # t.y.y.y.y.r.r.t.t.O O O O X E Q _ ! w 0 b n b 9 7 - - * - ;  .",
"' < , 1 < 2 0 M M c b v < = = X O # # t.y.y.y.y.r.q r.r.X X X X q q n S A m 0 c b 0 e = * * * - ; l ",
"k 1 , < 2 b 0 w 0 0 n n < = 1 X O # # t.y.y.y.r.q q q j q j q q 7 9 9 w m b b c 0 1 p ] a * * - ; x ",
"' 1 1 9 0 m m w q w 0 0 1 = 1 X O e.X r.r.r.r.q 7 q q q t t q 9 9 q 9 9 0 0 b 0 0 0  .6.&.: * - ;  .",
"' 1 2 0 w m M m w e 7 ; ; = 9 X O e.X m w q q q 9 7 e t t t t e 0 0 w b b b 0 0 0 e  .1. .: - - 7 X.",
"} 0 0 w m m E m V g f ; ; ; 1 9 X X m w w q 9 9 9 7 e t t t 0 0 0 0 b m b m w w 0 0 t d 8 - - 6 q X.",
"{ 0 w w m M m w P %.K 8 ; ; 7 7 9 w w 0 0 9 7 e 8 e e e r 5 0 1 0 0 b M m M M m m m w 0 8 7 ; 6 q x ",
"{ w w m m w m 0 } >.} 4 7 ; ; 7 9 9 9 0 9 9 9 1 h .. .4 1 1 2 5 0 b m M M M M M m M m 0 7 7 ; 6 7 x ",
"z 0 w M m 0 0 0 r G r 1 1 ; ; ; 7 1 9 1 1 1 1 1 ] 8.6.' i e 1 9 2 0 m W W Q Q W n n b 0 7 ; - 6 ; x ",
"z 9 w 0 0 0 9 1 < , < 1 < 1 ; = = ; ; 7 1 1 ; 4 { 1.6.6. .; ; 1 1 0 m n Q ^ ^ Q M M b b 9 7 - ; ; l ",
"z 1 9 0 9 < , = , , , < < < , = = 7 ; ; ; ; 4 h { { 1.8.;.> 6 ; ; 9 0 M Q ~ ^ ! M n M b 2 1 7 ; ; x ",
"k 1 1 < < , , , = , < c v c < , = ; 7 ; ; 7 h 7.6.}  .;.z - ; ; ; 9 0 m W Q ~ Q A M n b 2 1 1 1 ; l ",
"k 1 1 1 = , , , , , 2 n Y Y v c < ; ; 7 ; ; d 1.7.X.z  .h - 6 ; ; 1 b S Q Q ! ! A M n b 0 2 0 1 1  .",
"z 1 i u 3 s s u 1 1 c Z ` R C v 2 9 ; ; ; 7 > d h f ;.1. .8 ; ; ; 0 n ( S ! ` ( M m m b c b b 0 2 ] ",
"k i &.&.' *.6.[ 3 1 0 C R T A n b 0 1 = ; ; 7 7 q e x X.h > ; ; ; 1 b n M M S Q m w 0 0 b b b b 0  .",
"k i *.=.] =.8.*.p 1 2 b n C n n m 0 9 9 7 ; 7 7 9 q q 8 7 ; ; 6 ; ; ; 9 9 w M M 0 0 w 0 0 0 m b b ..",
"k 4 s k u ' [ F 5 1 9 0 m b b n b 0 9 0 9 9 9 7 9 q 7 q 7 ; 7 ; ; ; = 7 0 C ) S n 0 0 2 0 0 b b b o.",
"{ 1 = = 1 2 5 5 0 0 0 b 0 b 0 w w 0 0 w q 9 9 9 9 9 9 q 9 7 ; ; ; = ; ; 1 n T Z n 0 0 1 0 0 0 b b o.",
"' 1 ; ; 1 1 r b b b m b 0 0 w 9 0 0 w w w 0 2 1 0 0 w w w 0 7 ; 7 ; ; 7 1 2 0 2 2 1 1 1 9 2 0 b b o.",
"1.;.&.&.;.>.>.,.<.<.,.,.:.:.:.:.:.:.:.:.;.;.;.;.;.;.,.<.<.:.:.:.;.-.-.-.-.-.-.-.-.-.-.-.-.-.>.,.,.2."
};
