/* XPM */
static char *_e36df8937c14b7db4743f935c176b24vzH44kqLJJ3RRKlL[] = {
/* columns rows colors chars-per-pixel */
"50 50 154 2 ",
"   c black",
".  c gray13",
"X  c #46321C",
"o  c #420D22",
"O  c #6E4615",
"+  c #434343",
"@  c gray39",
"#  c #824F12",
"$  c #AD2158",
"%  c #FF3868",
"&  c #FF6860",
"*  c #23C500",
"=  c #2BC600",
"-  c #24CB00",
";  c #2BCD00",
":  c #28C70D",
">  c #2BCB09",
",  c #32C601",
"<  c #39C700",
"1  c #33CD01",
"2  c #3BCD00",
"3  c #33C70C",
"4  c #34CC0B",
"5  c #3ACF0C",
"6  c #26D200",
"7  c #2CD300",
"8  c #2FD30C",
"9  c #34D400",
"0  c #3BD401",
"q  c #34DA00",
"w  c #3CDB00",
"e  c #33D60A",
"r  c #3CD30A",
"t  c #2ECB16",
"y  c #34C716",
"u  c #35CB15",
"i  c #3ACC14",
"p  c #35C91C",
"a  c #3BCD1B",
"s  c #35D215",
"d  c #3BD415",
"f  c #3DDA15",
"g  c #34D418",
"h  c #3BD41B",
"j  c #3DE400",
"k  c #3CCD22",
"l  c #3DCE2A",
"z  c #3DD222",
"x  c #3ED22A",
"c  c #43CC00",
"v  c #4CCE00",
"b  c #43D501",
"n  c #4BD501",
"m  c #43DC00",
"M  c #4BDC00",
"N  c #43D50A",
"B  c #4AD608",
"V  c #43DA0D",
"C  c #4BD90F",
"Z  c #54D400",
"A  c #5BD600",
"S  c #53DC00",
"D  c #52DE00",
"F  c #57DD00",
"G  c #5ADD01",
"H  c #59DE01",
"J  c #54DD0B",
"K  c #41CF1C",
"L  c #42D316",
"P  c #49D516",
"I  c #43DC16",
"U  c #46DF16",
"Y  c #4ADA16",
"T  c #4EDE16",
"R  c #43D41A",
"E  c #4AD41F",
"W  c #4ADA1E",
"Q  c #52D616",
"!  c #52D916",
"~  c #52DD14",
"^  c #61D600",
"/  c #63DB00",
"(  c #6CDC00",
")  c #42E101",
"_  c #44E300",
"`  c #47E202",
"'  c #4BE400",
"]  c #52E202",
"[  c #54E400",
"{  c #5BE301",
"}  c #56E800",
"|  c #5AE803",
" . c #49E116",
".. c #64E200",
"X. c #6BE400",
"o. c #6CE903",
"O. c #73E100",
"+. c #41CD23",
"@. c #42CE2A",
"#. c #4ACD2C",
"$. c #43D323",
"%. c #4AD523",
"&. c #44DA25",
"*. c #4BDB22",
"=. c #44D32B",
"-. c #4BD32B",
";. c #4AD72A",
":. c #4ED72A",
">. c #44D82A",
",. c #4BDA2B",
"<. c #52D623",
"1. c #53DD22",
"2. c #58D923",
"3. c #59DE22",
"4. c #52D52D",
"5. c #58D72B",
"6. c #55DC2B",
"7. c #5ADC2C",
"8. c #4CCD33",
"9. c #52CE39",
"0. c #46D035",
"q. c #4CD234",
"w. c #4ED935",
"e. c #53D434",
"r. c #59D731",
"t. c #54DB35",
"y. c #58DC35",
"u. c #55D33C",
"i. c #59D43E",
"p. c #54D83B",
"a. c #5AD938",
"s. c #61DD37",
"d. c #60D83B",
"f. c #5CD543",
"g. c #5DDA43",
"h. c #64D74C",
"j. c #64D94A",
"k. c #68D84C",
"l. c #C29B27",
"z. c #FFCC33",
"x. c #FFDA68",
"c. c #1A2882",
"v. c #387A93",
"b. c #5EB1B2",
"n. c #7ADAC9",
"m. c #FF8CA9",
"M. c #FFAEA0",
"N. c #FFA8BF",
"B. c #FFE082",
"V. c #BAE8E0",
"C. c gray80",
"Z. c #FFD1C0",
"A. c gray92",
"S. c white",
/* pixels */
"5.Q ! ! ! ~ T T T T Y L d d i u u u u u u y u u u d d I  . .U U I f d s t t t t u s s d d d s d L 4.",
"2.Z Z D D M M M M M m 0 0 2 1 1 1 1 1 = = = = ; ; 1 9 0 m m m m m w q 9 7 7 ; 7 7 9 9 w 0 9 9 9 0 :.",
"3.F F F D M M M M M m b 0 2 1 ; 1 3 3 , = = = ; ; ; 9 0 w m m m m w q 9 9 7 7 7 7 q w w w w 9 9 9 :.",
"3.H H H D M M M M m m b 0 2 1 1 k 8.#.u > = * * * ; 7 9 w w w w w w q 9 9 9 q q q w ) m m m w 9 9 ;.",
"3.H H ] D M M m m m b b r i a i q.h.i.a 4 > * * > u s e w w w w w w 9 9 9 q q q w ) _ M m m w 9 9 ;.",
"1.D ] ] ' ' ) ) m m m b N e.f.-.-.i.e.K i 4 ; - k u.p.&.f w q q q 9 9 9 9 q q q w ) _ ' M M m 0 0 ;.",
"*.M ' ' ' _ _ ) m m m m N a.k.e.E 4.%.L i 4 ; > =.j.g.,.f e 9 9 9 7 9 9 w m w q w m M M M M m 0 0 ;.",
"*.M ' ' ' _ _ ) m m M m B <.5.<.<.d.r.P N r 7 7 g =.=.h e 9 9 9 9 9 9 0 F H m w w m m M m m m 0 0 ;.",
"*.m _ _ _ _ _ ) m M M M M M M B 2.s.7.C N r 7           7 7 1 9 0 b b b Z H M Z H M m m m m m m 0 ;.",
"*.m m ) _ _ _ ) M M M M D D D D J ~ ~ M m     N.m.m.% z.  ; 1 0 b D Z b c v n / X.H b 0 0 m m m m :.",
"*.m m m ) ) ) m M M M D F F H F F D M M   m.m.% % % l.z.B.      b n n c Z Z v Z / n 0 9 0 0 m M m 6.",
"*.M m m m w w m m M M D H H { { { ] M   N.% % % % % % % % % % %   b 2 c Z A Z n n c 2 1 9 0 m M M 6.",
"1.M M m w w w w w m M D H { { { } ] '   m.$ $ $ $ $ $ $ $ $ $ $   n c < c Z A Z c < 1 1 9 0 m M M 6.",
"1.M M w w q 9 9 0 0 b F X...{ | } ' '   + + . & & S.S.& & S.    A / A < , c Z v < 1 1 9 9 0 m m M 6.",
"1.M m 0 9 9 7 9 1 2 0 Z X.X.| ] ' '   + & & . & Z.S.. Z.Z.. # b Z ( ^ < * , c 2 1 1 0 r r 0 b b n 6.",
"1.M m 0 9 7 7 ; ; 1 2 b H X.o.| _ )   + & # . . Z.S.. Z.Z.. Z.# v Z n , * * = = = 2 L %.R r 0 b b 6.",
"*.m 0 9 1 ; ; ; ; ; 1 9 m { X.} j   + . Z.# . . Z.Z.Z.& M.Z.Z.# 2 2 < = * * * * = 1 d %.L e 9 0 0 :.",
"%.0 9 1 ; ; ; = = = ; ; 9 m ' ) j   + . Z.Z.Z.Z.Z.Z.Z.+ & & & 0 2 2 1 ; * * * * = ; 4 4 4 ; 1 2 2 -.",
"$.9 1 ; ; ; = = = = ; ; 9 9 w w q   + + . M.Z.Z.Z.. + + + + + . 2 1 ; = * * * * * ; ; ; ; ; ; 1 < @.",
"k 1 1 ; ; = = = = = ; ; 1 9 9 9 9 9       . M.Z.Z.Z.. . . . . 2 2 1 ; = * * * * - * * * * * = = = @.",
"k 1 1 ; = = > a a 4 1 1 1 1 1 1 9 9 9 o $ b.b.b.M.M.M.& 1 1 1 1 1 ; ; * * * * - - - * * * * = = ; l ",
"z 9 1 ; ; ; a u.u.R 5 1 1 1 ; ; ; ; o $ b.n.V.V.b.$ o ; ; ; ; ; ; ; - * * - - - - - - * * * ; ; ; l ",
"z 9 9 1 ; > =.h.k.:.r 2 1 = = = ; ; o $ b.n.m.m.V.n.$ o @ @ = = ; ; 1 9 ; - - - - - - ; ; ; ; ; ; l ",
"$.e r 0 e e h e.e.R 0 2 1 = = * * o $ $ b.m.% % % V.n.n.S.S.@ @ ; 1 b Z b ; ; 6 6 6 7 9 7 ; ; ; ; l ",
"&.r N N N b 0 r r 0 2 < = = * * * o $ b.n.m.% % % % V.n.S.S.S.A.@ 2 B H m 9 0 9 6 6 7 9 7 7 ; ; ; =.",
"%.N N B B B b b b 0 0 1 ; * * * * o $ b.n.V.m.% % % % % S.S.A.C.@ b N V m M ] M 7 6 7 7 7 7 7 ; ; =.",
"%.N B B B n M H H b 0 1 ; * * * * * c.v.n.V.m.% % % % % $ A.A.C.@ H H B M [ ] m 7 7 7 7 6 6 7 7 ; ;.",
"%.N B B b n F X./ n b n < * * * * > c.v.n.n.V.m.% % % % $ C.C.C.@ X...M ] [ _ w w 9 7 7 6 6 7 7 7 ;.",
"%.b b c c H X./ Z n / / c = * * * s c.n.n.n.n.n.V.$ $ $ V.@ @ @ { [ ' w ) m w M M m 9 7 7 6 7 7 7 ;.",
"%.2 2 < 2 Z ..H n n A ^ c = * * ; d c.b.n.n.n.n.n.n.b.b.v.c.' } [ _ _ ] _ q w M D m 9 7 7 6 6 ; ; =.",
"+.2 < 1 2 0 n H Z 2 2 c < = = ; X X X b.n.n.n.n.n.b.b.v.c.c.j j w m { X.{ m w b n b 9 7 * - - * ; =.",
"+.1 , 1 2 0 0 M M 0 b b < = ; X O O O # n.n.n.n.b.v.v.c.v.b.c.q q q M H D m b b b 0 9 > * * * - - l ",
"k 1 1 < 2 0 0 w 0 0 M n < = 1 X O # # # n.n.n.n.v.c.c.v.b.b.c.q 9 9 9 0 0 b b b 0 2 a +.p * * - - x ",
"+.1 2 2 0 m m w q 9 0 0 ; ; 1 X O # # # n.n.b.v.c.v.v.b.b.c.q 9 9 9 9 0 0 b b 0 0 e -.f.8.: * * ; =.",
"$.2 9 0 m M M w w e 7 ; ; ; 1 X O # # # b.b.v.c.c.v.v.v.v.c.r 9 9 0 0 0 b b 0 0 0 e $.e.=.> - ; 7 ;.",
"$.0 0 w m M M m V R s ; ; ; 1 X O # # # c.c.c.9 X # # # # X r 0 0 0 b b m m w w 0 0 r s 8 - - 7 9 ;.",
"$.0 w w m M m m W 5.$.4 ; ; ; X O x.X X 0 9 9 9 X O # # # X X 0 0 b m m m M M m m m w 9 7 7 ; 7 7 >.",
"$.0 w m m m w 0 E 5.%.4 ; ; ; X O x.X 9 9 9 1 1 X O # # # x.x.X 0 b m M M M ' M M M m 0 9 7 - 7 7 x ",
"$.0 w m m 0 0 0 r L 5 1 1 ; ; ; X X 1 1 1 1 1 4 X O O O O O O X 0 0 m M ' ] ] M M n b 0 9 ; - - ; x ",
"z 9 0 0 0 0 9 2 < 1 < < < 1 ; ; ; ; ; ; ; 1 1 4 $.X X X X X X 1 9 0 m M ] } { [ M n b 0 9 ; - - ; l ",
"k 1 9 0 2 2 1 1 , , < < < < , = ; ; ; ; ; 1 4 $.$.$.u.h.q.> ; ; ; 9 0 M ] { { [ M M n b 2 1 ; ; ; l ",
"k 1 2 2 < , , = = , < c c c < , ; ; ; ; ; ; s i.g.;.$.q.z > ; ; ; 9 0 m ' ] } ] D M M b 0 2 1 1 ; l ",
"k 1 1 1 , , , = = 1 2 n / A v 2 < ; ; ; ; ; s u.g.;.$.=.h ; ; ; ; 1 b F ] } ..{ D M M b 0 2 0 9 2 @.",
"k 4 u u 3 y a y 1 1 2 A O.O.A n 2 2 ; ; ; ; > s h d q.u.=.> ; ; ; 2 n ..{ { X...M m b b b b b 0 0 @.",
"k u 8.8.k 8.f.#.5 1 2 Z / / Z n b 0 9 ; ; ; ; 7 7 e $.=.h ; ; ; ; 1 b M M M H D m 0 0 0 b b b b 0 =.",
"k y 8.9.+.9.h.e.i 1 0 b n Z n n b 0 9 9 7 7 7 7 9 9 e 8 7 ; ; ; ; ; ; ; 9 m M M 0 0 0 0 0 b b b b -.",
"+.4 a k u +.-.K 5 2 9 0 b b b b b 0 0 9 9 9 9 9 9 9 9 7 7 ; ; ; ; ; ; ; 9 Z X./ n b 0 0 0 0 b b b ;.",
"+.1 ; ; 1 5 5 0 0 0 0 0 0 0 0 0 0 0 w w 9 9 9 9 9 9 q w 9 9 ; ; ; ; ; ; 0 n / H b 0 0 2 9 0 b b b :.",
"+.1 ; ; 1 2 0 b b b b b 0 0 0 0 0 0 w w 0 0 2 2 0 0 w m w 0 9 7 ; ; ; 1 2 2 0 2 2 2 1 1 2 0 0 b b %.",
"u.q.q.q.q.q.e.t.y.y.y.t.w.w.w.w.w.w.w.w.w.q.q.q.q.w.t.y.t.w.w.q.0.0.q.q.0.0.0.0.0.0.0.0.q.q.w.t.t.g."
};
