/* XPM */
static char *result[] = {
/* columns rows colors chars-per-pixel */
"50 50 252 2 ",
"   c #000000",
".  c #06070F",
"X  c #131210",
"o  c #3B0001",
"O  c #2F1212",
"+  c #042A08",
"@  c #02380A",
"#  c #0E320F",
"$  c #33290A",
"%  c #0F0D2F",
"&  c #2F0F30",
"*  c #032738",
"=  c #08302D",
"-  c #353537",
";  c #302B2E",
":  c #4A0001",
">  c #570002",
",  c #4D0E15",
"<  c #6B0806",
"1  c #502F11",
"2  c #6F3907",
"3  c #4F0828",
"4  c #780438",
"5  c #711033",
"6  c #473B37",
"7  c #4D3127",
"8  c #763134",
"9  c #035115",
"0  c #006819",
"q  c #1B5017",
"w  c #544A08",
"e  c #744E15",
"r  c #716B11",
"t  c #4C4239",
"y  c #534838",
"u  c #554A2D",
"i  c #6E4D2B",
"p  c #77642B",
"a  c #0B0B4F",
"s  c #2C1952",
"d  c #032A44",
"f  c #023649",
"g  c #0B3B4E",
"h  c #393B44",
"j  c #272551",
"k  c #010178",
"l  c #100F70",
"z  c #2F1A7B",
"x  c #002F6F",
"c  c #322678",
"v  c #6E0643",
"b  c #4A364C",
"n  c #6E2944",
"m  c #582A69",
"M  c #064454",
"N  c #3D4349",
"B  c #004B69",
"V  c #474849",
"C  c #564A49",
"Z  c #444A53",
"A  c #454955",
"S  c #4C525A",
"D  c #53565A",
"F  c #565149",
"G  c #68524D",
"H  c #756C52",
"J  c #555C66",
"K  c #4B5562",
"L  c #6F5D64",
"P  c #5B626A",
"I  c #5D6471",
"U  c #49646C",
"Y  c #666768",
"T  c #646A77",
"R  c #6A747C",
"E  c #766F72",
"W  c #880000",
"Q  c #960009",
"!  c #95033D",
"~  c #8E003F",
"^  c #8E2E38",
"/  c #9C1F03",
"(  c #8A4C05",
")  c #975503",
"_  c #8D520E",
"`  c #A85504",
"'  c #8E710F",
"]  c #B56603",
"[  c #B36C0E",
"{  c #8E4E31",
"}  c #A95630",
"|  c #946E2E",
" . c #A86B27",
".. c #AF7631",
"X. c #CB7707",
"o. c #C97617",
"O. c #CE740A",
"+. c #C97231",
"@. c #880343",
"#. c #970C4A",
"$. c #A10246",
"%. c #AC1052",
"&. c #AD3449",
"*. c #912752",
"=. c #C10751",
"-. c #CF1A66",
";. c #874B5D",
":. c #8D6F50",
">. c #AC764B",
",. c #86656B",
"<. c #8D6772",
"1. c #966C78",
"2. c #9B727C",
"3. c #907669",
"4. c #9A615D",
"5. c #D07F45",
"6. c #42E100",
"7. c #7C831C",
"8. c #918B04",
"9. c #B38A2F",
"0. c #A79229",
"q. c #D98F12",
"w. c #E39712",
"e. c #C9AF11",
"r. c #C6962C",
"t. c #C69637",
"y. c #CE9132",
"u. c #EC9B2B",
"i. c #D8A633",
"p. c #D8B131",
"a. c #E4AA35",
"s. c #E5B636",
"d. c #F3BD3E",
"f. c #E4A51F",
"g. c #ECC438",
"h. c #F8CC3A",
"j. c #FFD43D",
"k. c #F7D43D",
"l. c #9B8653",
"z. c #B2904E",
"x. c #BBA04E",
"c. c #928774",
"v. c #A38A79",
"b. c #AD916B",
"n. c #B8A96E",
"m. c #C59955",
"M. c #C69345",
"N. c #CFAB50",
"B. c #E6BA49",
"V. c #CDA96F",
"C. c #D0A876",
"Z. c #FED542",
"A. c #FEDA43",
"S. c #FDD648",
"D. c #EDCA4C",
"F. c #FDE555",
"G. c #FEF068",
"H. c #DFC376",
"J. c #00018C",
"K. c #010182",
"L. c #00009C",
"P. c #000292",
"I. c #15118B",
"U. c #2A138F",
"Y. c #272495",
"T. c #0001AA",
"R. c #0000B7",
"E. c #1B1AAF",
"W. c #2918A8",
"Q. c #3824A6",
"!. c #2C27B1",
"~. c #4A2C97",
"^. c #116C9D",
"/. c #6C7581",
"(. c #767D8B",
"). c #62599A",
"_. c #0001C8",
"`. c #0000D7",
"'. c #1619D7",
"]. c #2C24D0",
"[. c #0102E6",
"{. c #0A0AF1",
"}. c #1523F0",
"|. c #3523D6",
" X c #3E42C4",
".X c #5B4ADC",
"XX c #9C7383",
"oX c #8E7782",
"OX c #A67886",
"+X c #B07D90",
"@X c #8878B8",
"#X c #7A838B",
"$X c #7B8594",
"%X c #7D899A",
"&X c #4E88B3",
"*X c #1297DB",
"=X c #3384B5",
"-X c #868687",
";X c #848D9A",
":X c #919094",
">X c #B69C87",
",X c #B88695",
"<X c #AC8B91",
"1X c #B7A58E",
"2X c #8B94A3",
"3X c #8B97A6",
"4X c #929DAC",
"5X c #969CA5",
"6X c #8C91B3",
"7X c #9AA4AD",
"8X c #99A5B4",
"9X c #A7A6AA",
"0X c #A2ABBC",
"qX c #A4ABB4",
"wX c #A9B3BB",
"eX c #B6B9BB",
"rX c #B6AEAF",
"tX c #AA949C",
"yX c #C38D9B",
"uX c #CCAA95",
"iX c #C995A5",
"pX c #D49AAC",
"aX c #D198AB",
"sX c #DDA3B5",
"dX c #DBA8B5",
"fX c #D2B1AC",
"gX c #E6BEAB",
"hX c #E3A6BA",
"jX c #BFC1BF",
"kX c #EBC5B0",
"lX c #E0C989",
"zX c #ABB4C3",
"xX c #ABB8C8",
"cX c #B3BCCC",
"vX c #B3BBC4",
"bX c #A9B5CA",
"nX c #EAB3C4",
"mX c #BAC2CA",
"MX c #BAC6D7",
"NX c #BECDE1",
"BX c #C7C9CB",
"VX c #C4CCD6",
"CX c #D6D7D9",
"ZX c #CBD2D6",
"AX c #C9D8EA",
"SX c #D3DCE9",
"DX c #C5CFE8",
"FX c #D7E4E9",
"GX c #D8E5F2",
"HX c #E5E7E9",
"JX c #ECF1F5",
"KX c #F8CCE0",
/* pixels */
"6.6.6.6.6.6.6.6.6.6.6.6.6.6.6.6.6.6.6.6.6.6.6.6.6.6.6.6.6.6.6.6.6.6.6.6.6.6.6.6.6.6.6.6.6.6.6.6.6.6.",
"6.6.6.6.6.6.6.6.6.6.6.6.6.6.6.6.6.6.6.6.T (.(.(.%X;X%X%X%X/.6.6.6.6.6.6.6.6.6.6.6.6.6.6.6.6.6.6.6.6.",
"6.6.6.6.6.6.6.6.6.6.6.6.6.6.6.6.6.%X4X8XbXNXNXDXDXDXAXDXAXNXbXbX6.6.6.6.6.6.6.6.6.6.6.6.6.6.6.6.6.6.",
"6.6.6.6.6.6.6.6.6.6.6.6.6.6.; I 0XbXMXNXDXVXDXNXDXDXAXAXAXGXAXGXAXAX%XN 6.6.6.6.6.6.6.6.6.6.6.6.6.6.",
"6.6.6.6.6.6.6.6.6.6.6.6.h K 8X8XMXMXMXMXxXbXzX8X8X8X8X8XbXbXMXDXFXFXHXFXR 6.6.6.6.6.6.6.6.6.6.6.6.6.",
"6.6.6.6.6.6.6.6.6.6.6./.;X8XcXMXMXbX0X4X%X#X/.T I I I T /./.%X4XwXmXCXFXHXeXD 6.6.6.6.6.6.6.6.6.6.6.",
"6.6.6.6.6.6.6.6.6.6./.3X0XmXcXxX8X%X#XT I P D F F D Z V N F D I R 2XqXBXCXHXCXMX6.6.6.6.6.6.6.6.6.6.",
"6.6.6.6.6.6.6.6.6.I 3X0XbXmXzX3X#X/.I Y H l.x.V.H.C.V.x.l.H G V Z P R 2XeXZXHXHXNX- 6.6.6.6.6.6.6.6.",
"6.6.6.6.6.6.6.I T 2X0XxXbX0X2X(.E 3.z.M.s.p.r.t.t...t.M.N.B.N.z.:.V C J #XqXBXHXJXBX- 6.6.6.6.6.6.6.",
"6.6.6.6.6.6.2X$X;X0XbXcXzX:X(.3.m.i.q.[ ( e $ 5 5 O $ # $ e | t.B.m.H V D R 5XmXCXJXCX6.6.6.6.6.6.6.",
"6.6.6.6.6.6.(.(.4XzXcXzX3X:Xb.a.w. .w $ + # + O $ # + + + # X 7 e i.a.:.C S T 2XBXHXJXMX6.6.6.6.6.6.",
"6.6.6.6.6.;XT 2X0XbXbX4X:Xb.u.O._ ; X @ 9 = = + 9 @ +   a % a s & 1 o.f.>.F A T 5XBXGXJXmXh 6.6.6.6.",
"6.6.6.6.h R (.8XbXbXzX:XC.u.O.e & d * = = P.x @ + w @ # u j W.U.l & O ) w.M.G A T 7XZXHXJX#X6.6.6.6.",
"6.6.6.6.T T 2X0XxX0X9XC.u.o.7 = * * M F p H b + $ ' 8.7.8.H W.Q.z l % O ( q.9.V N R qXCXJXNX- 6.6.6.",
"6.6.6.- J $X4XbXzXqX>Xu.O.8 = f * M | B.g.g.g. .r e.8.^.U e.r u z s s O $ ) w.| - S %XmXHXJXP 6.6.6.",
"6.6.6./.P ;X8XcXwX1XM.O._ g f f - u p.g.k.k.h.h.p.e.r.0.r ' ' ; 3 $.! 5 X X ] w.:.N T 7XDXJXAX6.6.6.",
"6.6.6.N /.8XbXvXrXb.q.` 7 g g n @.' D.h.A.A.j.Z.Z.h.j.Z.g.s.0.m m %.%.4 % s 1 X.y.y Z #XmXHXJX2X6.6.",
"6.6.6.S (.8XcXcX1X9.[ u * * g @.%...A.j.F.G.F.j.Z.Z.Z.Z.j.j.h.x.c v ~.U.a s O 2 O.{ - I 8XCXGXMX6.6.",
"6.6.N J ;XbXcXwXb.X._ = * f f n *.| D.N.c.v.x.A.Z.Z.Z.j.A.A.k.h.| W.|.].U.a % , `  .6 N 2XVXGXAX$X6.",
"6.6.h I 4XMXMX9X..X.7 f f M M d f g l.1XkXlX0.A.Z.j.j.A.A.A.j.j.B.!.|.|.W.l a X 2 ' y N R wXSXAX;X6.",
"6.6.S /.0XcXcX<X] } s d M f x * B B G gXgXfXb.D.A.A.Z.Z.A.j.A.j.g.~..X XI.J.k % 1 ) i - I 8XZXSX2X6.",
"6.6.K (.bXVXcX>.` 8 l P.L._.`.x ^.K v.gXgXkXuXz.h.k.Z.F.A.j.A.j.g.L.].E.T.T.J.a   ( ( b P 4XMXAX3X6.",
"6.6.K ;XcXZXrX| [ 8 k L.R.`.[._.k uXgXgXkXkXuX9.k.k.B.D.A.A.A.A.g.T.{.[.`.R.P.a . 2 ) 6 J 3XmXFX2X6.",
"6.6.J ;XcXZXtX| } s k L.R.`.{.{.L.fXgXkXkXgXb.g.j.z.>Xl.k.j.j.j.h.).{.}._.R.L.k . 2 ` y P 2XMXFX3X6.",
"6.6.J 2XcXBX1X .{ l z E.E.!.E.'.E.uXgXfXc.b.D.n.#X&Xb.N.S.A.Z.S.S.B.v.~.!.].E.l s $ _ y J 2XMXGX3X6.",
"6.6.J 6XcXBX>X..{ s l Y.!.Q.Q.].!.iXgXuXH 0.D.5X=X&Xz.D.S.S.S.S.S.D.l.c ].].E.c ; ; } C T 4XMXAXP Y ",
"6.6.J ;XeXBX1X..( O o & > W W v I.).eX@XY.>XtX&X*X&Xg.k.j.A.j.Z.Z.x.)._.`._.T.P.a O ) 6 J 3XNXSXJ E ",
"6.6.K ;XmXBXuXo.( o : o < W W W 3 [.`.!.Y.oX:X+XtX9.G.G.G.S.j.Z.k.p.~.}.}.'.T.x % O _ 6 J 3XNXSXJ E ",
"6.6.K ;XvXBX>Xo./ o : > < < Q Q 3 W._.).iXpXpXsXnXG 3.v.v.V.k.j.j.j.0.M M d % 9 + $ ( t J 6XNXAXJ Y ",
"6.6.S ;XzXmX>Xo.` : : 3 4 Q : < W W U.`.~.aXpX<XXXaXhXsXpXyXb.s.A.j.s.w 0 0 + 9 + $ ( u U 3XNXAXD Y ",
"6.6.S ;XvXeXv.[ ` o , $.=.! > Q Q Q Q m +XhXOXyXsXhXsXhXsXsXiX>.A.j.k.w 0 0 @ 9 9 1 ( 6 J 4XMXGXP P ",
"6.6.S ;XwXeXc.[ ` : o %.#.8 E G Q 5 r | iXXX+XhXsXhXhXhXhXhXhX:.p.j.k.r 0 q , 1 X 1 ) - J 4XNXFXJ D ",
"6.6.S $XwXwXc._ O.< o o ; 9X(.tXb *XH | iX<.iXnXsXpXsXsXhXhXhX4.p.j.k.w + 4 =.! , ) ) - J 3XVXAXD P ",
"6.6.A $XwXwXc.e O.2 o & V #X9XBX#X*Xr 3.aXyX<XaXdXsXsXsXhXhXsX:.h.j.k.q 9 7 $.~ , ` ( ; J 3XMXAXD P ",
"6.6.A $XwXwXc.u X.^ X , t 5XjXBX:XH :.iXdXdX<XG aXKXKXhXhXhX,Xi.h.h.g.r 0 + $ + 1 ] 2 - J 3XNXNXS P ",
"6.6.A $XzXwX-X1 ] } & & h rXCXCXBXE tXnXdXiXL :X-X-X<.L dX<Xt.h.h.h.g.i.| 0.$ + ( ] $ ; K 2XMXMXV Y ",
"6.6.A %XbXzX#X7 _ o.c P.J.J.!.6XHXCXrXtXrX-XmXfX-XE n 0.r.i.B.d.a.a.a.i.9.| q $ ) ) O ; K 3XMXxXZ Y ",
"6.6.N %XzXeX-X7 i O.;.P.L.T._._.).BXHXZXeXjXZXZX-X*. .a.s.s.a.a.a.f.r.r.G d = 2 ] { $ ; S 2XmXxXN Y ",
"6.6.A %XzXeX2Xi :.} +.l P.L.R.`.`. X6XSXCXBXBX-X;.;.;.N.D.s.s.p.i.i.i.9.| k % (  .m.i ; S %XxX0XN Y ",
"6.6.N %XxXvX2X| >.i o.4.J.P.T._.`.`.|.oXfXBXtXXXyXyX+X2.4.m.B.p.p.r.9.9.' ; ( ] { 5.| 6 A %XxX0XN Y ",
"6.6.Z $XvXmX5X>.;.3 e +.L P.T.T._.Q.2.iX,XOX<XaXyXyX,XyXyX1.:.N.i.r.r.9.' 1 O._ 5 {  .p N %XbX8Xh Y ",
"6.6.Z $XvXmXtXM.{ 4 n [ +.U.J.L.U.<.,XyXaXiXaXiXyXyXyXyXyXyX2.4.9.9.9.| 2 X.] 8 4 , 0.i N %X0X7XN Y ",
"6.6.Z $XzXxX8X5.i $.v 8 X.>.z k D 2.OX+X,X,X,X,XyXyXyX+X+X2.OX<.G l.0.w ] X.{ v 4 1 } { N $XwX4X- Y ",
"6.6.N $X8XvX0X+.} $.@.@.8 O.>.G ;.<.1.OXOX+X,X,XyXv.,X+X2.2.1.1.,.u 1 ] O.{ 5 4 v ^ 9.i N #X0X3X- Y ",
"6.6.N #X8XvXqX+.z.$.$.#.@.8 [ M.2.1.1.1.XXOXOX+XOXOX2.2.<.<.<.<.L { ] X.{ n 5 5 ^ 9.9.; N $X8X%X- Y ",
"6.  h R 4XeX9X+.5.....#.@.@.^  .N.z.3.2.1.2.XXXX2.2.1.1.,.,.<.G  .w.o.^ 5 5 ^ 9.H.N.} ; K $X8X#X. Y ",
"6.  ; I 5XwX7X} ..lXN.l.^ ~ @.*.{ 9.m.c.2.<XXXXX2.1.<.4.,.:.| y.w...^ @.@.5 | lXlX>.8 ; N #X4XU   Y ",
"6.    N :XqX5X-.} N.lXN.| ^ ~ { y.|  .x.x.b.n.>X>X>Xn.n.x.a.f.y.[ 9.&.$.$.~ >.B...^ n - N I I     Y ",
";     . V ;X5X-.&.} 5.M. .t.g.B.r.} ^ ^ { :.l.z.z.M.m.m.t...} #.&.y.9.N.t.i.t...&.#.8 - ;         J ",
"Z V V V V V V y C 6 t C C C F y 7 ; 7 - ; - - - 6 y 6 y y b b 6 6 6 t y u y u t 6 6 - - - - - - 6 Y "
};
