/* XPM */
static char *result[] = {
/* columns rows colors chars-per-pixel */
"50 50 254 2 ",
"   c #000000",
".  c #06070C",
"X  c #171A1C",
"o  c #11100E",
"O  c #3B0001",
"+  c #2F1212",
"@  c #042A08",
"#  c #02380A",
"$  c #0E320F",
"%  c #33290A",
"&  c #1A1D22",
"*  c #0F0D2F",
"=  c #2B142B",
"-  c #032738",
";  c #0F2B29",
":  c #242424",
">  c #2B2B2B",
",  c #26272A",
"<  c #353537",
"1  c #322D31",
"2  c #4A0001",
"3  c #570002",
"4  c #4D0E15",
"5  c #6B0806",
"6  c #502F11",
"7  c #6F3907",
"8  c #4F0828",
"9  c #780438",
"0  c #711033",
"q  c #473B37",
"w  c #4D3127",
"e  c #763134",
"r  c #035115",
"t  c #006819",
"y  c #1B5017",
"u  c #544A08",
"i  c #744E15",
"p  c #716B11",
"a  c #4B423A",
"s  c #534838",
"d  c #554A2D",
"f  c #6E4D2B",
"g  c #77642B",
"h  c #0B0B4F",
"j  c #2C1952",
"k  c #032A44",
"l  c #023649",
"z  c #0B3B4E",
"x  c #393B44",
"c  c #272551",
"v  c #010178",
"b  c #100F70",
"n  c #2F1A7B",
"m  c #002F6F",
"M  c #322678",
"N  c #6E0643",
"B  c #4A364C",
"V  c #6E2944",
"C  c #582A69",
"Z  c #064454",
"A  c #3D4347",
"S  c #004B69",
"D  c #474849",
"F  c #564A49",
"G  c #444A53",
"H  c #454955",
"J  c #4C525A",
"K  c #53565A",
"L  c #565149",
"P  c #68524D",
"I  c #756C52",
"U  c #4B5661",
"Y  c #555C66",
"T  c #6F5D64",
"R  c #5B626A",
"E  c #5D6471",
"W  c #49646C",
"Q  c #666768",
"!  c #646A77",
"~  c #6A747C",
"^  c #766F72",
"/  c #880000",
"(  c #960009",
")  c #95033D",
"_  c #8E003F",
"`  c #8E2E38",
"'  c #9C1F03",
"]  c #8A4C05",
"[  c #975503",
"{  c #8D520E",
"}  c #A85504",
"|  c #8E710F",
" . c #B56603",
".. c #B36C0E",
"X. c #8E4E31",
"o. c #A95630",
"O. c #946E2E",
"+. c #A86B27",
"@. c #AF7631",
"#. c #CB7707",
"$. c #C97617",
"%. c #CE740A",
"&. c #C97231",
"*. c #880343",
"=. c #970C4A",
"-. c #A80A4D",
";. c #AD3449",
":. c #912752",
">. c #C10751",
",. c #CF1A66",
"<. c #874B5D",
"1. c #8D6F50",
"2. c #AC764B",
"3. c #86656B",
"4. c #8D6772",
"5. c #966C78",
"6. c #9B727C",
"7. c #907669",
"8. c #9A615D",
"9. c #D07F45",
"0. c #7C831C",
"q. c #918B04",
"w. c #B38A2F",
"e. c #A79229",
"r. c #D98F12",
"t. c #E39712",
"y. c #C9AF11",
"u. c #C6962C",
"i. c #C69637",
"p. c #CE9132",
"a. c #EC9B2B",
"s. c #D8A633",
"d. c #D8B131",
"f. c #E4AA35",
"g. c #E5B636",
"h. c #F3BD3E",
"j. c #E4A51F",
"k. c #ECC438",
"l. c #F8CC3A",
"z. c #FFD43D",
"x. c #F7D43D",
"c. c #9B8653",
"v. c #B2904E",
"b. c #BBA04E",
"n. c #928774",
"m. c #A38A79",
"M. c #AD916B",
"N. c #B8A96E",
"B. c #C59955",
"V. c #C69345",
"C. c #CFAB50",
"Z. c #E6BA49",
"A. c #CDA96F",
"S. c #D0A876",
"D. c #FED542",
"F. c #FEDA43",
"G. c #FDD648",
"H. c #EDCA4C",
"J. c #FDE555",
"K. c #FEF068",
"L. c #DFC376",
"P. c #00018C",
"I. c #010182",
"U. c #00009C",
"Y. c #000292",
"T. c #15118B",
"R. c #2A138F",
"E. c #272495",
"W. c #0001AA",
"Q. c #0000B7",
"!. c #1B1AAF",
"~. c #2918A8",
"^. c #3026AD",
"/. c #4A2C97",
"(. c #116C9D",
"). c #6C7581",
"_. c #757D8B",
"`. c #62599A",
"'. c #0001C8",
"]. c #0000D7",
"[. c #1619D7",
"{. c #2C24D0",
"}. c #0102E6",
"|. c #0A0AF1",
" X c #1523F0",
".X c #3523D6",
"XX c #3E42C4",
"oX c #5B4ADC",
"OX c #9C7383",
"+X c #8E7782",
"@X c #A67886",
"#X c #B07D90",
"$X c #8878B8",
"%X c #7A838B",
"&X c #7B8594",
"*X c #7D899A",
"=X c #4E88B3",
"-X c #1297DB",
";X c #3384B5",
":X c #868687",
">X c #848D9A",
",X c #919094",
"<X c #B69C87",
"1X c #B88695",
"2X c #AC8B91",
"3X c #B7A58E",
"4X c #8B94A3",
"5X c #8B97A6",
"6X c #929DAC",
"7X c #969CA5",
"8X c #8C91B3",
"9X c #9AA4AD",
"0X c #99A5B4",
"qX c #A7A6AA",
"wX c #A2ABBC",
"eX c #A4ABB4",
"rX c #A9B3BB",
"tX c #B6B9BB",
"yX c #B6AEAF",
"uX c #AA949C",
"iX c #C38D9B",
"pX c #CCAA95",
"aX c #C995A5",
"sX c #D49AAC",
"dX c #D198AB",
"fX c #DDA3B5",
"gX c #DBA8B5",
"hX c #D2B1AC",
"jX c #E6BEAB",
"kX c #E3A6BA",
"lX c #BFC1BF",
"zX c #EBC5B0",
"xX c #E0C989",
"cX c #ABB4C3",
"vX c #ABB8C8",
"bX c #B3BCCC",
"nX c #B3BBC4",
"mX c #A9B5CA",
"MX c #EAB3C4",
"NX c #BAC2CA",
"BX c #BAC6D7",
"VX c #BECDE1",
"CX c #C7C9CB",
"ZX c #C4CCD6",
"AX c #D6D7D9",
"SX c #CBD2D6",
"DX c #C9D8EA",
"FX c #D3DCE9",
"GX c #C5CFE8",
"HX c #D7E4E9",
"JX c #D8E5F2",
"KX c #E5E7E9",
"LX c #ECF1F5",
"PX c #F8CCE0",
/* pixels */
"a > > > > > > > > > > 1 > > 1 > > 1 > > 1 , 1 > 1 > 1 > > > > > > > > 1 > 1 > > > > > > > > > > > A ",
">                                       ! _._.&X*X*X*X*X*X).  .                                   > ",
",                                 4X6X0XmXVXGXVXGXGXDXVXDXVXmXmXX                                 > ",
":                           > ! 0XmXBXBXVXZXGXGXGXGXDXDXJXDXJXJXHXDX*Xx                           > ",
":                       x U 0XwXBXBXBXBXmXmXcX0X0X0X0X0XwXmXBXGXHXHXHXHX~                         > ",
":                   o ).*X0XNXNXBXmXwX6X*X%X).! E E E ~ ).).*X6XrXCXAXHXHXtXK   .                 > ",
":                   ).5XwXNXBXvX0X*X%X! E Y L L L J G D A L K R ~ 4XrXNXAXKXAXCX.                 > ",
":               X ).*X0XBXmXwX5X_.).! I ^ c.b.A.S.L.A.b.c.I P D G R ~ 4XyXAXKXLXCX<               , ",
"&           E E E 4XwXbXbXwX4X%X^ 7.v.V.d.d.s.w.i.@.i.C.C.Z.C.v.1.D J Y %X0XZXFXLXCX<             : ",
":           4X&X>XwXvXmXwX4X:X7.b.s.r...{ i % 0 w 4 o % % i O.i.Z.B.I F K ~ 7XCXKXLXSX            , ",
"&       . _._._.6XcXbXmX7X:Xm.a.r...u % @ $ @ + : $ @ @ @ @ X 6 { p.f.1.L H ! 4XCXAXLXSXX         : ",
":       U *X! 4XwXmXmX6X,XM.a.#.X.1 X # r ; ; @ # # @ . h * h j = 6 ..j.v.F H Q 7XCXHXLXbXx       : ",
"X       x ~ :X0XmXmXeX,XA.a.#.i X - - - ; Y.m # @ u @ $ d c ~.R.b = + } t.v.P D ! 7XSXLXLX%X      : ",
":     & ! ! 4XwXcXrXqXpXa.$.w ; * z Z L O.T B @ % p q.e.q.I E.^.n b * = [ r.w.F D ~ eXAXLXSXx     , ",
":     < Y &X9XmXcXeX<Xa.%.e ; l - Z O.g.k.k.g.e.p y.q.(.W y.g d n j = + + [ t.O.B J &XNXKXJXE     , ",
"&     ).R >X0XvXrX3XV.%.{ z Z l > a d.x.x.x.l.z.y.j.e.e.p | | % 8 -.=.0 o o  .t.I x ! 9XFXLXDX    > ",
":     A ).6XmXmXyXM.$...w l Z V =.| H.l.F.F.x.D.D.l.z.D.k.g.e.C N ,.-.9 h * 7 #.@.s H _.CXKXJX4X  : ",
":   . J &XwXbXnX3Xw...w ; k z *.-.@.G.D.J.K.J.z.D.D.D.F.z.z.l.b.j C /.~.h j X 7 %.O.x Q 0XFXLXbX  > ",
",   A Y >XcXBXtXM.#.| ; k l l V :.O.H.Z.n.m.e.F.D.D.F.z.F.F.x.l.O.~..X{.R.h * 4  .+.q H >XBXJXDX*X> ",
":   x E 6XBXZXqX@.#.w k l Z Z - l l c.3XzXjXe.F.z.z.z.F.F.F.z.z.Z.^..X.X^.b h o 7 [ s x ).tXFXDX*X> ",
": < G ).cXbXbXm. .o.j k Z l m - m S P hXzXjXM.H.D.D.F.D.F.z.z.F.k./.oXXXT.P.v * 6 ] f < E 0XSXFX4X> ",
": 1 U _.cXZXbX8. .e v Y.Y.'.].m (.U m.jXjXjXpXv.l.x.D.J.F.z.F.z.k.U.{.!.W.W.P.h   ] { q Y 6XNXDX5X: ",
": , U >XbXZXtXO.} w v U.Q.].}.'.v pXjXjXzXzX3Xi.x.x.Z.H.F.F.F.F.k.W.|.}.].Q.Y.h . 7 { q Y 5XBXHX5X: ",
"& , U >XbXCXyXo.o.B v U.'.].}.|.U.hXzXzXzXjXM.l.z.b.<Xc.x.z.z.z.l.`.|. X'.Q.Y.v . 7 } s R 5XZXFX4X: ",
"1 x Y 4XbXZX3X+.X.c b !.!.!.!. X!.aXjXhXm.M.H.N.%X_.m.C.F.F.G.G.G.Z.m./.^.{.!.b j > { s Y 4XBXJX4X< ",
"1 < Y 5XbXCX3X+.X.b M E.^.^./.{.!.pXjXpXI e.H.7X;X;Xv.H.G.F.G.G.G.H.c.M {.{.!.M , % o.F E 0XBXDXR Q ",
"> > U 4XnXCX3X..] O + = 3 / / N T.`.nX$XE.<XuX;X-X=Xd.F.l.F.z.D.D.b./.'.}.'.W.P.h + { q Y 5XVXFXY ^ ",
"> , U 4XNXCXpX&.] O 3 2 5 / / / 8 }.].^.E.+X2X@XuXv.K.K.K.F.z.D.x.d.`. X X[.W.m * + { a Y 5XVXFXK ^ ",
"> , U >XvXNX<X$.' O 2 2 5 5 ( ( 8 ~.'.`.#XsXsXMXkXT 7.M.m.A.G.z.z.z.e.Z Z l - r @ % ] a Y 5XVXDXY Q ",
", : J >XtXNX<X$.[ 2 3 8 9 ( 2 5 / / R.].`.dXsX#X@XdXkXfXsXiXM.k.F.z.g.u t r @ r @ % ] d Y 5XVXDXY Q ",
", & J >XrXtXm...} 2 4 =.>.) 3 ( ( ( ( C #XfX@XiXfXfXfXkXfXfXaX1.F.z.x.u t t # r r 6 ] q Y 5XVXHXY Q ",
", & J >XcXtXm...} 2 O -.-.e ^ P ( 0 g O.aXOX#XkXfXkXkXkXkXkXfX8.d.z.l.p t y 4 6 o 6 [ < W 6XVXHXY K ",
"> & J &XrXrXn.| %.5 O O 1 qX:X7XB -XI O.aX3.aXMXfXdXfXfXkXkXkX8.d.z.x.u @ _ >.) 4 } [ < Y 5XBXDXK Q ",
"> & J &XeXrXn.i %.7 + + D _.qXCX%X-Xp n.sXiX1XhXfXfXsXfXkXkXkX1.l.z.l.y r w ) 0 3 } ] < Y 5XBXDXK K ",
", & A *XrXrXn.d  .` o 8 F ,XhXSX,XI 1.aXsXgX1XL aXPXPXMXkXkX1Xs.l.l.k.p t @ % # 6  .7 < Y 5XBXGXJ Q ",
", & G *XcXrX:Xw  .o.= 8 x rXAXAXtX%XuXMXfXsXT ,X,X+X4.T hX2Xi.l.l.l.k.s.O.e.% @ ]  .% > J 5XBXBXG Q ",
", X H *XmXrX%X6 { $.M Y.P.P.^.8XKXAXyXuXyX+XlXlX:XT P @.u.s.h.Z.f.f.j.s.w.O.y % [ ] + > Y 5XBXNXG Q ",
", & A *XrXnX>Xw f %.<.U.U.W.'.'.`.CXKXCXnXhXSXAX,X:.+.a.g.g.f.f.f.f.u.u.P k ; 7  .X.6 > J *XNXvXA Q ",
", X G &XvXtX,Xf 1.+.&.b Y.U.Q.].].XX8XFXAXCXSX+X<.<.P C.H.g.f.d.s.s.s.w.O.I.= ] +.B.f , J *XmXwXA Q ",
", X G &XvXnX5XO.2.e %.<.Y.Y.W.'.].}..X+XhXCX7X+XiXiX1X6.8.B.Z.d.d.u.w.w.| > 7  .o.2.O.q G *XvXwXA Q ",
"> X A &XnXbX7X2.8.8 i &.C P.Y.W.Q./.OXaX1X#X#XdXiXiXiXiX1X5.2.C.s.u.u.w.| 7 #.} 0 X.@.f A *XmX0Xx Q ",
"> X G &XnXNXqXV.f 9 V ..9./.Y.U.T.4.1XiXaXaXaXaXiXiXiX1XiX1X@X1.w.w.e.O.6  ...e 9 4 e.f A *XrX0Xx Q ",
"> & H &XrXnX0X9.X.=._ e ..2.n v F OX@X#X#X1X1XiXiXiX1X#X#X@X6.5.P c.O.i  .#.X.N 9 4 @.X.A *XrX6X< ! ",
", X G _.wXnX0X&.X.-.*.9 e $.@.P 3.4.5.@X#X#X2X1X1X1X1X#X6.6.5.5.^ f u  .#.X.N 9 9 X.@.f A %X0X5X< Q ",
", X A _.eXnXeX&.v.-.-.=.*.` ..V.6.5.5.6.OX@X@X2X6.6.6.6.5.4.3.4.T f #.#.X.e 0 0 ` u.w.w A &X0X*X1 Q ",
",   x ~ 6XrXqX&.9.2.O.:.*.*.` +.C.c.8.OX4.OXOX@X6.6.6.6.3.3.4.P o.t.$.` 0 0 e @.A.B.O.> U &X0X%Xo Q ",
",   , E 4XtX7Xo.&.xXC.O.` _ *.V X.w.B.n.6.2XOXOXOX5.4.3.3.1.X.a.t.$.` *._ 0 O.xXxX2.V 1 A %X6XW   Q ",
",     J ,XrX7X,.o.C.xXC.+.` =.X.u.+.@.b.b.M.M.<X<XN.N.A.b.s.d.p...w.;.=.-.=.2.C.@.o.V < A E E     T ",
",     . G ,X7X,.;.o.V.V.@.p.g.Z.u.o.` ` X.1.c.v.v.V.B.B.i.@.o.=.;.@.u.V.C.i.u.@.;.=.e > ,         R ",
"L D D A D D L q B q q F F F L s w 1 w < < 1 < < q s s q q F B q q a s s d s d s q q B < < < < < < Q "
};
