/* XPM */
static char *f69c663dacbc4d33ac1f30f9e4c860c38WSO3kWMSGz7N6SM[] = {
/* columns rows colors chars-per-pixel */
"50 50 140 2 ",
"   c #8D8D8D",
".  c #959494",
"X  c #989695",
"o  c #949994",
"O  c #9C9D9B",
"+  c #9CA09C",
"@  c #A2A39F",
"#  c #A29EA2",
"$  c #9FA3A2",
"%  c #A4A4A3",
"&  c #A8A5A5",
"*  c #A4A8A5",
"=  c #AAABA6",
"-  c #A7A6AB",
";  c #AAA5AA",
":  c #A6ACAA",
">  c #ACACAC",
",  c #B1ADAE",
"<  c #ADB1AE",
"1  c #B1B2AD",
"2  c #AEADB1",
"3  c #B2AEB1",
"4  c #B2ADB9",
"5  c #ADB2B2",
"6  c #B3B3B4",
"7  c #B9B5B5",
"8  c #B5B9B5",
"9  c #BABAB6",
"0  c #B5B5B9",
"q  c #BAB6BA",
"w  c #B6BABA",
"e  c #BCBCBB",
"r  c #C1B7BB",
"t  c #C2BCBD",
"y  c #BAC2B7",
"u  c #BDC2BC",
"i  c #C2C3BD",
"p  c #B8B4C3",
"a  c #BDBDC2",
"s  c #BFBBC8",
"d  c #C3BEC3",
"f  c #C8BFC1",
"g  c #BEC3C1",
"h  c #BEC9C2",
"j  c #C4C4C4",
"k  c #C9C5C5",
"l  c #C5C9C4",
"z  c #CACAC6",
"x  c #C5C4CA",
"c  c #CAC6CA",
"v  c #C6C9CA",
"b  c #CCCCCB",
"n  c #D0C7C9",
"m  c #D1CDCD",
"M  c #CED1CD",
"N  c #D2D2CE",
"B  c #D9D4CE",
"V  c #D5D9CE",
"C  c #D8DBCF",
"Z  c #CDCDD2",
"A  c #CFCFD9",
"S  c #D2CED1",
"D  c #CDD1D2",
"F  c #CED1D9",
"G  c #D4D4D3",
"H  c #D9D5D3",
"J  c #D5DAD5",
"K  c #DADAD5",
"L  c #D5D6DA",
"P  c #D9D6DA",
"I  c #D6DADA",
"U  c #DBDCDC",
"Y  c #E1DDDD",
"T  c #DAE2D7",
"R  c #DDE1DC",
"E  c #E2E2DE",
"W  c #D7DCE1",
"Q  c #DBDDE2",
"!  c #E3DEE3",
"~  c #E2DEE9",
"^  c #E9DEE8",
"/  c #DDE2E2",
"(  c #E4E3E4",
")  c #EAE5E5",
"_  c #E5E9E6",
"`  c #EAE9E5",
"'  c #ECEBE7",
"]  c #EBECE7",
"[  c #EEECE7",
"{  c #E2E3E9",
"}  c #E4E4E9",
"|  c #E6E5EA",
" . c #E7E3ED",
".. c #EAE4EA",
"X. c #EBE6EB",
"o. c #EDE5E9",
"O. c #EAE4EE",
"+. c #E3EAEB",
"@. c #E4E9EB",
"#. c #E5EDEB",
"$. c #E7E9EC",
"%. c #E9E9EB",
"&. c #E8EBEB",
"*. c #ECEAEB",
"=. c #EBEEE9",
"-. c #ECEEE9",
";. c #E9E8EC",
":. c #EBEAED",
">. c #EDEBED",
",. c #EEEAEC",
"<. c #ECEDED",
"1. c #F1E7E2",
"2. c #F1ECE3",
"3. c #F1E9EA",
"4. c #F0EBEB",
"5. c #F1ECEE",
"6. c #EBF4E3",
"7. c #EAF0E9",
"8. c #EEF0E9",
"9. c #EDF7E8",
"0. c #EBF1EC",
"q. c #ECF3ED",
"w. c #EDF2EE",
"e. c #F0F0EA",
"r. c #F1F2EE",
"t. c #EEE7F1",
"y. c #ECEDF1",
"u. c #F3ECF2",
"i. c #E6F5F7",
"p. c #EAF1F1",
"a. c #EEF1F2",
"s. c #EEF2F5",
"d. c #E7F8F7",
"f. c #EAF8F1",
"g. c #F2F7F2",
"h. c #F5F5F4",
"j. c #F6F8F4",
"k. c #F7F6F8",
"l. c #F8F2F8",
"z. c #F7F8F8",
/* pixels */
"=.-.=.+.} ( / _ _ ) o.O. .%.-.-.%.:.>.>.>.%.#.:..._ ` ` $.$.%.[ 2.1.) -.g.s.O.} ` ` 4.5.8.6.9.f.d.i.",
"U I I I K K K K K K U U P U U I P P U Y U I J G G H K K I U U U U U Y ( e.' U U / ( ..*.] ] 8.w.p.p.",
"G N G G G G G H H H H H G G J G G G G G G M z z z m N N N G G G G G P ! -.E G L W Q { ..%.-.w.w.0.>.",
"G M M m m S S S B B H G G G G V M D G N M z k k z z m m b b b b G G L ~ :.Y m G Q / { } %.%.-.7.=.>.",
"m z b b m m S m m N N M D M V V M D Z b z z k k z b m m c c z b D J U ~ t.! b b U _ } +.@._ ` _ _ @.",
"v l v z b M M M b b b b v D G G G D b z z l k b m B B m m b v b D J U } >.! n m Y ) %.$.$._ ( ( / ( ",
"j j l z b M M M b z v v Z D G G G M z z v v v m m B B G G b b b G J U ( >.! m m U ) *.:.$.@.( / W W ",
"t t j z b b M b z z v Z Z G G G G N b z z v b m m B B H G G G G G K R ( >.~ Z Z Q _ %.:.y.$./ I G G ",
"e r d k z z b z z z v Z D G G G G G b z z z z m B B B H G G G G J U R ( u.^ Z A Q _ %.:.$.} Q L S D ",
"e q r j k k v v v z b S G G L H G G M b z z z b V N G G G G G J I U U ( u.^ G L / _ ` ) ( Q U H m G ",
"e q e t i j j k v z b M G G G H G G G G m b b M M N N S F F L L I I U ( 5.) G G R ( ( ! Y P H B m G ",
"e 0 9 e t t d j l l l z D G G H G G G G G G N N M b m Z D F F F G I U ! >.} N M L I U U P H B B m B ",
"a 0 w 9 e e a a g d j k b N G H P G G G G G G G Z b b b D D Z Z F J I ! ..^ b k b S G H H H C V B B ",
"g w w e 9 9 e e e e e j k b N H P G G G G G G G S b b b M b v v D D J Q ..! k r j v G G I J K C C K ",
"j e e e y y e 9 9 9 e e i z b G G G G G G G G G S m b b b b c c v D G ! ..Y f r d v D I R R R T T R ",
"v j i i u u u e w w w 9 e i l z N G G G J J J G G N M b b k k x v Z G Y 4.Y d r k b G I R R E R / _ ",
"S c k j i i u u w w 8 6 6 9 u l z b b S G V V G G S b b z k j j j z G Y 4.Y d r c b G I U R E / / #.",
"G b b k k l h u u w 8 6 6 6 e i l l l z b M M N m m m b k j t t i k S Y ..! j t z D D G G U U Q / #.",
"G z z k j j g u u e 9 6 6 6 e i u g u j l z b b b m n z j i t e e j v P O.Y k i z M M Z S G G L Q _ ",
"N z k j i u e e e t e 7 0 0 9 e u e y i j z b b b b z k i i t e e a x L } U l u v v c j x k c S I ( ",
"b k f t e 9 9 9 e e e 7 7 q e e 9 9 9 e j k b m b z l j u e 9 w 0 q s A { U g e j d r q 7 q d c G R ",
"k t t r 9 7 6 7 7 7 7 7 7 q 9 9 7 6 6 7 e j z z z j j e 9 6 6 5 2 4 p Z { P a 6 9 9 6 , , , 7 j z G ",
"j r e 9 6 2 2 3 3 > > , 6 0 8 6 6 , > 2 0 e u i i u e q 6 2 > - - 2 0 Z ~ P 7 > 1 1 > ; & = 1 w j b ",
"e 9 9 6 6 2 2 , > : : : < 6 6 6 3 > > > 3 6 9 u u e q 7 3 2 > & - > 0 v ~ L 0 & = = = ; ; = < w u v ",
"b z z b z v k j j g g g j l i j j j j j j j j z z z k j d a a e t j k G ( W j e u u e e e d j v v D ",
"%.%.%.%.%.%.%.%.%._ _ ` ` E U U U U E ( ( Y Y ( ( U U U U U / ! ( ( ( _ %._ ! U R / U U U ( ( / ( _ ",
"k.k.k.k.k.k.k.k.k.k.k.j.h._ P P U ( _ %.o.o...>.*._ } } _ ..%.:.:.-.-.*.*.` ) ) %.@.<.:.%.%.:.%.) >.",
"h.g.h.k.k.k.k.g.g.h.h.k.h./ c c N J R E ( ) ......( / / ( ( _ } _ _ ` ` ' ) ( ( } +.@.@.@.+.} } } ) ",
"%.) *.>.>.-.%.] =.w.y.g.g.I e r z N G K K U E ( ( E U I I I I I I T R R ( / U U U / / U U U U P G G ",
"( ( _ ) ) ( ( E _ <.a.h.u.I e e z M V V V G J J I I G G M M G V M G G G U U I I L P P P P I H B c c ",
"( } } } ( U U R @.a.h.k.g.K u u z N V V N N b Z Z Z Z b z z b M M b b S S G G N S S G G G G G m k c ",
"} ....} ( U U } <.h.k.z.g.U i i z G G N N m z c c v k l l l z b m b z c b n z b n m G G G N b z k v ",
"%.O.:.%.} ( } =.a.k.k.k.g.U j j b G G G G m c c j e e u u i l m N N z v c k z b m G G G G b z k x v ",
"@.:.:.>.<.:.<.w.h.k.k.k.r.E z k b G G G G m c j r q 6 8 8 u l b N N b z c z b S G G P P G b k j j v ",
"} } :.>.<.0.w.g.k.k.k.k.h.( b c b D G G S b j d e 6 6 6 6 e i z b M b z v v Z G G I U U G b z k j b ",
"( ( } %.=.0.w.g.k.k.k.k.h.} Z c v Z S S Z c d e 9 6 6 6 6 9 e i l l v v v Z A L I I / / J N b z z m ",
"} ( ( _ _ ] 8.r.h.k.h.l.u.^ Z x x c Z b c x a 9 9 8 6 6 6 7 e e u j j x c Z Z F L I Q Q I G G N M G ",
"..( ! ( ( _ ` 4.h.h.h.u.u.! c a a a j x x d a 9 9 9 6 6 6 6 8 9 9 e e a a x c Z D I U Q U I G G G I ",
"O.} ( ( ( ( ( ) 5.u.u.u.r.U j 0 0 0 e a j d a e e 9 8 6 6 6 6 8 8 8 0 0 w a a x b G U U U U J J J U ",
">...) ) _ ( E ( ..>.>.r.r.U e 2 2 6 w a j v j j i i e 6 0 6 6 6 6 6 6 6 6 0 w a j D K U U U I J J U ",
"y.:...) _ R U U ( } =.r.w.U e > > 6 w g x v l l l j i e e 9 9 6 9 6 6 6 2 2 5 6 e k N G L P I K J U ",
"y.>..._ ( U I I Q } %.w.w.I e > , 6 9 e j l l l z z k j j d e e e e w 6 2 > > > 6 e k z Z S G J I U ",
">....._ ( I G G I ( ` w.y.I a 6 6 6 9 e a j l l z b b b c k j j j g e w 6 2 = = > 6 e j j v M G J U ",
"......( U I G G G E ` y.y.L a 6 6 0 q q 9 e i j z b m m c k j j l g g e q 6 > = : < 8 e e j l M G I ",
"} ( ( U I G G b G I } <.:.L a 6 6 6 6 6 6 8 e j k b m m c c k k j g e e 9 6 1 > > 5 6 6 9 e j v b G ",
"E Y Y I G D b v b G U _ ` K e 6 > : = & = > 6 9 d c c c c c j j a e 9 9 9 6 < > > 3 6 6 0 0 e d k S ",
"Y U K G D z v j j z G Y ) H e - % % O O O @ = 3 q d d d d d d e w 6 6 6 6 6 > > > , , , 3 3 0 q d b ",
"U K G D v j j g g j z P ^ L 6 $ O X . . . X O - 3 q e e d a e 0 5 : > < < : = = > , , , > ; ; , q k ",
"G G b z j g e 9 9 e j S Q Z 5 + o .       . . # ; , 6 6 0 0 0 5 : * * * * % @ * = = - - & % % & , t ",
"G b b b v j j e e i k G / D 8 * + X . . X X + % > 1 6 6 6 0 0 5 < > : : - * * = < < 3 3 > = = : < e "
};
